<svg width="265" height="206" viewBox="0 0 265 206" fill="none" xmlns="http://www.w3.org/2000/svg">
<path fill-rule="evenodd" clip-rule="evenodd" d="M212.217 135.565C213.733 135.317 215.101 136.347 214.72 137.482L206.623 161.603L198.768 184.992C198.387 186.114 196.551 186.538 195.373 185.795C132.62 146.151 90.1587 136.282 2.52501 149.099C1.02678 149.321 -0.315568 148.29 0.0654857 147.175L16.0351 99.6063C16.4162 98.4844 18.2521 98.0604 19.4299 98.8105C88.1495 142.263 131.746 148.734 212.217 135.565Z" fill="#8664FF"/>
<path fill-rule="evenodd" clip-rule="evenodd" d="M215.551 135.011L206.622 161.596L197.953 187.426C149.412 156.418 113.325 142.955 60.2024 143.855L66.6976 124.496C112.77 144.612 153.076 145.512 215.551 135.004V135.011ZM49.1432 116.063C44.1288 113.447 39.0106 110.604 33.7624 107.538L20.6161 146.699C27.1546 145.936 33.4334 145.316 39.4782 144.853L49.1432 116.063Z" fill="#FDADAD"/>
<path d="M151.612 81.6175C154.453 86.105 155.674 87.7225 157.207 92.4122C163.616 92.4122 179.525 92.8362 185.864 92.8362C186.436 92.8362 186.808 90.9577 186.86 90.6511C187.483 86.8811 186.825 82.9481 186.349 79.1911C186.072 77.0387 185.128 74.8863 187.38 73.1187C191.987 69.4922 198.612 66.9614 204.207 64.0328C211.602 60.165 218.046 55.9254 223.199 50.7204C241.403 32.3726 238.848 7.40451 199.547 1.5473C153.769 -6.67757 104.31 18.9102 124.644 54.0469C130.291 63.8046 145.732 72.3034 151.621 81.611L151.612 81.6175Z" fill="#FFCF54"/>
<path fill-rule="evenodd" clip-rule="evenodd" d="M172.787 41.6344C170.656 40.8712 168.439 40.5712 166.283 41.23C162.117 42.4953 160.065 45.3522 159.398 49.1809C158.731 53.0161 159.485 57.7515 160.844 62.6107C162.204 67.4635 164.152 72.4075 165.85 76.6602C165.945 76.895 166.04 77.1298 166.127 77.3581C167.695 81.2781 169.02 84.585 169.349 86.5418C169.383 86.757 169.184 86.9527 168.898 86.9788C168.613 87.0049 168.353 86.8548 168.318 86.6396C168.006 84.7481 166.707 81.4999 165.114 77.5211C165.027 77.3124 164.941 77.1037 164.863 76.8885C163.165 72.6423 161.199 67.6657 159.84 62.7738C158.471 57.8884 157.692 53.0487 158.376 49.0765C159.06 45.0978 161.251 41.9148 165.902 40.4994C168.422 39.7298 170.959 40.1081 173.246 40.9234C174.372 41.3278 175.09 41.9083 175.558 42.6062C176.138 42.3649 176.71 42.1431 177.221 41.954C178.191 41.6017 179.291 41.2756 180.278 41.3278C180.798 41.3539 181.291 41.4843 181.716 41.7583C182.14 42.0322 182.452 42.4301 182.66 42.9454C182.789 43.265 182.833 43.6042 182.824 43.9433C182.989 43.9238 183.153 43.9042 183.335 43.8846C185.396 43.6759 187.128 44.8369 187.977 46.2262C188.834 47.6351 188.912 49.4614 187.44 50.7919L187.423 50.8115L187.405 50.8246C185.18 52.4291 183.292 53.4857 181.724 54.3598C181.265 54.6141 180.832 54.8555 180.425 55.0903C178.633 56.1273 177.325 57.0731 176.294 58.782C175.255 60.5105 174.493 63.0412 173.895 67.2743C173.298 71.5009 172.873 77.3907 172.484 85.8112C172.475 86.0265 172.233 86.1961 171.947 86.1895C171.661 86.183 171.436 86.0004 171.444 85.7851C171.834 77.3646 172.259 71.4487 172.865 67.1895C173.462 62.9368 174.242 60.3018 175.35 58.4559C176.476 56.5839 177.931 55.5468 179.793 54.4706C180.217 54.2228 180.668 53.9749 181.127 53.714C182.686 52.84 184.504 51.829 186.661 50.2701C187.778 49.2461 187.769 47.772 187.033 46.5523C186.28 45.313 184.894 44.5108 183.474 44.6608C183.188 44.6869 182.945 44.7195 182.703 44.7456C182.608 45.15 182.478 45.5348 182.356 45.8675C182.356 45.887 182.339 45.9131 182.33 45.9457C182.244 46.2001 182.036 46.7741 181.776 47.3024C181.629 47.5959 181.447 47.9025 181.248 48.1308C181.144 48.2416 181.023 48.3656 180.858 48.4504C180.694 48.5417 180.451 48.6134 180.174 48.5743C179.724 48.5025 179.377 48.2612 179.117 48.0134C178.858 47.7525 178.641 47.4394 178.477 47.1198C178.312 46.8002 178.2 46.461 178.148 46.1544C178.096 45.8675 178.096 45.5413 178.243 45.2935C178.355 45.0978 178.581 44.9543 178.771 44.8565C178.979 44.7521 179.213 44.6673 179.438 44.5956C179.897 44.4521 180.391 44.3477 180.659 44.289C181.066 44.2107 181.421 44.1455 181.759 44.0868C181.794 43.7542 181.759 43.4411 181.655 43.1802C181.482 42.7628 181.257 42.5084 181.023 42.3518C180.798 42.2018 180.52 42.1235 180.191 42.1105C179.499 42.0714 178.624 42.3062 177.654 42.6584C177.1 42.8606 176.502 43.0889 175.913 43.3433C176.017 43.6107 176.095 43.8911 176.164 44.1847C176.329 44.9804 176.537 46.037 175.671 46.8784C175.212 47.322 174.649 47.5568 174.06 47.5829C173.48 47.609 172.951 47.4329 172.562 47.1654C171.791 46.6502 171.358 45.6783 172.025 44.8565C172.588 44.1716 173.471 43.6042 174.398 43.1345C174.476 43.0954 174.562 43.0563 174.64 43.0106C174.268 42.4105 173.679 41.954 172.778 41.6278L172.787 41.6344ZM175.004 43.7737C175.004 43.7737 174.995 43.7737 174.987 43.7803C174.112 44.2238 173.367 44.713 172.925 45.2609C172.579 45.6783 172.769 46.2392 173.263 46.5719C173.497 46.7284 173.765 46.8067 174.008 46.7937C174.242 46.7806 174.545 46.6893 174.857 46.3893C175.411 45.8544 175.324 45.15 175.151 44.3021C175.116 44.1129 175.064 43.9368 175.004 43.7672V43.7737ZM181.603 44.9217C181.395 44.9608 181.179 45 180.936 45.0456C180.676 45.0978 180.243 45.1891 179.854 45.313C179.654 45.3783 179.49 45.437 179.36 45.5022C179.239 45.5609 179.204 45.6 179.204 45.6066C179.178 45.6522 179.143 45.7957 179.187 46.0566C179.23 46.2914 179.317 46.5719 179.455 46.8393C179.594 47.1133 179.767 47.3546 179.949 47.5372C180.087 47.6742 180.209 47.7459 180.304 47.7851C180.33 47.7655 180.356 47.7394 180.391 47.7003C180.529 47.5503 180.668 47.3089 180.815 47.035C181.057 46.5523 181.248 46.0175 181.335 45.7566C181.343 45.724 181.361 45.6914 181.369 45.6653C181.456 45.4305 181.542 45.1761 181.62 44.9217H181.603Z" fill="#141B4D"/>
<path d="M145.939 90.1165C145.939 87.5206 148.737 85.4138 152.184 85.4138H188.6C192.047 85.4138 194.844 87.5206 194.844 90.1165V97.9501C194.844 100.546 192.047 102.653 188.6 102.653H152.184C148.737 102.653 145.939 100.546 145.939 97.9501V90.1165Z" fill="#40DA6B"/>
<path fill-rule="evenodd" clip-rule="evenodd" d="M134.595 94.036H206.64C226.195 94.036 243.247 104.048 248.01 118.332L263.694 165.346C270.458 185.631 250.097 205.297 222.324 205.297H118.911C91.1373 205.297 70.7769 185.631 77.5406 165.346L93.2245 118.332C97.9876 104.048 115.04 94.036 134.595 94.036Z" fill="#E14F60"/>
<path d="M226.056 150.84C226.056 173.995 201.141 192.76 170.396 192.76C139.652 192.76 114.737 173.995 114.737 150.84C114.737 127.685 139.652 108.92 170.396 108.92C201.141 108.92 226.056 127.692 226.056 150.84Z" fill="#141B4D"/>
<path d="M240.615 188.449C240.615 191.26 237.584 193.543 233.851 193.543C230.119 193.543 227.087 191.26 227.087 188.449C227.087 185.638 230.119 183.355 233.851 183.355C237.584 183.355 240.615 185.638 240.615 188.449Z" fill="#FDADAD"/>
<path d="M226.048 108.529C226.048 111.341 223.016 113.624 219.284 113.624C215.551 113.624 212.52 111.341 212.52 108.529C212.52 105.718 215.551 103.435 219.284 103.435C223.016 103.435 226.048 105.718 226.048 108.529Z" fill="#FDADAD"/>
<path d="M114.728 188.449C114.728 191.26 111.697 193.543 107.964 193.543C104.232 193.543 101.201 191.26 101.201 188.449C101.201 185.638 104.232 183.355 107.964 183.355C111.697 183.355 114.728 185.638 114.728 188.449Z" fill="#FDADAD"/>
<path d="M128.256 110.095C128.256 112.906 125.225 115.189 121.492 115.189C117.759 115.189 114.728 112.906 114.728 110.095C114.728 107.283 117.759 105.001 121.492 105.001C125.225 105.001 128.256 107.283 128.256 110.095Z" fill="#FDADAD"/>
<path d="M161 13.2355C162.455 15.3488 159.692 18.597 154.842 20.4885C149.992 22.38 144.883 22.1974 143.428 20.0841C141.973 17.9708 144.736 14.7226 149.585 12.8311C154.435 10.9396 159.545 11.1222 161 13.2355Z" fill="white"/>
<path d="M142.145 23.6066C143.167 24.6502 142.466 26.346 140.569 27.3896C138.681 28.4398 136.326 28.4398 135.304 27.3962C134.282 26.3526 134.992 24.6567 136.88 23.6131C138.768 22.5695 141.123 22.563 142.145 23.6066Z" fill="white"/>
<path d="M152.409 141.977C152.062 137.209 159.112 132.017 168.318 131.645C177.524 131.273 186.175 135.891 186.522 140.653C186.868 145.421 178.918 149.556 169.712 149.928C160.506 150.3 152.755 146.738 152.409 141.97V141.977Z" fill="white"/>
<path d="M167.391 154.474C166.828 147.997 176.19 142.264 188.306 141.664C200.421 141.064 210.701 145.825 211.264 152.302C211.827 158.779 202.465 164.512 190.35 165.112C178.234 165.712 167.954 160.951 167.391 154.474Z" fill="white"/>
<path d="M130.489 152.602C129.381 148.623 134.629 144.298 142.224 142.948C149.819 141.592 156.877 143.718 157.994 147.697C159.112 151.675 153.855 156 146.26 157.35C138.665 158.707 131.606 156.58 130.489 152.602Z" fill="white"/>
<path d="M144.484 154.519C145.264 148.851 153.153 144.983 162.099 145.883C171.046 146.783 177.662 152.106 176.883 157.78C176.103 163.448 168.214 167.316 159.268 166.416C150.321 165.516 143.705 160.194 144.484 154.519Z" fill="white"/>
</svg>
