<svg width="220" height="220" viewBox="0 0 220 220" fill="none" xmlns="http://www.w3.org/2000/svg">
<path fill-rule="evenodd" clip-rule="evenodd" d="M101.229 0.000186642C101.926 0.0110387 102.529 0.493386 102.694 1.17391L119.502 70.1545L144.783 32.2507C145.151 31.6986 145.831 31.446 146.468 31.6242C147.106 31.8024 147.558 32.3713 147.589 33.0351L149.35 70.5302L157.664 62.7771C158.171 62.3041 158.931 62.231 159.519 62.5986L185.97 79.1524L184.348 81.7662L158.892 65.8352L149.017 75.0432C148.58 75.451 147.947 75.567 147.394 75.3404C146.842 75.1139 146.47 74.586 146.442 73.9874L144.744 37.8428L120.113 74.7718C119.775 75.2788 119.17 75.5375 118.572 75.4311C117.974 75.3248 117.494 74.8736 117.35 74.2808L101.111 7.63323L85.4315 64.3176C85.293 64.8184 84.9124 65.2152 84.4193 65.3728C83.9262 65.5305 83.3871 65.4277 82.9859 65.0996L59.7248 46.0784L68.1909 80.0859C68.3111 80.5687 68.1915 81.0801 67.8698 81.4587C67.5482 81.8374 67.0641 82.0365 66.5704 81.9934L31.302 78.9137C30.4583 78.84 29.8339 78.0934 29.9072 77.2462C29.9806 76.3989 30.724 75.7718 31.5677 75.8455L64.6942 78.7382L55.6318 42.3355C55.4717 41.6922 55.7396 41.0182 56.2969 40.6625C56.8542 40.3067 57.5756 40.3492 58.0877 40.768L83.1042 61.2247L99.7275 1.12775C99.9142 0.452714 100.531 -0.0106653 101.229 0.000186642Z" fill="#FFC600"/>
<path fill-rule="evenodd" clip-rule="evenodd" d="M38.713 91.5793C33.1427 95.3893 25.4887 94.8136 20.5482 89.8522C14.9591 84.2394 14.9591 75.1394 20.5482 69.5266C26.1373 63.9139 35.199 63.9139 40.7881 69.5266C45.7287 74.4881 46.302 82.1744 42.508 87.7683L60.4859 105.822L56.691 109.633L38.713 91.5793Z" fill="#8664FF"/>
<path fill-rule="evenodd" clip-rule="evenodd" d="M180.883 91.5793C186.454 95.3893 194.108 94.8136 199.048 89.8522C204.637 84.2394 204.637 75.1394 199.048 69.5266C193.459 63.9139 184.397 63.9139 178.808 69.5266C173.868 74.4881 173.294 82.1744 177.088 87.7683L159.11 105.822L162.905 109.633L180.883 91.5793Z" fill="#8664FF"/>
<path fill-rule="evenodd" clip-rule="evenodd" d="M0.15139 199.085C-1.31665 210.471 8.09608 219.82 19.5289 219.82H200.471C211.904 219.82 221.317 210.471 219.849 199.085C211.578 134.941 165.547 85.849 110 85.849C54.4534 85.849 8.42159 134.941 0.15139 199.085Z" fill="#141B4D"/>
<path fill-rule="evenodd" clip-rule="evenodd" d="M1.07779 192.871C0.729648 194.926 0.420524 196.997 0.15139 199.085C-1.31665 210.471 8.09608 219.82 19.5289 219.82H200.471C211.904 219.82 221.317 210.471 219.849 199.085C219.579 196.997 219.27 194.926 218.922 192.871H1.07779Z" fill="#50B2DC"/>
<path fill-rule="evenodd" clip-rule="evenodd" d="M155.308 126.159C167.308 139.152 174.049 156.773 174.049 175.148H167.65C167.65 158.611 161.583 142.752 150.783 131.058C139.984 119.365 125.336 112.796 110.063 112.796C94.7902 112.796 80.1427 119.365 69.343 131.058C58.5434 142.752 52.4762 158.611 52.4761 175.148H46.0776C46.0776 156.773 52.819 139.152 64.8186 126.159C76.8183 113.167 93.0933 105.868 110.063 105.868C127.033 105.868 143.308 113.167 155.308 126.159Z" fill="#EB5757"/>
<path fill-rule="evenodd" clip-rule="evenodd" d="M151.085 130.731C161.965 142.511 168.077 158.488 168.077 175.148H162.276C162.275 160.154 156.775 145.775 146.983 135.173C137.191 124.571 123.911 118.615 110.063 118.615C96.2157 118.615 82.9353 124.571 73.1436 135.173C63.3519 145.775 57.851 160.154 57.8509 175.148H52.0495C52.0495 158.488 58.1617 142.511 69.0414 130.731C79.921 118.951 94.677 112.334 110.063 112.334C125.449 112.334 140.205 118.951 151.085 130.731Z" fill="#FFCF54"/>
<path fill-rule="evenodd" clip-rule="evenodd" d="M147.344 134.628C157.25 145.354 162.816 159.902 162.816 175.071H157.534C157.533 161.419 152.525 148.326 143.609 138.673C134.693 129.019 122.601 123.596 109.992 123.596C97.3834 123.596 85.2911 129.019 76.3753 138.673C67.4597 148.326 62.4509 161.419 62.4508 175.071H57.1683C57.1683 159.902 62.7336 145.354 72.64 134.628C82.5464 123.902 95.9823 117.876 109.992 117.876C124.002 117.876 137.438 123.902 147.344 134.628Z" fill="#40DA6B"/>
<path fill-rule="evenodd" clip-rule="evenodd" d="M143.725 138.547C152.671 148.234 157.697 161.372 157.697 175.071H109.992L62.2872 175.071C62.2872 161.372 67.3132 148.234 76.2596 138.547C85.206 128.861 97.3399 123.419 109.992 123.419C122.644 123.419 134.778 128.861 143.725 138.547ZM140.351 142.2C148.403 150.918 152.926 162.742 152.926 175.071L109.992 175.071L67.0574 175.071C67.0574 162.742 71.5808 150.918 79.6326 142.2C87.6843 133.482 98.6049 128.584 109.992 128.584C121.379 128.584 132.299 133.482 140.351 142.2Z" fill="#50B2DC"/>
<path d="M188.609 171.513C188.609 176.931 177.625 181.322 164.075 181.322C150.525 181.322 139.54 176.931 139.54 171.513C139.54 166.096 150.525 161.704 164.075 161.704C177.625 161.704 188.609 166.096 188.609 171.513Z" fill="white"/>
<path d="M80.5039 171.513C80.5039 176.931 69.3478 181.322 55.586 181.322C41.8243 181.322 30.6682 176.931 30.6682 171.513C30.6682 166.096 41.8243 161.704 55.586 161.704C69.3478 161.704 80.5039 166.096 80.5039 171.513Z" fill="white"/>
<path fill-rule="evenodd" clip-rule="evenodd" d="M91.6245 170.034L95.8379 148.215L112.548 162.789L103.898 165.784L112.984 192.244C113.329 193.249 112.798 194.345 111.797 194.691C110.796 195.038 109.705 194.504 109.36 193.499L100.274 167.039L91.6245 170.034Z" fill="#8664FF"/>
<path d="M126.924 192.464C126.924 201.168 119.897 208.225 111.229 208.225C102.561 208.225 95.5338 201.168 95.5338 192.464C95.5338 183.759 102.561 176.702 111.229 176.702C119.897 176.702 126.924 183.759 126.924 192.464Z" fill="#FDADAD"/>
<path fill-rule="evenodd" clip-rule="evenodd" d="M111.229 202.835C116.933 202.835 121.557 198.192 121.557 192.464C121.557 186.736 116.933 182.092 111.229 182.092C105.525 182.092 100.901 186.736 100.901 192.464C100.901 198.192 105.525 202.835 111.229 202.835ZM111.229 208.225C119.897 208.225 126.924 201.168 126.924 192.464C126.924 183.759 119.897 176.702 111.229 176.702C102.561 176.702 95.5338 183.759 95.5338 192.464C95.5338 201.168 102.561 208.225 111.229 208.225Z" fill="#8664FF"/>
<path d="M26.0679 205.961C26.0679 208.937 23.6651 211.35 20.701 211.35C17.7369 211.35 15.3341 208.937 15.3341 205.961C15.3341 202.984 17.7369 200.571 20.701 200.571C23.6651 200.571 26.0679 202.984 26.0679 205.961Z" fill="#115B7A"/>
<path d="M204.71 205.961C204.71 208.937 202.307 211.35 199.343 211.35C196.379 211.35 193.976 208.937 193.976 205.961C193.976 202.984 196.379 200.571 199.343 200.571C202.307 200.571 204.71 202.984 204.71 205.961Z" fill="#115B7A"/>
</svg>
