<svg width="500" height="500" viewBox="0 0 500 500" fill="none" xmlns="http://www.w3.org/2000/svg">
<path d="M236.795 251.849C235.99 250.355 234.088 249.856 232.653 250.762L189.602 277.966C188.33 278.77 187.874 280.407 188.548 281.753L192.014 288.67C192.713 290.065 194.384 290.667 195.813 290.038L242.655 269.393C244.218 268.705 244.862 266.83 244.052 265.326L236.795 251.849Z" fill="#141B4D"/>
<path d="M203.504 282.614C204.991 281.887 205.58 280.073 204.804 278.611L166.718 206.91C165.984 205.528 164.293 204.968 162.879 205.638L161.054 206.502C159.61 207.186 158.981 208.901 159.64 210.356L193.144 284.325C193.825 285.829 195.614 286.473 197.097 285.748L203.504 282.614Z" fill="#40DA6B"/>
<path d="M118.984 189.327C120.631 209.066 137.969 223.732 157.708 222.084C177.446 220.436 192.112 203.099 190.464 183.36C188.817 163.621 171.479 148.955 151.74 150.603C132.002 152.251 117.336 169.588 118.984 189.327Z" fill="#141B4D"/>
<path d="M127.954 191.147C129.114 205.045 141.321 215.371 155.219 214.211C169.116 213.051 179.442 200.844 178.282 186.946C177.122 173.048 164.915 162.722 151.017 163.882C137.12 165.043 126.794 177.25 127.954 191.147Z" fill="#C0EDFF"/>
<path d="M132.806 183.487C133.193 188.12 137.262 191.562 141.895 191.175C146.527 190.788 149.969 186.719 149.582 182.087C149.196 177.454 145.127 174.012 140.494 174.399C135.861 174.786 132.42 178.855 132.806 183.487Z" fill="white"/>
<path d="M201.571 279.49C201.515 281.315 199.991 282.749 198.166 282.693C196.342 282.637 194.908 281.113 194.963 279.288C195.019 277.463 196.544 276.029 198.368 276.085C200.193 276.141 201.627 277.665 201.571 279.49Z" fill="#141B4D"/>
<path d="M153.331 171.869C153.331 174.093 151.529 175.895 149.306 175.895C147.082 175.895 145.28 174.093 145.28 171.869C145.28 169.646 147.082 167.844 149.306 167.844C151.529 167.844 153.331 169.646 153.331 171.869Z" fill="white"/>
<path fill-rule="evenodd" clip-rule="evenodd" d="M388.39 253.917C389.016 255.185 389.587 256.343 390.11 257.36L378.392 263.382C377.75 262.133 377.09 260.806 376.403 259.423C372.485 251.54 367.656 241.826 359.942 234.166C351.39 225.674 339.27 219.764 320.167 224.133L317.23 211.29C341.118 205.826 357.757 213.429 369.225 224.817C378.643 234.169 384.547 246.132 388.39 253.917Z" fill="#141B4D"/>
<path fill-rule="evenodd" clip-rule="evenodd" d="M369.165 288.807C360.54 274.522 364.141 256.024 378.676 247.247C393.088 238.545 411.826 243.175 420.528 257.587C422.591 261.005 423.712 264.245 423.801 267.26C423.891 270.347 422.888 273.032 421.022 275.167C417.438 279.266 411.115 280.9 404.594 280.94C401.629 280.958 399.669 278.485 399.507 276.06C398.95 267.705 395.98 263.977 393.116 262.55C390.14 261.068 386.24 261.536 382.797 263.689C379.366 265.834 376.964 269.311 376.725 272.983C376.498 276.485 378.197 280.976 384.648 285.367C387.516 287.319 388.13 292.23 384.366 294.273C381.928 295.597 379.097 296.831 376.092 295.805C373.284 294.847 371.206 292.186 369.165 288.807Z" fill="#8664FF"/>
<g clip-path="url(#clip0_1133_6711)">
<path d="M421.453 257.935C417.957 252.119 412.666 247.596 406.378 245.048C400.089 242.499 393.142 242.063 386.583 243.805C386.363 243.872 386.126 243.86 385.913 243.773C385.7 243.685 385.523 243.527 385.413 243.325C383.652 240.157 381.733 237.08 379.663 234.105C376.495 229.533 372.807 225.345 368.673 221.625C365.183 226.495 361.993 231.765 357.763 235.905C360.472 238.491 362.911 241.346 365.043 244.425C367.024 247.265 368.84 250.216 370.483 253.265C370.581 253.44 370.624 253.64 370.606 253.84C370.588 254.04 370.51 254.229 370.383 254.385C362.533 264.335 361.763 278.525 368.763 290.025C369.406 291.114 370.111 292.166 370.873 293.175C370.967 293.284 371.084 293.372 371.215 293.433C371.346 293.493 371.489 293.525 371.633 293.525C371.778 293.525 371.921 293.493 372.052 293.433C372.183 293.372 372.3 293.284 372.393 293.175L380.703 282.175C380.853 281.995 380.935 281.768 380.935 281.535C380.935 281.301 380.853 281.074 380.703 280.895C378.974 278.945 378.055 276.409 378.133 273.805C378.338 272.056 378.948 270.38 379.915 268.91C380.882 267.439 382.18 266.215 383.703 265.335C386.913 263.335 390.423 262.965 392.983 264.255C394.903 265.255 397.083 267.475 398.183 272.405C398.23 272.648 398.365 272.866 398.562 273.016C398.76 273.165 399.006 273.236 399.253 273.215L423.893 271.325C424.105 271.304 424.304 271.216 424.463 271.074C424.621 270.931 424.73 270.743 424.773 270.535C424.9 269.711 424.95 268.877 424.923 268.045C424.658 264.432 423.463 260.949 421.453 257.935Z" fill="white"/>
<path d="M372.764 225.464C371.684 224.374 369.874 222.304 369.424 222.254L363.874 242.804C364.264 243.324 365.004 244.424 365.374 244.954C366.034 245.884 366.654 246.824 367.264 247.754L368.264 243.804L382.634 238.484C381.914 237.334 381.154 236.194 380.364 235.064L369.444 239.064L372.764 225.464Z" fill="#C0EDFF"/>
<path d="M363.873 274.805L377.983 273.935C378.109 272.477 378.56 271.065 379.303 269.805L363.983 270.805C363.862 272.134 363.825 273.47 363.873 274.805V274.805Z" fill="#C0EDFF"/>
<path fill-rule="evenodd" clip-rule="evenodd" d="M391.483 242.935C393.483 242.435 395.483 242.435 396.143 242.805L417.983 271.435C418.483 271.935 411.983 272.435 411.983 271.935L391.483 242.935Z" fill="#C0EDFF"/>
</g>
<path fill-rule="evenodd" clip-rule="evenodd" d="M300.635 403.942C303.627 404.019 305.981 406.379 306.815 409.302C307.569 411.946 306.328 414.63 304.149 416.263C301.917 417.935 298.958 418.484 296.653 416.917C294.055 415.15 292.467 411.987 293.398 408.953C294.359 405.821 297.409 403.858 300.635 403.942Z" fill="#FFCF54"/>
<path fill-rule="evenodd" clip-rule="evenodd" d="M294.683 476.412C290.632 476.203 287.064 479.209 286.002 483.048C285.07 486.417 287.65 489.365 290.533 491.414C293.403 493.453 297.169 495.08 300.012 493.005C302.795 490.975 301.981 487.065 300.939 483.82C299.854 480.44 298.293 476.599 294.683 476.412Z" fill="#B1AFA9" fill-opacity="0.3"/>
<path fill-rule="evenodd" clip-rule="evenodd" d="M294.576 467.618C296.792 466.543 299.143 468.709 301.258 470.062C303.15 471.273 305.053 472.558 305.695 474.732C306.431 477.224 306.539 480.194 304.792 482.032C303.097 483.813 300.305 483.304 297.862 482.969C295.721 482.676 293.418 482.181 292.245 480.313C291.125 478.53 292.066 476.394 292.444 474.34C292.892 471.899 292.388 468.68 294.576 467.618Z" fill="#B1AFA9" fill-opacity="0.5"/>
<path fill-rule="evenodd" clip-rule="evenodd" d="M290.034 462.532C288.672 463.479 289.169 465.576 289.266 467.265C289.354 468.776 289.481 470.318 290.547 471.413C291.768 472.667 293.478 473.71 295.134 473.29C296.74 472.882 297.362 471.073 297.971 469.527C298.505 468.172 298.974 466.656 298.263 465.35C297.585 464.104 296.019 463.952 294.688 463.497C293.106 462.955 291.38 461.597 290.034 462.532Z" fill="#B1AFA9"/>
<path d="M280.174 395.145C275.318 398.849 271.231 403.997 269.438 409.88C266.57 419.295 268.76 424.962 273.419 432.231C276.122 436.447 277.052 446.318 277.952 445.444C278.455 444.956 280.631 439.195 280.802 439.874C281.102 441.061 280.9 446.411 281.163 447.626C281.766 450.41 282.496 454.084 284.372 456.54C286.405 460.584 286.305 443.343 286.573 442.75C286.982 441.847 287.605 448.312 287.759 449.006C288.363 451.729 288.727 454.484 289.328 457.206C289.685 458.821 290.676 467.707 292.345 468.734C293.316 469.331 292.555 464.561 293.684 458.76C294.553 454.294 295.073 453.371 296.169 450.455C296.372 449.916 297.342 446.747 297.637 447.481C298.59 449.858 298.686 452.45 299.261 454.926C299.568 456.244 299.801 458.181 300.197 455.234C300.398 446.344 303.511 437.927 303.889 429.095C304.14 423.217 303.677 417.31 302.957 411.483C302.115 404.665 299.836 392.982 291.493 391.862C289.713 391.623 288.217 391.25 286.5 391.893C284.208 392.75 282.122 393.659 280.174 395.145Z" fill="#E14F60"/>
<path fill-rule="evenodd" clip-rule="evenodd" d="M308.149 397.889C309.251 394.43 309.843 390.649 309.809 386.693C309.669 370.347 298.906 357.188 285.768 357.3C272.631 357.413 262.095 370.755 262.235 387.101C262.269 391.057 262.925 394.827 264.087 398.267L308.149 397.889Z" fill="#141B4D"/>
<path fill-rule="evenodd" clip-rule="evenodd" d="M341.664 342.606C343.957 339.214 341.239 335.138 337.145 335.138H235.537C231.443 335.138 228.725 339.214 231.018 342.606C240.593 356.768 261.763 370.75 286.341 370.75C310.919 370.75 332.089 356.768 341.664 342.606Z" fill="#FF9737"/>
<path fill-rule="evenodd" clip-rule="evenodd" d="M267.24 414.194C270.37 414.046 273.127 416.176 273.948 418.895C274.668 421.281 272.674 423.369 270.447 424.82C268.229 426.265 265.319 427.417 263.122 425.948C260.971 424.509 261.6 421.74 262.405 419.442C263.244 417.047 264.45 414.327 267.24 414.194Z" fill="#FFCF54" fill-opacity="0.8"/>
<path fill-rule="evenodd" clip-rule="evenodd" d="M302.803 429.656C299.702 429.201 296.743 431.184 295.652 433.971C294.694 436.418 296.469 438.809 298.54 440.55C300.601 442.284 303.382 443.776 305.718 442.437C308.003 441.125 307.657 438.146 307.087 435.647C306.493 433.043 305.567 430.061 302.803 429.656Z" fill="#FFCF54" fill-opacity="0.8"/>
<path d="M261.655 390.034C261.655 389.63 261.982 389.302 262.387 389.302H309.962C310.367 389.302 310.694 389.63 310.694 390.034V398.817C310.694 399.222 310.367 399.549 309.962 399.549H262.387C261.982 399.549 261.655 399.222 261.655 398.817V390.034Z" fill="#40DA6B"/>
<path fill-rule="evenodd" clip-rule="evenodd" d="M287.082 403.215C289.541 403.086 290.865 405.996 292.286 408.065C293.558 409.917 294.812 411.842 294.557 414.094C294.266 416.675 293.21 419.454 290.885 420.467C288.631 421.449 286.257 419.893 284.137 418.634C282.279 417.532 280.349 416.18 279.996 414.003C279.658 411.925 281.356 410.323 282.502 408.578C283.865 406.503 284.653 403.342 287.082 403.215Z" fill="#FFCF54"/>
<path fill-rule="evenodd" clip-rule="evenodd" d="M290.445 407.605C293.753 407.72 296.354 411.197 297.276 415.505C298.109 419.401 296.739 423.356 294.33 425.762C291.863 428.227 288.592 429.036 286.044 426.726C283.173 424.123 281.418 419.461 282.447 414.991C283.509 410.375 286.88 407.481 290.445 407.605Z" fill="#FFCF54" fill-opacity="0.3"/>
<path fill-rule="evenodd" clip-rule="evenodd" d="M245.428 91.5466L224.202 70.3206L228.343 66.1802L249.569 87.4062L245.428 91.5466Z" fill="#141B4D"/>
<path fill-rule="evenodd" clip-rule="evenodd" d="M339.667 88.281L363.665 70.2215L367.186 74.9001L343.188 92.9596L339.667 88.281Z" fill="#141B4D"/>
<path fill-rule="evenodd" clip-rule="evenodd" d="M358.252 128.084C364.033 148.423 348.811 167.953 327.807 170.391L231.216 181.604C206.415 184.484 187.459 162.669 200.543 141.404C223.733 103.71 262.889 68.0278 295.494 64.2428C329.64 60.2789 348.079 92.2893 358.252 128.084Z" fill="#40DA6B"/>
<path fill-rule="evenodd" clip-rule="evenodd" d="M348.266 133.363C351.655 147.046 341.611 160.022 327.609 161.648L228.652 173.135C212.118 175.055 199.197 160.504 207.085 145.847C225.92 110.851 262.66 75.3602 292.829 71.8579C324.193 68.2169 340.036 100.127 348.266 133.363Z" fill="#141B4D"/>
<path fill-rule="evenodd" clip-rule="evenodd" d="M315.508 113.81L316.542 150.914C316.615 153.523 312.888 154.058 312.224 151.534L305.516 126.021L303.754 132.441C303.517 133.304 302.779 133.938 301.889 134.041L258.515 139.076C257.973 139.139 257.427 138.998 256.984 138.68L252.679 135.599L250.863 160.167C250.676 162.687 247.081 162.95 246.53 160.484L237.841 121.571L234.187 140.359C234.005 141.298 233.235 142.011 232.285 142.121L209.407 144.777L209.07 141.869L231.416 139.275L235.636 117.572C236.09 115.236 239.416 115.19 239.934 117.512L248.308 155.013L249.855 134.083C249.982 132.374 251.93 131.462 253.323 132.46L258.458 136.135L301.061 131.19L303.413 122.619C304.007 120.454 307.084 120.47 307.654 122.641L313.439 144.64L312.437 108.721C312.366 106.18 315.95 105.57 316.724 107.992L323.306 128.607L346.708 125.891L347.045 128.799L323.045 131.585C322.002 131.706 321.019 131.072 320.7 130.072L315.508 113.81Z" fill="#40DA6B"/>
<path d="M234.327 66.4211C234.327 71.4741 230.395 75.5703 225.544 75.5703C220.693 75.5703 216.761 71.4741 216.761 66.4211C216.761 61.3682 220.693 57.272 225.544 57.272C230.395 57.272 234.327 61.3682 234.327 66.4211Z" fill="#40DA6B"/>
<path d="M379.249 70.0813C379.249 75.1342 375.153 79.2304 370.1 79.2304C365.047 79.2304 360.951 75.1342 360.951 70.0813C360.951 65.0283 365.047 60.9321 370.1 60.9321C375.153 60.9321 379.249 65.0283 379.249 70.0813Z" fill="#40DA6B"/>
<path d="M278.3 13.4801C278.455 12.8906 279.22 12.7374 279.59 13.2219L320.371 66.6599C320.605 66.9663 320.558 67.4046 320.266 67.6555C303.619 81.9327 285.337 84.7525 261.154 82.1156C260.71 82.0673 260.41 81.6352 260.523 81.2039L278.3 13.4801Z" fill="#E14F60"/>
<path d="M221.396 208.051C221.396 203.2 225.329 199.268 230.179 199.268H252.869C257.72 199.268 261.653 203.2 261.653 208.051V230.741C261.653 235.591 257.72 239.524 252.869 239.524H230.179C225.329 239.524 221.396 235.591 221.396 230.741V208.051Z" fill="#40DA6B"/>
<path d="M221.396 251.967C221.396 247.116 225.329 243.184 230.179 243.184H252.869C257.72 243.184 261.653 247.116 261.653 251.967V274.657C261.653 279.507 257.72 283.44 252.869 283.44H230.179C225.329 283.44 221.396 279.507 221.396 274.657V251.967Z" fill="#40DA6B"/>
<path d="M221.396 295.882C221.396 291.031 225.329 287.099 230.179 287.099H252.869C257.72 287.099 261.653 291.031 261.653 295.882V318.572C261.653 323.423 257.72 327.355 252.869 327.355H230.179C225.329 327.355 221.396 323.423 221.396 318.572V295.882Z" fill="#40DA6B"/>
<path d="M265.314 208.051C265.314 203.2 269.246 199.268 274.097 199.268H296.787C301.638 199.268 305.57 203.2 305.57 208.051V230.741C305.57 235.591 301.638 239.524 296.787 239.524H274.097C269.246 239.524 265.314 235.591 265.314 230.741V208.051Z" fill="#40DA6B"/>
<path d="M265.314 251.967C265.314 247.116 269.246 243.184 274.097 243.184H296.787C301.638 243.184 305.57 247.116 305.57 251.967V274.657C305.57 279.507 301.638 283.44 296.787 283.44H274.097C269.246 283.44 265.314 279.507 265.314 274.657V251.967Z" fill="#40DA6B"/>
<path d="M265.314 295.882C265.314 291.031 269.246 287.099 274.097 287.099H296.787C301.638 287.099 305.57 291.031 305.57 295.882V318.572C305.57 323.423 301.638 327.355 296.787 327.355H274.097C269.246 327.355 265.314 323.423 265.314 318.572V295.882Z" fill="#40DA6B"/>
<path d="M309.228 208.051C309.228 203.2 313.16 199.268 318.011 199.268H340.701C345.552 199.268 349.484 203.2 349.484 208.051V230.741C349.484 235.591 345.552 239.524 340.701 239.524H318.011C313.16 239.524 309.228 235.591 309.228 230.741V208.051Z" fill="#40DA6B"/>
<path d="M309.228 251.967C309.228 247.116 313.16 243.184 318.011 243.184H340.701C345.552 243.184 349.484 247.116 349.484 251.967V274.657C349.484 279.507 345.552 283.44 340.701 283.44H318.011C313.16 283.44 309.228 279.507 309.228 274.657V251.967Z" fill="#40DA6B"/>
<path d="M309.228 295.882C309.228 291.031 313.16 287.099 318.011 287.099H340.701C345.552 287.099 349.484 291.031 349.484 295.882V318.572C349.484 323.423 345.552 327.355 340.701 327.355H318.011C313.16 327.355 309.228 323.423 309.228 318.572V295.882Z" fill="#40DA6B"/>
<defs>
<clipPath id="clip0_1133_6711">
<rect width="67.1" height="71.92" fill="white" transform="translate(357.763 221.625)"/>
</clipPath>
</defs>
</svg>
