<svg width="500" height="500" viewBox="0 0 500 500" fill="none" xmlns="http://www.w3.org/2000/svg">
<path fill-rule="evenodd" clip-rule="evenodd" d="M388.548 253.786C389.174 255.054 389.745 256.211 390.268 257.228L378.55 263.25C377.908 262.001 377.249 260.674 376.561 259.291C372.643 251.408 367.815 241.694 360.1 234.034C351.549 225.542 339.429 219.632 320.326 224.001L317.388 211.158C341.276 205.694 357.915 213.297 369.383 224.685C378.802 234.038 384.706 246 388.548 253.786Z" fill="#141B4D"/>
<path fill-rule="evenodd" clip-rule="evenodd" d="M378.835 247.115C364.299 255.892 360.699 274.39 369.324 288.676C371.364 292.054 373.443 294.715 376.25 295.673C379.255 296.699 382.086 295.465 384.525 294.141C388.289 292.098 387.675 287.188 384.807 285.235C378.356 280.844 376.656 276.353 376.884 272.851C377.123 269.179 379.524 265.702 382.956 263.557C386.399 261.404 390.298 260.936 393.275 262.419C396.139 263.845 399.109 267.574 399.665 275.928C399.827 278.353 401.787 280.826 404.753 280.808C411.273 280.768 417.596 279.134 421.18 275.035C423.047 272.9 424.049 270.216 423.959 267.129C423.871 264.113 422.75 260.873 420.686 257.455C411.984 243.043 393.247 238.414 378.835 247.115Z" fill="#E14F60"/>
<path fill-rule="evenodd" clip-rule="evenodd" d="M182.113 253.784C181.488 255.052 180.916 256.209 180.394 257.226L192.111 263.248C192.754 261.999 193.413 260.672 194.1 259.289C198.019 251.406 202.847 241.692 210.562 234.032C219.113 225.54 231.233 219.63 250.336 223.999L253.274 211.156C229.386 205.692 212.747 213.295 201.278 224.683C191.86 234.036 185.956 245.998 182.113 253.784Z" fill="#141B4D"/>
<path fill-rule="evenodd" clip-rule="evenodd" d="M149.976 257.453C158.678 243.041 177.415 238.412 191.827 247.113C206.363 255.89 209.963 274.388 201.338 288.674C199.298 292.053 197.219 294.713 194.412 295.671C191.406 296.697 188.576 295.463 186.137 294.139C182.373 292.096 182.987 287.186 185.855 285.233C192.306 280.842 194.006 276.352 193.778 272.849C193.539 269.177 191.138 265.701 187.706 263.555C184.263 261.402 180.364 260.934 177.387 262.417C174.523 263.843 171.553 267.572 170.996 275.926C170.835 278.351 168.875 280.824 165.909 280.806C159.388 280.766 153.065 279.133 149.482 275.033C147.615 272.898 146.613 270.214 146.703 267.127C146.791 264.111 147.912 260.871 149.976 257.453Z" fill="#E14F60"/>
<path d="M141.546 197.02C140.253 194.733 141.06 191.831 143.347 190.538V190.538C145.635 189.245 148.537 190.052 149.83 192.34L195.558 273.269C196.851 275.557 196.044 278.459 193.757 279.752V279.752C191.469 281.044 188.567 280.238 187.274 277.95L141.546 197.02Z" fill="#141B4D"/>
<path d="M187.232 154.391C202.445 181.315 192.952 215.473 166.029 230.685C139.105 245.898 104.947 236.405 89.7345 209.481C74.5218 182.558 84.0151 148.4 110.938 133.187C137.862 117.975 172.02 127.468 187.232 154.391Z" fill="#40DA6B"/>
<path d="M166.838 165.914C175.687 181.576 170.165 201.445 154.504 210.295C138.842 219.144 118.973 213.622 110.123 197.96C101.274 182.299 106.796 162.429 122.458 153.58C138.119 144.731 157.989 150.253 166.838 165.914Z" fill="white"/>
<path d="M113.091 224.955L119.189 216.674L122.481 218.155L120.877 227.891L119.545 227.628L119.456 224.953L115.635 223.862L114.405 225.689L113.091 224.955ZM119.14 218.661L116.29 222.884L119.428 224.099L119.252 218.703L119.14 218.661Z" fill="#141B4D"/>
<path d="M127.926 219.917C129.355 219.624 130.776 219.555 132.186 219.708C133.597 219.862 134.657 220.218 135.365 220.774C135.484 221.326 135.517 221.844 135.465 222.327C135.341 223.462 134.768 224.363 133.747 225.03C132.727 225.688 131.459 226.103 129.942 226.277L129.225 229.553L127.729 229.54L127.926 219.917ZM132.562 222.445C132.645 221.685 132.396 221.084 131.815 220.641C131.637 220.622 131.417 220.633 131.153 220.674L130.156 225.282C130.836 224.997 131.389 224.593 131.815 224.071C132.252 223.549 132.5 223.007 132.562 222.445Z" fill="#141B4D"/>
<path d="M139.017 220.557C140.328 219.916 141.686 219.495 143.091 219.292C144.495 219.089 145.61 219.169 146.434 219.531C146.688 220.036 146.849 220.529 146.918 221.011C147.081 222.14 146.752 223.155 145.929 224.056C145.105 224.947 143.98 225.666 142.555 226.213L142.678 229.564L141.226 229.924L139.017 220.557ZM144.136 221.848C144.027 221.092 143.636 220.572 142.964 220.288C142.787 220.313 142.576 220.379 142.33 220.485L142.514 225.196C143.101 224.75 143.536 224.221 143.819 223.609C144.111 222.995 144.217 222.408 144.136 221.848Z" fill="#141B4D"/>
<path d="M154.963 222.374C154.823 222.5 154.702 222.585 154.602 222.628L155.727 226.23L154.42 226.959L149.826 218.501C150.242 218.137 150.818 217.72 151.554 217.248C152.3 216.773 153.038 216.378 153.766 216.062C154.931 215.556 155.959 215.37 156.85 215.503C157.227 215.923 157.505 216.339 157.682 216.748C158.18 217.895 157.931 219.129 156.934 220.448L161.119 223.809L160.394 224.757L154.963 222.374ZM155.207 218.261C154.926 217.614 154.424 217.242 153.7 217.145C153.482 217.24 153.256 217.392 153.022 217.602L154.319 221.713C154.824 221.158 155.152 220.567 155.302 219.939C155.448 219.303 155.416 218.743 155.207 218.261Z" fill="#141B4D"/>
<path d="M170.049 213.748C170.424 214.223 170.698 214.651 170.873 215.032C171.041 215.405 171.119 215.792 171.107 216.193C171.074 216.953 170.497 217.775 169.375 218.661C168.261 219.54 167.197 219.97 166.182 219.949C165.533 219.399 164.956 218.805 164.452 218.166C163.431 216.873 162.759 215.526 162.437 214.124C162.122 212.716 162.118 211.543 162.427 210.604C163.633 210.259 164.942 210.363 166.354 210.918C167.759 211.465 168.991 212.408 170.049 213.748ZM168.22 214.338C167.273 213.139 166.262 212.267 165.188 211.724C164.98 213.014 165.022 214.283 165.313 215.533C165.612 216.777 166.109 217.838 166.804 218.719C167.111 218.564 167.448 218.342 167.815 218.053C168.531 217.487 169.076 216.912 169.448 216.327C169.109 215.609 168.699 214.946 168.22 214.338Z" fill="#141B4D"/>
<path d="M169.77 203.972L176.422 207.585L176.504 207.479L171.908 201.203L173.009 200.361L178.588 208.749L177.946 209.946L168.004 206.916L169.77 203.972Z" fill="#141B4D"/>
<path d="M183.398 201.512L175.4 195.049L177.026 191.826L186.681 193.865L186.358 195.184L183.682 195.153L182.421 198.921L184.191 200.232L183.398 201.512ZM177.382 195.187L181.473 198.223L182.828 195.143L177.429 195.077L177.382 195.187Z" fill="#141B4D"/>
<path d="M189.285 181.845L188.496 187.313L178.706 186.368L179.077 182.837L187.602 185.366L187.783 181.531L189.285 181.845Z" fill="#141B4D"/>
<path d="M93.4167 178.077C92.0514 177.77 90.9559 176.761 90.13 175.05L92.4994 172.79C92.9848 174.161 93.6487 174.94 94.4912 175.13C94.8494 175.21 95.2543 175.174 95.7057 175.021C96.1571 174.868 96.6036 174.715 97.0454 174.559C97.4893 174.395 97.8807 174.351 98.2196 174.427C99.6236 174.742 100.49 175.954 100.82 178.063L99.7194 178.548C99.5646 178.015 99.3868 177.629 99.1861 177.39C98.9854 177.152 98.7398 177 98.4493 176.935C98.1588 176.87 97.8083 176.913 97.3978 177.065C96.9798 177.205 96.5902 177.377 96.2291 177.58C95.8702 177.774 95.4322 177.935 94.9152 178.063C94.4004 178.181 93.9009 178.186 93.4167 178.077Z" fill="#141B4D"/>
<path d="M105.487 164.556L102.952 169.797L93.902 165.946L96.7106 160.008L97.5779 160.503L96.4766 163.468L99.0425 165.218L100.462 162.382L101.688 162.927L99.9288 165.806L102.7 167.677L104.15 163.803L105.487 164.556Z" fill="#141B4D"/>
<path d="M107.254 160.835L101.975 152.009L104.613 149.546L112.973 154.789L112.214 155.916L109.713 154.964L107.23 158.066L108.439 159.907L107.254 160.835ZM103.788 152.822L106.581 157.083L108.915 154.66L103.87 152.736L103.788 152.822Z" fill="#141B4D"/>
<path d="M121.464 149.05L116.81 152.027L111.126 144.001L114.04 141.973L117.7 150.078L120.72 147.708L121.464 149.05Z" fill="#141B4D"/>
<path d="M145.555 140.705C145.575 141.31 145.542 141.818 145.456 142.228C145.37 142.628 145.203 142.986 144.955 143.302C144.478 143.894 143.526 144.213 142.097 144.26C140.679 144.307 139.567 144.021 138.762 143.402C138.566 142.575 138.455 141.754 138.428 140.941C138.373 139.294 138.632 137.811 139.204 136.491C139.786 135.171 140.48 134.225 141.285 133.652C142.461 134.09 143.453 134.951 144.26 136.235C145.067 137.509 145.498 138.999 145.555 140.705ZM143.732 140.095C143.682 138.568 143.386 137.267 142.844 136.192C141.911 137.107 141.191 138.154 140.683 139.332C140.186 140.51 139.956 141.66 139.993 142.781C140.333 142.839 140.735 142.86 141.202 142.845C142.114 142.815 142.894 142.675 143.541 142.425C143.694 141.646 143.758 140.869 143.732 140.095Z" fill="#141B4D"/>
<path d="M156.35 142.916L153.511 141.991L152.121 145.745L150.511 145.436L152.117 135.732L158.55 137.06L158.274 138.019L155.133 137.649L153.891 140.98L156.59 141.596L156.35 142.916Z" fill="#141B4D"/>
<path d="M151.774 195.813C151.951 196.014 152.854 196.267 153.093 196.356C153.603 196.548 153.38 196.742 153.894 196.707C155.161 196.762 155.79 196.632 158.015 196.835C158.554 196.884 159.095 197.653 156.823 198.749C154.348 199.504 153.263 197.628 152.472 196.562C152.283 196.308 151.334 196.057 151.275 195.752C151.227 195.499 151.656 195.68 151.774 195.813Z" fill="#141B4D"/>
<path d="M168.168 182.578C169.049 184.379 160.455 190.392 148.973 196.008C137.491 201.625 127.469 204.717 126.588 202.916C125.707 201.115 134.301 195.102 145.783 189.486C157.265 183.869 167.287 180.777 168.168 182.578Z" fill="#141B4D"/>
<path d="M170.334 167.608C170.524 165.904 169.967 163.741 170.363 162.144C171.75 160.361 176.365 157.127 175.2 154.866C174.522 153.548 169.664 156.814 168.855 157.581C168.177 158.223 167.231 159.421 166.105 158.907C164.198 158.036 160.315 154.454 157.648 157.982C156.651 159.426 160.732 160.482 161.72 161.366C165.533 164.775 164.025 169.786 161.325 173.528C160.148 175.158 157.242 176.402 155.395 177.075C152.4 178.166 149.191 178.896 146.143 179.865C142.748 180.944 140.532 178.672 138.265 176.553C132.957 171.593 125.072 167.415 122.152 174.998C119.738 182.775 129.524 193.158 135.796 195.344C145.121 198.594 148.127 194.989 156.285 190.788C165.11 186.243 169.264 177.179 170.334 167.608Z" fill="#50B2DC"/>
<path fill-rule="evenodd" clip-rule="evenodd" d="M122.844 175.238C121.76 178.772 123.417 183.045 126.299 186.824C129.17 190.59 133.076 193.621 136.037 194.653C140.574 196.234 143.485 196.125 146.238 195.169C147.642 194.681 149.027 193.965 150.596 193.09C151.016 192.856 151.449 192.61 151.898 192.356C153.115 191.666 154.449 190.91 155.949 190.137C164.476 185.746 168.552 176.961 169.606 167.527C169.682 166.851 169.627 166.088 169.566 165.239C169.558 165.123 169.549 165.006 169.541 164.887C169.476 163.945 169.423 162.894 169.653 161.968L169.69 161.817L169.785 161.695C170.171 161.199 170.762 160.624 171.359 160.046C171.396 160.011 171.433 159.975 171.47 159.939C172.052 159.376 172.659 158.791 173.194 158.195C173.769 157.555 174.219 156.951 174.463 156.407C174.679 155.923 174.699 155.569 174.589 155.289C174.516 155.286 174.391 155.295 174.204 155.339C173.734 155.45 173.105 155.722 172.421 156.087C171.051 156.819 169.697 157.791 169.358 158.112C169.295 158.171 169.221 158.246 169.136 158.332C168.855 158.614 168.464 159.006 168.061 159.282C167.494 159.668 166.695 159.981 165.801 159.572C165.392 159.386 164.9 159.087 164.404 158.785C164.262 158.698 164.119 158.611 163.978 158.527C163.311 158.128 162.613 157.739 161.91 157.482C161.207 157.226 160.554 157.122 159.963 157.234C159.398 157.342 158.811 157.663 158.243 158.408C158.236 158.42 158.231 158.429 158.227 158.435C158.234 158.451 158.251 158.483 158.292 158.533C158.452 158.729 158.787 158.967 159.289 159.241C159.644 159.434 160.024 159.615 160.408 159.798C160.554 159.868 160.7 159.938 160.846 160.009C161.331 160.244 161.871 160.518 162.208 160.82C164.314 162.703 164.953 165.053 164.692 167.403C164.436 169.718 163.312 172.024 161.918 173.956C161.231 174.908 160.091 175.691 158.96 176.304C157.811 176.927 156.585 177.42 155.646 177.763C154.121 178.318 152.547 178.779 150.987 179.22C150.682 179.306 150.378 179.392 150.074 179.477C148.819 179.829 147.579 180.176 146.364 180.562C144.445 181.173 142.834 180.827 141.427 180.049C140.189 179.364 139.087 178.329 138.066 177.37C137.965 177.275 137.864 177.181 137.765 177.088C135.143 174.638 131.958 172.456 129.143 171.783C127.749 171.45 126.509 171.501 125.474 172.003C124.453 172.497 123.524 173.483 122.844 175.238ZM158.223 158.448C158.223 158.448 158.223 158.447 158.224 158.444C158.223 158.447 158.223 158.448 158.223 158.448ZM129.483 170.36C132.667 171.12 136.078 173.508 138.764 176.018C138.859 176.107 138.954 176.195 139.047 176.283C140.099 177.269 141.067 178.177 142.135 178.768C143.251 179.385 144.446 179.636 145.921 179.167C147.162 178.773 148.432 178.417 149.69 178.064C149.99 177.98 150.291 177.896 150.589 177.811C152.145 177.372 153.674 176.923 155.145 176.387C156.052 176.057 157.202 175.592 158.262 175.017C159.34 174.433 160.241 173.778 160.731 173.099C162.038 171.289 163.018 169.22 163.237 167.242C163.453 165.298 162.939 163.438 161.232 161.911C161.075 161.771 160.734 161.581 160.207 161.325C160.082 161.265 159.949 161.201 159.811 161.135C159.416 160.947 158.982 160.74 158.589 160.527C158.073 160.245 157.513 159.894 157.157 159.458C156.972 159.231 156.806 158.938 156.768 158.583C156.729 158.214 156.838 157.867 157.046 157.566L157.055 157.553L157.064 157.54C157.826 156.532 158.72 155.981 159.689 155.797C160.636 155.616 161.573 155.801 162.412 156.107C163.252 156.414 164.049 156.864 164.73 157.271C164.906 157.376 165.071 157.476 165.226 157.571C165.702 157.86 166.086 158.094 166.409 158.241C166.641 158.347 166.877 158.317 167.235 158.073C167.514 157.882 167.75 157.646 168.007 157.388C168.116 157.278 168.229 157.165 168.351 157.049C168.822 156.604 170.301 155.56 171.732 154.796C172.448 154.414 173.211 154.069 173.868 153.914C174.193 153.837 174.553 153.792 174.894 153.852C175.26 153.917 175.637 154.116 175.851 154.531C176.282 155.367 176.14 156.243 175.799 157.005C175.461 157.759 174.889 158.499 174.283 159.174C173.711 159.809 173.07 160.429 172.496 160.983C172.456 161.022 172.416 161.061 172.377 161.099C171.818 161.639 171.352 162.096 171.04 162.471C170.911 163.114 170.94 163.891 171.002 164.786C171.009 164.898 171.018 165.012 171.026 165.128C171.087 165.957 171.153 166.869 171.061 167.69C169.976 177.398 165.743 186.74 156.62 191.438C155.148 192.196 153.852 192.931 152.642 193.617C152.187 193.875 151.745 194.126 151.309 194.368C149.729 195.249 148.25 196.019 146.718 196.551C143.597 197.636 140.342 197.704 135.555 196.035C132.243 194.881 128.12 191.628 125.134 187.712C122.164 183.816 120.137 179.019 121.453 174.781L121.46 174.757L121.469 174.734C122.248 172.712 123.396 171.383 124.836 170.685C126.267 169.992 127.877 169.976 129.483 170.36Z" fill="#50B2DC"/>
<path d="M129.854 198.827C130.222 198.135 132.495 194.844 132.449 193.476L135.288 195.15L137.816 196.123C136.567 198.596 130.485 202.085 127.568 202.65C126.226 202.909 129.407 199.666 129.854 198.827Z" fill="#50B2DC"/>
<path fill-rule="evenodd" clip-rule="evenodd" d="M131.674 192.169L135.607 194.487L138.833 195.73L138.468 196.453C138.091 197.2 137.391 197.957 136.575 198.662C135.746 199.377 134.744 200.086 133.699 200.727C131.629 201.996 129.291 203.062 127.706 203.369C127.577 203.394 127.408 203.413 127.229 203.378C127.032 203.34 126.795 203.229 126.641 202.981C126.501 202.754 126.499 202.522 126.516 202.38C126.533 202.234 126.578 202.102 126.621 201.999C126.781 201.614 127.129 201.132 127.463 200.702C127.721 200.368 128.012 200.013 128.28 199.686C128.375 199.57 128.467 199.458 128.553 199.352C128.912 198.911 129.139 198.615 129.209 198.483C129.297 198.316 129.473 198.033 129.674 197.708C129.715 197.642 129.757 197.575 129.8 197.506C130.063 197.08 130.374 196.572 130.67 196.045C130.968 195.516 131.244 194.984 131.44 194.511C131.647 194.012 131.725 193.675 131.719 193.502L131.674 192.169ZM130.905 198.498C130.703 198.825 130.563 199.051 130.499 199.171C130.346 199.459 130.007 199.883 129.686 200.277C129.592 200.393 129.495 200.511 129.397 200.63C129.135 200.951 128.865 201.279 128.622 201.593C129.878 201.153 131.448 200.39 132.936 199.477C133.932 198.866 134.867 198.203 135.621 197.552C136.061 197.172 136.423 196.81 136.698 196.478L134.969 195.812L132.96 194.628C132.908 194.779 132.85 194.928 132.79 195.073C132.561 195.623 132.254 196.213 131.943 196.765C131.631 197.318 131.308 197.848 131.042 198.277C130.994 198.355 130.948 198.429 130.905 198.498ZM127.962 202.584C127.962 202.584 127.962 202.584 127.962 202.584Z" fill="#50B2DC"/>
<path d="M141.166 196.841C144.099 199.185 150.131 200.933 156.743 197.963C157.996 197.54 150.739 196.376 150.666 194.126C147.402 195.765 145.336 196.377 141.166 196.841Z" fill="#50B2DC"/>
<path fill-rule="evenodd" clip-rule="evenodd" d="M151.359 192.953L150.331 193.47C147.15 195.067 145.168 195.657 141.076 196.112L139.334 196.306L140.715 197.41C143.858 199.923 150.17 201.71 157.024 198.644C157.087 198.62 157.161 198.588 157.235 198.541C157.32 198.487 157.454 198.382 157.541 198.202C157.773 197.723 157.453 197.346 157.351 197.247C157.229 197.128 157.082 197.046 156.981 196.993C156.865 196.934 156.733 196.877 156.597 196.822C156.324 196.712 155.937 196.575 155.517 196.427C155.168 196.305 154.797 196.174 154.45 196.044C153.624 195.734 152.812 195.387 152.212 195C151.561 194.581 151.402 194.273 151.397 194.112L151.359 192.953ZM150.264 195.144C150.56 195.6 151.012 195.958 151.433 196.23C152.175 196.707 153.112 197.099 153.954 197.415C154.382 197.576 154.766 197.71 155.106 197.829C155.106 197.829 155.106 197.829 155.106 197.829C150.341 199.531 146.034 198.756 143.242 197.312C145.989 196.894 147.855 196.299 150.264 195.144ZM156.501 197.268C156.503 197.267 156.503 197.267 156.501 197.268Z" fill="#50B2DC"/>
<path fill-rule="evenodd" clip-rule="evenodd" d="M131.26 179.06C131.456 179.013 131.654 179.134 131.702 179.331C131.926 180.254 131.785 181.206 131.164 181.889C130.541 182.574 129.506 182.908 128.109 182.749C127.908 182.726 127.763 182.545 127.785 182.344C127.808 182.144 127.989 182 128.19 182.023C129.44 182.165 130.206 181.853 130.621 181.397C131.038 180.938 131.172 180.254 130.989 179.5C130.942 179.304 131.063 179.107 131.26 179.06Z" fill="#141B4D"/>
<path fill-rule="evenodd" clip-rule="evenodd" d="M125.305 182.086C125.078 182.456 125.032 182.904 125.039 183.173C125.044 183.375 124.885 183.543 124.683 183.548C124.481 183.553 124.312 183.394 124.307 183.192C124.297 182.849 124.35 182.242 124.679 181.704C125.025 181.14 125.65 180.697 126.678 180.685C126.88 180.682 127.046 180.844 127.049 181.046C127.052 181.248 126.89 181.414 126.688 181.416C125.903 181.425 125.515 181.743 125.305 182.086Z" fill="#141B4D"/>
<path fill-rule="evenodd" clip-rule="evenodd" d="M130.648 176.74C130.416 177.037 130.358 177.432 130.33 177.732C130.312 177.933 130.134 178.08 129.932 178.06C129.73 178.041 129.582 177.862 129.6 177.661C129.628 177.357 129.695 176.768 130.069 176.289C130.468 175.778 131.151 175.47 132.236 175.595C132.437 175.618 132.583 175.8 132.56 176C132.538 176.201 132.357 176.344 132.156 176.321C131.259 176.217 130.855 176.476 130.648 176.74Z" fill="#141B4D"/>
<path fill-rule="evenodd" clip-rule="evenodd" d="M129.067 180.121C129.141 180.051 129.256 180.055 129.326 180.128C129.465 180.274 129.576 180.404 129.677 180.521C130.005 180.902 130.225 181.158 130.922 181.461C131.015 181.501 131.058 181.609 131.018 181.701C130.977 181.794 130.869 181.836 130.777 181.796C129.997 181.458 129.722 181.137 129.382 180.741C129.285 180.627 129.182 180.507 129.06 180.379C128.99 180.306 128.994 180.19 129.067 180.121Z" fill="#141B4D"/>
<path fill-rule="evenodd" clip-rule="evenodd" d="M132.835 177.744C132.761 177.675 132.757 177.559 132.826 177.485C133.189 177.096 133.695 176.728 134.21 176.395C134.546 176.178 134.895 175.97 135.215 175.779C135.383 175.679 135.542 175.584 135.687 175.495C135.774 175.442 135.886 175.469 135.939 175.555C135.992 175.641 135.965 175.754 135.879 175.807C135.726 175.901 135.562 175.998 135.393 176.099C135.077 176.287 134.74 176.488 134.409 176.703C133.9 177.032 133.424 177.38 133.093 177.735C133.024 177.809 132.909 177.813 132.835 177.744Z" fill="#141B4D"/>
<path fill-rule="evenodd" clip-rule="evenodd" d="M133.076 178.339C133.019 178.255 133.042 178.141 133.126 178.085C133.568 177.789 134.145 177.545 134.721 177.338C135.099 177.203 135.486 177.079 135.84 176.966C136.026 176.907 136.203 176.851 136.365 176.797C136.461 176.765 136.564 176.817 136.596 176.913C136.628 177.009 136.576 177.112 136.48 177.144C136.31 177.201 136.129 177.259 135.941 177.319C135.591 177.43 135.217 177.549 134.845 177.683C134.275 177.888 133.733 178.119 133.33 178.389C133.246 178.445 133.132 178.423 133.076 178.339Z" fill="#141B4D"/>
<path fill-rule="evenodd" clip-rule="evenodd" d="M127.15 183.403C127.091 183.321 126.976 183.304 126.895 183.364C126.466 183.679 126.042 184.14 125.652 184.613C125.397 184.922 125.15 185.244 124.924 185.54C124.805 185.695 124.692 185.842 124.587 185.976C124.524 186.056 124.538 186.171 124.617 186.233C124.697 186.295 124.812 186.282 124.874 186.202C124.985 186.061 125.101 185.91 125.221 185.753C125.444 185.462 125.683 185.15 125.934 184.846C126.32 184.378 126.721 183.946 127.112 183.659C127.193 183.599 127.21 183.484 127.15 183.403Z" fill="#141B4D"/>
<path fill-rule="evenodd" clip-rule="evenodd" d="M127.73 183.705C127.646 183.649 127.532 183.673 127.477 183.758C127.187 184.204 126.951 184.784 126.751 185.363C126.621 185.742 126.503 186.131 126.394 186.487C126.338 186.674 126.283 186.851 126.232 187.014C126.201 187.11 126.254 187.213 126.351 187.244C126.447 187.274 126.55 187.221 126.581 187.125C126.635 186.954 126.69 186.772 126.748 186.583C126.855 186.231 126.969 185.856 127.097 185.483C127.295 184.91 127.519 184.365 127.784 183.958C127.839 183.873 127.815 183.76 127.73 183.705Z" fill="#141B4D"/>
<path d="M129.335 179.566C129.465 179.733 129.46 180.174 129.271 180.324C129.082 180.475 128.583 180.437 128.453 180.27C128.323 180.104 128.506 179.738 128.695 179.587C128.884 179.437 129.205 179.4 129.335 179.566Z" fill="#141B4D"/>
<g clip-path="url(#clip0_1133_6711)">
<path d="M421.611 257.802C418.115 251.986 412.824 247.464 406.535 244.915C400.246 242.367 393.3 241.931 386.741 243.672C386.521 243.739 386.284 243.728 386.071 243.641C385.858 243.553 385.681 243.395 385.571 243.192C383.81 240.024 381.891 236.947 379.821 233.972C376.653 229.401 372.965 225.213 368.831 221.492C365.341 226.362 362.151 231.632 357.921 235.772C360.63 238.359 363.069 241.214 365.201 244.292C367.182 247.133 368.998 250.084 370.641 253.132C370.739 253.307 370.782 253.508 370.764 253.708C370.746 253.907 370.668 254.097 370.541 254.252C362.691 264.202 361.921 278.392 368.921 289.892C369.564 290.982 370.269 292.033 371.031 293.042C371.125 293.152 371.242 293.24 371.373 293.301C371.504 293.361 371.647 293.392 371.791 293.392C371.936 293.392 372.079 293.361 372.21 293.301C372.341 293.24 372.458 293.152 372.551 293.042L380.861 282.042C381.011 281.862 381.093 281.636 381.093 281.402C381.093 281.168 381.011 280.942 380.861 280.762C379.132 278.813 378.213 276.277 378.291 273.672C378.496 271.924 379.106 270.248 380.073 268.778C381.04 267.307 382.337 266.083 383.861 265.202C387.071 263.202 390.581 262.832 393.141 264.122C395.061 265.122 397.241 267.342 398.341 272.272C398.388 272.516 398.523 272.734 398.72 272.883C398.918 273.033 399.164 273.104 399.411 273.082L424.051 271.192C424.263 271.171 424.462 271.083 424.621 270.941C424.779 270.799 424.888 270.61 424.931 270.402C425.058 269.579 425.108 268.745 425.081 267.912C424.816 264.299 423.621 260.816 421.611 257.802Z" fill="white"/>
<path d="M372.921 225.332C371.841 224.242 370.031 222.172 369.581 222.122L364.031 242.672C364.421 243.192 365.161 244.292 365.531 244.822C366.191 245.752 366.811 246.692 367.421 247.622L368.421 243.672L382.791 238.352C382.071 237.202 381.311 236.062 380.521 234.932L369.601 238.932L372.921 225.332Z" fill="#C0EDFF"/>
<path d="M364.031 274.672L378.141 273.802C378.267 272.344 378.718 270.933 379.461 269.672L364.141 270.672C364.02 272.002 363.983 273.338 364.031 274.672V274.672Z" fill="#C0EDFF"/>
<path fill-rule="evenodd" clip-rule="evenodd" d="M391.641 242.802C393.641 242.302 395.641 242.302 396.301 242.672L418.141 271.302C418.641 271.802 412.141 272.302 412.141 271.802L391.641 242.802Z" fill="#C0EDFF"/>
</g>
<path d="M177.315 312.489C181.968 321.349 192.032 328.362 201.841 332.33C222.135 340.537 239.071 333.917 242.187 353.503C243.051 369.547 187.489 345.305 187.286 346.342C185.445 355.754 208.119 381.784 207.623 391.22C206.816 406.567 206.79 421.153 207.501 437.747C207.932 447.804 207.595 452.337 208.364 461.517C208.364 461.66 206.98 465.645 203.75 456.194C195.67 432.546 187.899 412.423 178.399 389.281C171.436 372.32 166.181 354.68 163.995 336.439C163.051 328.566 167.034 284.31 173.115 303.318C174.225 306.789 175.607 309.237 177.315 312.489Z" fill="#141B4D"/>
<path d="M396.08 312.489C391.427 321.349 381.364 328.362 371.554 332.33C351.26 340.537 334.324 333.917 331.208 353.503C330.344 369.547 385.906 345.305 386.109 346.342C387.95 355.754 365.277 381.784 365.773 391.22C366.58 406.567 366.606 421.153 365.894 437.747C365.463 447.804 365.801 452.337 365.031 461.517C365.031 461.66 366.416 465.645 369.645 456.194C377.726 432.546 385.496 412.423 394.997 389.281C401.959 372.32 407.214 354.68 409.401 336.439C410.344 328.566 406.361 284.31 400.28 303.318C399.17 306.789 397.788 309.237 396.08 312.489Z" fill="#141B4D"/>
<path fill-rule="evenodd" clip-rule="evenodd" d="M341.819 357.113C344.112 353.721 341.394 349.645 337.3 349.645H235.692C231.597 349.645 228.879 353.721 231.173 357.113C240.748 371.275 261.918 385.257 286.496 385.257C311.073 385.257 332.243 371.275 341.819 357.113Z" fill="#40DA6B"/>
<path d="M205.54 336.631C209.613 344.385 218.422 350.524 227.008 353.997C244.771 361.18 259.594 355.387 262.322 372.529C263.078 386.572 214.445 365.354 214.268 366.262C212.657 374.499 232.502 397.283 232.068 405.543C231.362 418.976 231.339 431.742 231.961 446.267C232.339 455.069 232.043 459.037 232.717 467.072C232.717 467.197 231.505 470.685 228.678 462.413C221.606 441.714 214.804 424.101 206.489 403.845C200.395 389 195.795 373.56 193.881 357.594C193.055 350.703 196.542 311.966 201.864 328.604C202.836 331.641 204.045 333.784 205.54 336.631Z" fill="#50B2DC"/>
<path d="M367.374 336.631C363.302 344.385 354.493 350.524 345.907 353.997C328.144 361.18 313.321 355.387 310.593 372.529C309.837 386.572 358.469 365.354 358.647 366.262C360.258 374.499 340.413 397.283 340.847 405.543C341.553 418.976 341.576 431.742 340.953 446.267C340.576 455.069 340.872 459.037 340.198 467.072C340.198 467.197 341.41 470.685 344.236 462.413C351.309 441.714 358.11 424.101 366.426 403.845C372.52 389 377.12 373.56 379.033 357.594C379.859 350.703 376.373 311.966 371.051 328.604C370.079 331.641 368.869 333.784 367.374 336.631Z" fill="#50B2DC"/>
<path d="M255.957 369.409C255.957 371.43 254.319 373.068 252.298 373.068C250.276 373.068 248.638 371.43 248.638 369.409C248.638 367.388 250.276 365.749 252.298 365.749C254.319 365.749 255.957 367.388 255.957 369.409Z" fill="#141B4D"/>
<path d="M322.559 369.409C322.559 371.43 320.921 373.068 318.899 373.068C316.878 373.068 315.24 371.43 315.24 369.409C315.24 367.388 316.878 365.749 318.899 365.749C320.921 365.749 322.559 367.388 322.559 369.409Z" fill="#141B4D"/>
<path fill-rule="evenodd" clip-rule="evenodd" d="M275.063 74.1833L259.175 48.7146L264.143 45.6154L280.031 71.0841L275.063 74.1833Z" fill="#141B4D"/>
<path d="M269.913 47.1992C268.773 52.1218 264.017 55.2249 259.292 54.1302C254.566 53.0354 251.66 48.1575 252.8 43.2349C253.94 38.3123 258.696 35.2092 263.421 36.3039C268.147 37.3986 271.053 42.2766 269.913 47.1992Z" fill="#50B2DC"/>
<path fill-rule="evenodd" clip-rule="evenodd" d="M295.633 72.4319L306.886 44.5862L312.315 46.7801L301.062 74.6258L295.633 72.4319Z" fill="#141B4D"/>
<path d="M320.167 36.4341C322.772 40.7638 321.373 46.3855 317.044 48.9903C312.714 51.5951 307.092 50.1968 304.487 45.867C301.882 41.5372 303.281 35.9156 307.611 33.3108C311.94 30.7059 317.562 32.1043 320.167 36.4341Z" fill="#50B2DC"/>
<path fill-rule="evenodd" clip-rule="evenodd" d="M358.446 127.608C364.226 147.948 349.005 167.478 328.001 169.916L231.41 181.129C206.609 184.008 187.653 162.194 200.736 140.928C223.927 103.235 263.083 67.5526 295.687 63.7676C329.833 59.8036 348.273 91.814 358.446 127.608Z" fill="#50B2DC"/>
<path fill-rule="evenodd" clip-rule="evenodd" d="M348.456 132.888C351.845 146.571 341.801 159.547 327.798 161.172L228.842 172.66C212.308 174.579 199.386 160.029 207.275 145.372C226.11 110.376 262.85 74.885 293.019 71.3828C324.383 67.7417 340.225 99.6521 348.456 132.888Z" fill="#141B4D"/>
<path fill-rule="evenodd" clip-rule="evenodd" d="M282.213 141.753L282.213 141.755C278.804 142.168 275.079 151.038 273.823 157.169C266.957 166.175 241.346 165.129 215.368 145.824C194.586 130.381 187.642 89.2324 186.768 70.5886C187.301 71.5001 191.142 75.4763 202.241 84.0885C210.207 90.2703 212.456 89.7416 218.639 88.2874C223.224 87.2092 229.972 85.6223 242.818 85.8847C266.821 86.375 275.684 95.4962 277.156 100.071C277.49 95.2785 283.918 84.3026 307.114 78.0952C319.526 74.7737 326.457 74.7037 331.167 74.6562C337.519 74.5921 339.829 74.5687 346.089 66.6638C354.811 55.6511 357.592 50.8729 357.892 49.8604C361.494 68.1738 364.574 109.79 348.079 129.749C327.461 154.697 302.841 161.827 294.023 154.72C291.344 149.076 285.624 141.367 282.213 141.753ZM297.194 122.363C299.266 111.463 310.128 92.0868 337 101.68C334.548 111.687 323.156 129.833 297.194 122.363ZM263.019 126.506C258.405 116.416 243.231 100.193 219.427 115.924C224.196 125.056 239.591 139.958 263.019 126.506Z" fill="#FF9737"/>
<path fill-rule="evenodd" clip-rule="evenodd" d="M218.329 296.829C215.286 313.524 228.83 327.956 245.8 327.956H326.87C343.84 327.956 357.383 313.524 354.341 296.829C344.047 240.34 317.482 191.817 286.335 191.817C255.187 191.817 228.623 240.34 218.329 296.829Z" fill="#50B2DC"/>
<path fill-rule="evenodd" clip-rule="evenodd" d="M320.051 211.575C319.852 212.031 319.659 212.494 319.465 212.958C318.289 215.771 317.105 218.605 314.572 220.039C311.273 221.906 306.714 221.728 302.341 221.556C296.456 221.325 290.907 221.108 289.221 225.908C287.604 230.509 292.269 233.224 297.259 236.127C300.861 238.223 304.631 240.417 306.332 243.49C307.8 246.143 307.541 249.591 307.29 252.934C306.971 257.178 306.665 261.252 309.924 263.312C313.389 265.503 317.205 263.406 321.175 261.225C323.827 259.769 326.547 258.274 329.277 257.993C331.943 257.719 334.853 258.64 337.685 259.537C340.418 260.403 343.078 261.245 345.378 260.968C338.779 241.131 330.107 223.869 320.051 211.575Z" fill="#40DA6B"/>
<path fill-rule="evenodd" clip-rule="evenodd" d="M270.907 300.59C272.322 296.674 279.911 294.285 277.922 290.617C275.821 286.742 269.162 291.271 265.02 289.73C262.223 288.689 261.774 284.272 258.883 283.531C255.755 282.73 252.152 283.699 249.723 285.811C247.31 287.91 246.165 291.306 246.274 294.499C246.37 297.329 249.471 299.058 250.268 301.778C251.226 305.049 248.558 309.667 251.312 311.692C253.99 313.66 257.469 309.698 260.788 309.511C264.189 309.319 268.154 312.846 270.703 310.599C273.272 308.334 269.745 303.807 270.907 300.59Z" fill="#FFCF54"/>
<defs>
<clipPath id="clip0_1133_6711">
<rect width="67.1" height="71.92" fill="white" transform="translate(357.921 221.492)"/>
</clipPath>
</defs>
</svg>
