<svg width="500" height="500" viewBox="0 0 500 500" fill="none" xmlns="http://www.w3.org/2000/svg">
<path d="M237.08 251.72C236.276 250.226 234.373 249.727 232.939 250.633L189.887 277.837C188.615 278.641 188.16 280.278 188.834 281.624L192.3 288.541C192.999 289.936 194.67 290.538 196.098 289.909L242.94 269.264C244.503 268.576 245.147 266.701 244.337 265.197L237.08 251.72Z" fill="#141B4D"/>
<path d="M144.648 180.723C145.232 179.148 144.373 177.405 142.768 176.909L109.414 166.59C107.938 166.134 106.36 166.904 105.812 168.349L105.684 168.687C105.127 170.155 105.827 171.801 107.271 172.417L139.372 186.124C140.91 186.781 142.685 186.017 143.267 184.449L144.648 180.723Z" fill="#50B2DC"/>
<path d="M203.79 282.484C205.277 281.757 205.865 279.942 205.089 278.48L167.003 206.78C166.269 205.398 164.578 204.837 163.164 205.507L161.339 206.372C159.895 207.056 159.266 208.77 159.926 210.226L193.43 284.195C194.111 285.699 195.9 286.342 197.383 285.617L203.79 282.484Z" fill="#50B2DC"/>
<path d="M119.271 189.197C120.919 208.936 138.256 223.602 157.995 221.954C177.734 220.306 192.4 202.969 190.752 183.23C189.104 163.491 171.767 148.826 152.028 150.473C132.289 152.121 117.623 169.459 119.271 189.197Z" fill="#141B4D"/>
<path d="M128.239 191.017C129.399 204.915 141.606 215.241 155.504 214.081C169.402 212.921 179.728 200.714 178.568 186.816C177.407 172.918 165.2 162.592 151.303 163.753C137.405 164.913 127.079 177.12 128.239 191.017Z" fill="#C0EDFF"/>
<path d="M133.092 183.357C133.478 187.989 137.547 191.431 142.18 191.045C146.813 190.658 150.254 186.589 149.868 181.956C149.481 177.324 145.412 173.882 140.779 174.269C136.147 174.655 132.705 178.724 133.092 183.357Z" fill="white"/>
<path d="M201.86 279.359C201.805 281.183 200.28 282.617 198.455 282.561C196.631 282.506 195.197 280.981 195.252 279.156C195.308 277.332 196.833 275.898 198.657 275.954C200.482 276.009 201.916 277.534 201.86 279.359Z" fill="#141B4D"/>
<path d="M153.615 171.739C153.615 173.962 151.813 175.765 149.59 175.765C147.366 175.765 145.564 173.962 145.564 171.739C145.564 169.516 147.366 167.713 149.59 167.713C151.813 167.713 153.615 169.516 153.615 171.739Z" fill="white"/>
<path d="M66.8013 170.157C71.5893 182.354 85.3587 188.361 97.5562 183.573C109.754 178.785 115.76 165.015 110.972 152.818C106.184 140.62 92.4147 134.614 80.2173 139.402C68.0198 144.19 62.0133 157.959 66.8013 170.157Z" fill="#141B4D"/>
<path d="M72.8288 169.612C76.1999 178.2 85.8948 182.43 94.4828 179.058C103.071 175.687 107.3 165.992 103.929 157.404C100.558 148.816 90.8628 144.587 82.2748 147.958C73.6867 151.33 69.4577 161.024 72.8288 169.612Z" fill="#C0EDFF"/>
<path d="M74.4522 163.835C75.5759 166.698 78.8075 168.108 81.6702 166.984C84.5329 165.86 85.9426 162.629 84.8188 159.766C83.6951 156.903 80.4635 155.493 77.6009 156.617C74.7382 157.741 73.3285 160.973 74.4522 163.835Z" fill="white"/>
<path d="M85.26 152.579C85.6816 153.988 84.8812 155.472 83.4721 155.894C82.0631 156.316 80.579 155.515 80.1573 154.106C79.7356 152.697 80.5361 151.213 81.9451 150.791C83.3542 150.37 84.8383 151.17 85.26 152.579Z" fill="white"/>
<path d="M108.976 214.145C111.001 218.79 116.408 220.914 121.053 218.889C125.698 216.864 127.822 211.457 125.797 206.812C123.772 202.167 118.365 200.043 113.72 202.068C109.075 204.093 106.951 209.5 108.976 214.145Z" fill="#141B4D"/>
<path d="M119.336 211.272C119.336 213.528 117.507 215.357 115.251 215.357C112.994 215.357 111.165 213.528 111.165 211.272C111.165 209.015 112.994 207.186 115.251 207.186C117.507 207.186 119.336 209.015 119.336 211.272Z" fill="#50B2DC"/>
<path fill-rule="evenodd" clip-rule="evenodd" d="M388.678 253.786C389.304 255.054 389.875 256.211 390.398 257.228L378.68 263.25C378.038 262.001 377.379 260.674 376.691 259.291C372.773 251.408 367.944 241.694 360.23 234.034C351.679 225.542 339.559 219.632 320.456 224.001L317.518 211.158C341.406 205.694 358.045 213.297 369.513 224.685C378.932 234.038 384.836 246 388.678 253.786Z" fill="#141B4D"/>
<path fill-rule="evenodd" clip-rule="evenodd" d="M378.965 247.116C364.429 255.893 360.828 274.391 369.454 288.677C371.494 292.055 373.573 294.716 376.38 295.674C379.385 296.7 382.216 295.466 384.655 294.142C388.419 292.099 387.805 287.189 384.937 285.236C378.486 280.845 376.786 276.354 377.014 272.852C377.253 269.18 379.654 265.703 383.086 263.558C386.528 261.405 390.428 260.937 393.404 262.42C396.269 263.846 399.239 267.575 399.795 275.929C399.957 278.354 401.917 280.827 404.883 280.809C411.403 280.769 417.726 279.135 421.31 275.036C423.176 272.901 424.179 270.217 424.089 267.13C424.001 264.114 422.88 260.874 420.816 257.456C412.114 243.044 393.377 238.415 378.965 247.116Z" fill="#E14F60"/>
<g clip-path="url(#clip0_1133_6711)">
<path d="M421.744 257.802C418.248 251.986 412.957 247.464 406.668 244.915C400.379 242.367 393.433 241.931 386.874 243.672C386.654 243.739 386.417 243.728 386.204 243.641C385.99 243.553 385.814 243.395 385.704 243.192C383.943 240.024 382.024 236.947 379.954 233.972C376.786 229.401 373.098 225.213 368.964 221.492C365.474 226.362 362.284 231.632 358.054 235.772C360.762 238.359 363.201 241.214 365.334 244.292C367.315 247.133 369.131 250.084 370.774 253.132C370.872 253.307 370.914 253.508 370.897 253.708C370.879 253.907 370.801 254.097 370.674 254.252C362.824 264.202 362.054 278.392 369.054 289.892C369.697 290.982 370.401 292.033 371.164 293.042C371.258 293.152 371.375 293.24 371.506 293.301C371.637 293.361 371.78 293.392 371.924 293.392C372.069 293.392 372.211 293.361 372.343 293.301C372.474 293.24 372.59 293.152 372.684 293.042L380.994 282.042C381.144 281.862 381.226 281.636 381.226 281.402C381.226 281.168 381.144 280.942 380.994 280.762C379.265 278.813 378.346 276.277 378.424 273.672C378.629 271.924 379.239 270.248 380.206 268.778C381.173 267.307 382.47 266.083 383.994 265.202C387.204 263.202 390.714 262.832 393.274 264.122C395.194 265.122 397.374 267.342 398.474 272.272C398.52 272.516 398.655 272.734 398.853 272.883C399.051 273.033 399.297 273.104 399.544 273.082L424.184 271.192C424.396 271.171 424.595 271.083 424.753 270.941C424.912 270.799 425.021 270.61 425.064 270.402C425.191 269.579 425.241 268.745 425.214 267.912C424.949 264.299 423.754 260.816 421.744 257.802Z" fill="white"/>
<path d="M373.054 225.332C371.974 224.242 370.164 222.172 369.714 222.122L364.164 242.672C364.554 243.192 365.294 244.292 365.664 244.822C366.324 245.752 366.944 246.692 367.554 247.622L368.554 243.672L382.924 238.352C382.204 237.202 381.444 236.062 380.654 234.932L369.734 238.932L373.054 225.332Z" fill="#C0EDFF"/>
<path d="M364.164 274.672L378.274 273.802C378.399 272.344 378.85 270.933 379.594 269.672L364.274 270.672C364.153 272.002 364.116 273.338 364.164 274.672V274.672Z" fill="#C0EDFF"/>
<path fill-rule="evenodd" clip-rule="evenodd" d="M391.774 242.802C393.774 242.302 395.774 242.302 396.434 242.672L418.274 271.302C418.774 271.802 412.274 272.302 412.274 271.802L391.774 242.802Z" fill="#C0EDFF"/>
</g>
<path fill-rule="evenodd" clip-rule="evenodd" d="M300.926 403.809C303.918 403.887 306.272 406.247 307.106 409.17C307.86 411.814 306.619 414.497 304.44 416.13C302.208 417.803 299.249 418.351 296.944 416.784C294.346 415.018 292.758 411.855 293.689 408.821C294.65 405.689 297.7 403.725 300.926 403.809Z" fill="#FFCF54"/>
<path fill-rule="evenodd" clip-rule="evenodd" d="M294.974 476.28C290.923 476.07 287.355 479.077 286.293 482.916C285.361 486.285 287.941 489.233 290.824 491.281C293.693 493.321 297.46 494.948 300.303 492.873C303.086 490.842 302.272 486.932 301.23 483.688C300.144 480.307 298.584 476.467 294.974 476.28Z" fill="#B1AFA9" fill-opacity="0.3"/>
<path fill-rule="evenodd" clip-rule="evenodd" d="M294.867 467.486C297.082 466.41 299.434 468.577 301.549 469.93C303.441 471.14 305.344 472.426 305.986 474.6C306.721 477.091 306.83 480.062 305.082 481.899C303.388 483.681 300.596 483.171 298.152 482.837C296.012 482.543 293.709 482.049 292.536 480.181C291.416 478.398 292.357 476.262 292.734 474.208C293.183 471.767 292.679 468.548 294.867 467.486Z" fill="#B1AFA9" fill-opacity="0.5"/>
<path fill-rule="evenodd" clip-rule="evenodd" d="M290.325 462.4C288.962 463.347 289.46 465.443 289.557 467.132C289.645 468.644 289.772 470.186 290.838 471.28C292.059 472.534 293.769 473.578 295.425 473.157C297.031 472.749 297.652 470.94 298.262 469.394C298.796 468.04 299.265 466.523 298.554 465.218C297.876 463.972 296.31 463.82 294.979 463.364C293.396 462.822 291.671 461.464 290.325 462.4Z" fill="#B1AFA9"/>
<path d="M280.465 395.012C275.608 398.716 271.521 403.865 269.729 409.747C266.86 419.162 269.05 424.83 273.71 432.098C276.413 436.315 277.343 446.186 278.243 445.312C278.745 444.824 280.922 439.063 281.093 439.742C281.393 440.929 281.191 446.278 281.454 447.493C282.056 450.278 282.786 453.952 284.662 456.408C286.696 460.452 286.596 443.211 286.864 442.618C287.273 441.714 287.896 448.18 288.049 448.874C288.653 451.597 289.017 454.352 289.619 457.073C289.976 458.689 290.967 467.575 292.636 468.602C293.607 469.199 292.846 464.428 293.975 458.628C294.844 454.161 295.364 453.238 296.46 450.323C296.663 449.784 297.633 446.615 297.927 447.349C298.881 449.726 298.976 452.317 299.552 454.793C299.859 456.112 300.092 458.048 300.487 455.102C300.689 446.212 303.802 437.794 304.179 428.963C304.431 423.085 303.968 417.177 303.248 411.35C302.406 404.533 300.127 392.849 291.784 391.729C290.004 391.491 288.508 391.118 286.791 391.76C284.499 392.618 282.413 393.527 280.465 395.012Z" fill="#E14F60"/>
<path fill-rule="evenodd" clip-rule="evenodd" d="M308.439 397.757C309.542 394.298 310.133 390.517 310.1 386.561C309.959 370.215 299.196 357.055 286.059 357.168C272.922 357.281 262.386 370.623 262.526 386.969C262.56 390.925 263.216 394.695 264.378 398.135L308.439 397.757Z" fill="#141B4D"/>
<path fill-rule="evenodd" clip-rule="evenodd" d="M341.955 342.473C344.248 339.082 341.53 335.006 337.436 335.006H235.828C231.734 335.006 229.016 339.082 231.309 342.473C240.884 356.635 262.054 370.617 286.632 370.617C311.21 370.617 332.38 356.635 341.955 342.473Z" fill="#40DA6B"/>
<path fill-rule="evenodd" clip-rule="evenodd" d="M267.531 414.062C270.661 413.914 273.418 416.043 274.239 418.762C274.959 421.149 272.965 423.237 270.737 424.688C268.52 426.133 265.609 427.285 263.412 425.816C261.262 424.377 261.891 421.608 262.696 419.309C263.535 416.915 264.741 414.194 267.531 414.062Z" fill="#FFCF54" fill-opacity="0.8"/>
<path fill-rule="evenodd" clip-rule="evenodd" d="M303.094 429.524C299.993 429.069 297.034 431.051 295.943 433.839C294.985 436.286 296.759 438.676 298.83 440.418C300.892 442.152 303.673 443.644 306.008 442.304C308.294 440.993 307.947 438.014 307.378 435.515C306.784 432.911 305.858 429.929 303.094 429.524Z" fill="#FFCF54" fill-opacity="0.8"/>
<path d="M261.945 389.902C261.945 389.498 262.273 389.17 262.677 389.17H310.253C310.657 389.17 310.985 389.498 310.985 389.902V398.685C310.985 399.089 310.657 399.417 310.253 399.417H262.677C262.273 399.417 261.945 399.089 261.945 398.685V389.902Z" fill="#50B2DC"/>
<path fill-rule="evenodd" clip-rule="evenodd" d="M287.373 403.082C289.832 402.954 291.156 405.864 292.577 407.933C293.849 409.784 295.103 411.709 294.848 413.962C294.557 416.543 293.501 419.322 291.176 420.335C288.922 421.317 286.548 419.761 284.428 418.502C282.57 417.399 280.64 416.048 280.286 413.87C279.949 411.792 281.647 410.191 282.793 408.445C284.156 406.371 284.944 403.209 287.373 403.082Z" fill="#FFCF54"/>
<path fill-rule="evenodd" clip-rule="evenodd" d="M290.736 407.473C294.044 407.587 296.645 411.065 297.567 415.373C298.4 419.269 297.029 423.224 294.621 425.63C292.154 428.095 288.883 428.903 286.335 426.594C283.463 423.991 281.709 419.329 282.738 414.858C283.8 410.243 287.171 407.349 290.736 407.473Z" fill="#FFCF54" fill-opacity="0.3"/>
<path fill-rule="evenodd" clip-rule="evenodd" d="M275.196 74.1833L259.308 48.7146L264.276 45.6154L280.164 71.0841L275.196 74.1833Z" fill="#141B4D"/>
<path d="M270.046 47.1992C268.906 52.1218 264.15 55.2249 259.425 54.1302C254.699 53.0354 251.792 48.1575 252.933 43.2349C254.073 38.3123 258.828 35.2092 263.554 36.3039C268.28 37.3986 271.186 42.2766 270.046 47.1992Z" fill="#50B2DC"/>
<path fill-rule="evenodd" clip-rule="evenodd" d="M295.766 72.4319L307.019 44.5862L312.448 46.7801L301.195 74.6258L295.766 72.4319Z" fill="#141B4D"/>
<path d="M320.3 36.4341C322.904 40.7638 321.506 46.3855 317.176 48.9903C312.847 51.5951 307.225 50.1968 304.62 45.867C302.015 41.5372 303.414 35.9156 307.743 33.3108C312.073 30.7059 317.695 32.1043 320.3 36.4341Z" fill="#50B2DC"/>
<path fill-rule="evenodd" clip-rule="evenodd" d="M358.578 127.608C364.359 147.948 349.138 167.478 328.133 169.916L231.543 181.129C206.742 184.008 187.786 162.194 200.869 140.928C224.06 103.235 263.216 67.5526 295.82 63.7676C329.966 59.8036 348.406 91.814 358.578 127.608Z" fill="#50B2DC"/>
<path fill-rule="evenodd" clip-rule="evenodd" d="M348.589 132.888C351.978 146.571 341.934 159.547 327.931 161.172L228.974 172.66C212.441 174.579 199.519 160.029 207.408 145.372C226.243 110.376 262.983 74.885 293.152 71.3828C324.516 67.7417 340.358 99.6521 348.589 132.888Z" fill="#141B4D"/>
<path fill-rule="evenodd" clip-rule="evenodd" d="M282.346 141.753L282.346 141.755C278.936 142.168 275.212 151.038 273.956 157.169C267.09 166.175 241.479 165.129 215.501 145.824C194.719 130.381 187.775 89.2324 186.901 70.5886C187.434 71.5001 191.275 75.4763 202.373 84.0885C210.34 90.2703 212.588 89.7416 218.772 88.2874C223.357 87.2092 230.105 85.6223 242.951 85.8847C266.954 86.375 275.817 95.4962 277.288 100.071C277.623 95.2785 284.051 84.3026 307.246 78.0952C319.658 74.7737 326.59 74.7037 331.3 74.6562C337.652 74.5921 339.962 74.5687 346.222 66.6638C354.944 55.6511 357.724 50.8729 358.025 49.8604C361.626 68.1738 364.706 109.79 348.212 129.749C327.594 154.697 302.973 161.827 294.156 154.72C291.477 149.076 285.757 141.367 282.346 141.753ZM297.327 122.363C299.399 111.463 310.261 92.0868 337.133 101.68C334.681 111.687 323.288 129.833 297.327 122.363ZM263.152 126.506C258.537 116.416 243.364 100.193 219.559 115.924C224.329 125.056 239.724 139.958 263.152 126.506Z" fill="#FF9737"/>
<path fill-rule="evenodd" clip-rule="evenodd" d="M218.462 296.829C215.419 313.524 228.962 327.956 245.932 327.956H327.003C343.973 327.956 357.516 313.524 354.474 296.829C344.179 240.34 317.615 191.817 286.468 191.817C255.32 191.817 228.756 240.34 218.462 296.829Z" fill="#50B2DC"/>
<path fill-rule="evenodd" clip-rule="evenodd" d="M320.184 211.575C319.985 212.031 319.791 212.494 319.597 212.958C318.422 215.771 317.238 218.605 314.705 220.039C311.406 221.906 306.847 221.728 302.474 221.556C296.589 221.325 291.04 221.108 289.353 225.908C287.737 230.509 292.402 233.224 297.392 236.127C300.993 238.223 304.764 240.417 306.465 243.49C307.933 246.143 307.674 249.591 307.423 252.934C307.104 257.178 306.798 261.252 310.057 263.312C313.522 265.503 317.338 263.406 321.308 261.225C323.959 259.769 326.68 258.274 329.41 257.993C332.076 257.719 334.986 258.64 337.818 259.537C340.551 260.403 343.211 261.245 345.511 260.968C338.912 241.131 330.239 223.869 320.184 211.575Z" fill="#40DA6B"/>
<path fill-rule="evenodd" clip-rule="evenodd" d="M271.04 300.59C272.455 296.674 280.043 294.285 278.055 290.617C275.954 286.742 269.294 291.271 265.153 289.73C262.356 288.689 261.907 284.272 259.016 283.531C255.888 282.73 252.284 283.699 249.856 285.811C247.443 287.91 246.298 291.306 246.407 294.499C246.503 297.329 249.603 299.058 250.4 301.778C251.359 305.049 248.69 309.667 251.445 311.692C254.123 313.66 257.601 309.698 260.921 309.511C264.322 309.319 268.287 312.846 270.836 310.599C273.405 308.334 269.878 303.807 271.04 300.59Z" fill="#FFCF54"/>
<defs>
<clipPath id="clip0_1133_6711">
<rect width="67.1" height="71.92" fill="white" transform="translate(358.054 221.492)"/>
</clipPath>
</defs>
</svg>
