<svg width="500" height="500" viewBox="0 0 500 500" fill="none" xmlns="http://www.w3.org/2000/svg">
<path d="M236.795 251.849C235.99 250.355 234.088 249.856 232.653 250.762L189.602 277.966C188.33 278.77 187.874 280.407 188.548 281.753L192.014 288.67C192.713 290.065 194.384 290.667 195.813 290.038L242.655 269.393C244.218 268.705 244.862 266.83 244.052 265.326L236.795 251.849Z" fill="#141B4D"/>
<path d="M203.504 282.614C204.991 281.887 205.58 280.073 204.804 278.611L166.718 206.91C165.984 205.528 164.293 204.968 162.879 205.638L161.054 206.502C159.61 207.186 158.981 208.901 159.64 210.356L193.144 284.325C193.825 285.829 195.614 286.473 197.097 285.748L203.504 282.614Z" fill="#FF1548"/>
<path d="M118.984 189.327C120.631 209.066 137.969 223.732 157.708 222.084C177.446 220.436 192.112 203.099 190.464 183.36C188.817 163.621 171.479 148.955 151.74 150.603C132.002 152.251 117.336 169.588 118.984 189.327Z" fill="#141B4D"/>
<path d="M127.954 191.147C129.114 205.045 141.321 215.371 155.219 214.211C169.116 213.051 179.442 200.844 178.282 186.946C177.122 173.048 164.915 162.722 151.017 163.882C137.12 165.043 126.794 177.25 127.954 191.147Z" fill="#C0EDFF"/>
<path d="M132.806 183.487C133.193 188.12 137.262 191.562 141.895 191.175C146.527 190.788 149.969 186.719 149.582 182.087C149.196 177.454 145.127 174.012 140.494 174.399C135.861 174.786 132.42 178.855 132.806 183.487Z" fill="white"/>
<path d="M201.571 279.49C201.515 281.315 199.991 282.749 198.166 282.693C196.342 282.637 194.908 281.113 194.963 279.288C195.019 277.463 196.544 276.029 198.368 276.085C200.193 276.141 201.627 277.665 201.571 279.49Z" fill="#141B4D"/>
<path d="M153.331 171.869C153.331 174.093 151.529 175.895 149.306 175.895C147.082 175.895 145.28 174.093 145.28 171.869C145.28 169.646 147.082 167.844 149.306 167.844C151.529 167.844 153.331 169.646 153.331 171.869Z" fill="white"/>
<path fill-rule="evenodd" clip-rule="evenodd" d="M388.39 253.917C389.016 255.185 389.587 256.343 390.11 257.36L378.392 263.382C377.75 262.133 377.09 260.806 376.403 259.423C372.485 251.54 367.656 241.826 359.942 234.166C351.39 225.674 339.27 219.764 320.167 224.133L317.23 211.29C341.118 205.826 357.757 213.429 369.225 224.817C378.643 234.169 384.547 246.132 388.39 253.917Z" fill="#141B4D"/>
<path fill-rule="evenodd" clip-rule="evenodd" d="M369.165 288.807C360.54 274.522 364.141 256.024 378.676 247.247C393.088 238.545 411.826 243.175 420.528 257.587C422.591 261.005 423.712 264.245 423.801 267.26C423.891 270.347 422.888 273.032 421.022 275.167C417.438 279.266 411.115 280.9 404.594 280.94C401.629 280.958 399.669 278.485 399.507 276.06C398.95 267.705 395.98 263.977 393.116 262.55C390.14 261.068 386.24 261.536 382.797 263.689C379.366 265.834 376.964 269.311 376.725 272.983C376.498 276.485 378.197 280.976 384.648 285.367C387.516 287.319 388.13 292.23 384.366 294.273C381.928 295.597 379.097 296.831 376.092 295.805C373.284 294.847 371.206 292.186 369.165 288.807Z" fill="#00C939"/>
<g clip-path="url(#clip0_1133_6711)">
<path d="M421.454 257.935C417.958 252.119 412.667 247.596 406.378 245.048C400.089 242.499 393.142 242.063 386.584 243.805C386.363 243.872 386.126 243.86 385.913 243.773C385.7 243.685 385.524 243.527 385.414 243.325C383.653 240.157 381.734 237.08 379.664 234.105C376.496 229.533 372.808 225.345 368.674 221.625C365.184 226.495 361.994 231.765 357.764 235.905C360.472 238.491 362.911 241.346 365.044 244.425C367.024 247.265 368.841 250.216 370.484 253.265C370.581 253.44 370.624 253.64 370.606 253.84C370.588 254.04 370.511 254.229 370.384 254.385C362.534 264.335 361.764 278.525 368.764 290.025C369.406 291.114 370.111 292.166 370.874 293.175C370.968 293.284 371.084 293.372 371.215 293.433C371.346 293.493 371.489 293.525 371.634 293.525C371.778 293.525 371.921 293.493 372.052 293.433C372.183 293.372 372.3 293.284 372.394 293.175L380.704 282.175C380.853 281.995 380.935 281.768 380.935 281.535C380.935 281.301 380.853 281.074 380.704 280.895C378.974 278.945 378.055 276.409 378.134 273.805C378.338 272.056 378.949 270.38 379.916 268.91C380.883 267.439 382.18 266.215 383.704 265.335C386.914 263.335 390.424 262.965 392.984 264.255C394.904 265.255 397.084 267.475 398.184 272.405C398.23 272.648 398.365 272.866 398.563 273.016C398.76 273.165 399.007 273.236 399.254 273.215L423.894 271.325C424.105 271.304 424.305 271.216 424.463 271.074C424.621 270.931 424.73 270.743 424.774 270.535C424.9 269.711 424.95 268.877 424.924 268.045C424.658 264.432 423.463 260.949 421.454 257.935Z" fill="white"/>
<path d="M372.764 225.464C371.684 224.374 369.874 222.304 369.424 222.254L363.874 242.804C364.264 243.324 365.004 244.424 365.374 244.954C366.034 245.884 366.654 246.824 367.264 247.754L368.264 243.804L382.634 238.484C381.914 237.334 381.154 236.194 380.364 235.064L369.444 239.064L372.764 225.464Z" fill="#C0EDFF"/>
<path d="M363.874 274.805L377.984 273.935C378.109 272.477 378.56 271.065 379.304 269.805L363.984 270.805C363.862 272.134 363.826 273.47 363.874 274.805V274.805Z" fill="#C0EDFF"/>
<path fill-rule="evenodd" clip-rule="evenodd" d="M391.484 242.935C393.484 242.435 395.484 242.435 396.144 242.805L417.984 271.435C418.484 271.935 411.984 272.435 411.984 271.935L391.484 242.935Z" fill="#C0EDFF"/>
</g>
<path fill-rule="evenodd" clip-rule="evenodd" d="M342.285 342.606C344.578 339.214 341.86 335.138 337.766 335.138H236.158C232.064 335.138 229.346 339.214 231.639 342.606C241.214 356.768 262.384 370.75 286.962 370.75C311.54 370.75 332.71 356.768 342.285 342.606Z" fill="#E14F60"/>
<path fill-rule="evenodd" clip-rule="evenodd" d="M245.434 91.5466L224.208 70.3206L228.349 66.1802L249.575 87.4062L245.434 91.5466Z" fill="#141B4D"/>
<path fill-rule="evenodd" clip-rule="evenodd" d="M339.673 88.281L363.67 70.2215L367.191 74.9001L343.194 92.9596L339.673 88.281Z" fill="#141B4D"/>
<path fill-rule="evenodd" clip-rule="evenodd" d="M358.259 128.084C364.04 148.423 348.818 167.953 327.814 170.391L231.223 181.604C206.422 184.484 187.467 162.669 200.55 141.404C223.74 103.71 262.896 68.0278 295.501 64.2429C329.647 60.2789 348.086 92.2893 358.259 128.084Z" fill="#F32D52"/>
<path fill-rule="evenodd" clip-rule="evenodd" d="M348.27 133.363C351.658 147.046 341.615 160.022 327.612 161.648L228.655 173.135C212.121 175.055 199.2 160.504 207.088 145.847C225.924 110.851 262.663 75.3602 292.832 71.8579C324.196 68.2169 340.039 100.127 348.27 133.363Z" fill="#141B4D"/>
<path fill-rule="evenodd" clip-rule="evenodd" d="M315.51 113.81L316.545 150.914C316.618 153.523 312.89 154.058 312.227 151.534L305.518 126.021L303.756 132.441C303.519 133.304 302.782 133.938 301.892 134.041L258.518 139.076C257.976 139.139 257.43 138.998 256.986 138.68L252.682 135.599L250.865 160.167C250.679 162.687 247.083 162.95 246.533 160.484L237.844 121.571L234.19 140.359C234.007 141.298 233.238 142.011 232.288 142.121L209.41 144.777L209.072 141.869L231.418 139.275L235.639 117.572C236.093 115.236 239.419 115.19 239.937 117.512L248.311 155.013L249.858 134.083C249.985 132.374 251.933 131.462 253.326 132.46L258.461 136.135L301.064 131.19L303.416 122.619C304.01 120.454 307.086 120.47 307.657 122.641L313.441 144.64L312.44 108.721C312.369 106.18 315.953 105.57 316.726 107.992L323.308 128.607L346.71 125.891L347.048 128.799L323.047 131.585C322.005 131.706 321.022 131.072 320.702 130.072L315.51 113.81Z" fill="#40DA6B"/>
<path d="M234.329 66.4211C234.329 71.4741 230.397 75.5703 225.546 75.5703C220.695 75.5703 216.763 71.4741 216.763 66.4211C216.763 61.3682 220.695 57.272 225.546 57.272C230.397 57.272 234.329 61.3682 234.329 66.4211Z" fill="#F32D52"/>
<path d="M379.251 70.0813C379.251 75.1342 375.155 79.2304 370.102 79.2304C365.049 79.2304 360.953 75.1342 360.953 70.0813C360.953 65.0283 365.049 60.9321 370.102 60.9321C375.155 60.9321 379.251 65.0283 379.251 70.0813Z" fill="#F32D52"/>
<path d="M278.306 13.4801C278.46 12.8906 279.226 12.7374 279.595 13.2219L320.377 66.6599C320.61 66.9663 320.564 67.4046 320.271 67.6555C303.625 81.9327 285.343 84.7525 261.159 82.1156C260.716 82.0673 260.416 81.6352 260.529 81.2039L278.306 13.4801Z" fill="#2BA34D"/>
<path fill-rule="evenodd" clip-rule="evenodd" d="M381.841 119.333C373.017 118.042 367.052 119.68 363.938 123.719C360.868 127.702 361.167 133.266 363.011 138.411C364.884 143.635 368.505 148.936 372.923 152.889C373.325 153.248 373.736 153.598 374.154 153.938L356.532 152.203L343.516 156.35C341.604 156.847 340.467 157.766 342.625 158.059L396.864 167.403C409.098 168.278 413.393 155.441 411.363 145.397C409.063 134.015 399.57 121.925 381.841 119.333Z" fill="#2BA34D"/>
<path fill-rule="evenodd" clip-rule="evenodd" d="M389.822 148.192C388.762 149.343 387.759 149.815 386.886 149.927C385.995 150.041 385.053 149.806 384.092 149.215C382.12 148.004 380.327 145.438 379.445 142.579C378.554 139.691 378.729 136.99 380.002 135.348C381.19 133.816 383.796 132.652 389.145 133.87C392.244 134.575 395.869 137.748 398.319 141.853C400.78 145.978 401.675 150.391 400.228 153.4L401.548 154.034L400.228 153.4C399.002 155.951 396.259 157.83 391.548 158.05C386.969 158.264 380.051 157.643 373.698 156.592C370.532 156.069 367.541 155.444 365.085 154.775C362.576 154.092 360.79 153.405 359.908 152.816C359.235 152.368 358.326 152.55 357.878 153.222C357.429 153.895 357.611 154.804 358.284 155.252C359.597 156.128 361.793 156.913 364.316 157.6C366.894 158.302 369.987 158.946 373.22 159.481C379.668 160.547 386.814 161.202 391.685 160.974C397.151 160.719 401.051 158.447 402.867 154.669C404.958 150.319 403.468 144.769 400.833 140.353C398.186 135.918 394.004 131.973 389.795 131.015C383.953 129.685 379.893 130.711 377.689 133.554C375.571 136.286 375.629 140.142 376.648 143.443C377.675 146.772 379.818 150.026 382.559 151.71C383.953 152.567 385.561 153.049 387.259 152.831C388.966 152.611 390.579 151.708 392.016 150.131L392.046 150.098L392.074 150.063C393.954 147.73 394.678 145.534 393.942 143.657C393.225 141.827 391.392 141.012 389.888 140.745C388.384 140.478 386.58 140.637 385.376 141.434C384.728 141.863 384.099 142.6 384.088 143.652C384.077 144.632 384.616 145.477 385.293 146.155C385.865 146.726 386.792 146.726 387.364 146.155C387.935 145.583 387.935 144.656 387.364 144.084C387.249 143.97 387.171 143.877 387.118 143.805C387.539 143.604 388.404 143.455 389.376 143.628C390.458 143.82 391.045 144.288 391.216 144.726C391.368 145.113 391.45 146.157 389.822 148.192Z" fill="#FFC600"/>
<path d="M333.84 150.007C336.402 149.641 372.267 153.666 372.267 153.666C367.333 155.449 366.183 157.1 366.058 161.224C366.044 161.675 365.642 162.019 365.197 161.947L332.157 156.618C332.06 156.602 331.966 156.567 331.885 156.512C329.148 154.636 331.317 150.367 333.84 150.007Z" fill="#8664FF"/>
<path fill-rule="evenodd" clip-rule="evenodd" d="M218.168 296.96C215.126 313.655 228.669 328.088 245.639 328.088H326.71C343.68 328.088 357.223 313.655 354.18 296.96C343.886 240.472 317.322 191.949 286.174 191.949C255.027 191.949 228.463 240.472 218.168 296.96Z" fill="#FF1548"/>
<path fill-rule="evenodd" clip-rule="evenodd" d="M319.889 211.708C319.689 212.164 319.496 212.627 319.302 213.09C318.127 215.903 316.943 218.737 314.41 220.171C311.111 222.039 306.552 221.86 302.179 221.688C296.293 221.457 290.745 221.24 289.058 226.04C287.442 230.641 292.107 233.356 297.097 236.26C300.698 238.355 304.469 240.549 306.17 243.622C307.638 246.275 307.379 249.723 307.128 253.066C306.809 257.31 306.503 261.384 309.762 263.445C313.227 265.635 317.043 263.539 321.013 261.357C323.664 259.901 326.384 258.407 329.115 258.125C331.781 257.851 334.69 258.772 337.522 259.669C340.255 260.535 342.915 261.377 345.215 261.1C338.616 241.264 329.944 224.002 319.889 211.708Z" fill="#E14F60"/>
<path fill-rule="evenodd" clip-rule="evenodd" d="M225.058 268.08C227.367 271.042 230.817 273.334 233.36 271.659C236.162 269.814 236.36 266.059 236.557 262.303C236.753 258.554 236.95 254.804 239.736 252.946C241.792 251.575 244.017 253.552 246.296 255.576C248.501 257.534 250.755 259.536 252.953 258.594C254.73 257.833 253.691 255.843 252.542 253.642C251.542 251.726 250.458 249.65 251.077 248.085C252.008 245.73 254.237 244.147 256.433 242.588C258.985 240.776 261.492 238.996 261.862 236.075C262.466 231.303 258.911 223.833 254.108 224.162C250.623 224.4 248.422 227.73 246.242 231.028C243.983 234.446 241.747 237.83 238.127 237.699C237.602 237.681 237.132 237.571 236.708 237.385C232.269 246.698 228.349 257.056 225.058 268.08Z" fill="#00C939"/>
<path fill-rule="evenodd" clip-rule="evenodd" d="M270.75 300.722C272.165 296.805 279.753 294.417 277.765 290.749C275.664 286.874 269.004 291.403 264.863 289.862C262.066 288.821 261.617 284.404 258.726 283.663C255.598 282.862 251.994 283.831 249.566 285.943C247.152 288.042 246.008 291.437 246.117 294.63C246.213 297.461 249.313 299.19 250.11 301.91C251.069 305.181 248.4 309.799 251.155 311.824C253.833 313.792 257.311 309.83 260.63 309.643C264.032 309.451 267.997 312.978 270.546 310.731C273.115 308.466 269.588 303.938 270.75 300.722Z" fill="#2BA34D"/>
<defs>
<clipPath id="clip0_1133_6711">
<rect width="67.1" height="71.92" fill="white" transform="translate(357.764 221.625)"/>
</clipPath>
</defs>
</svg>
