<svg width="500" height="500" viewBox="0 0 500 500" fill="none" xmlns="http://www.w3.org/2000/svg">
<path fill-rule="evenodd" clip-rule="evenodd" d="M388.548 253.918C389.174 255.186 389.745 256.343 390.268 257.36L378.55 263.383C377.908 262.133 377.249 260.807 376.561 259.424C372.643 251.541 367.815 241.827 360.1 234.166C351.549 225.675 339.429 219.764 320.326 224.134L317.388 211.29C341.276 205.827 357.915 213.429 369.383 224.818C378.802 234.17 384.706 246.132 388.548 253.918Z" fill="#141B4D"/>
<path fill-rule="evenodd" clip-rule="evenodd" d="M378.835 247.248C364.299 256.024 360.699 274.523 369.324 288.808C371.364 292.187 373.443 294.847 376.25 295.806C379.255 296.831 382.086 295.598 384.525 294.274C388.289 292.23 387.675 287.32 384.807 285.368C378.356 280.976 376.656 276.486 376.884 272.983C377.123 269.311 379.524 265.835 382.956 263.689C386.399 261.536 390.298 261.069 393.275 262.551C396.139 263.977 399.109 267.706 399.665 276.06C399.827 278.486 401.787 280.958 404.753 280.94C411.273 280.901 417.596 279.267 421.18 275.168C423.047 273.033 424.049 270.348 423.959 267.261C423.871 264.246 422.75 261.005 420.686 257.587C411.984 243.175 393.247 238.546 378.835 247.248Z" fill="#E14F60"/>
<path fill-rule="evenodd" clip-rule="evenodd" d="M182.113 253.916C181.488 255.184 180.916 256.341 180.394 257.358L192.111 263.381C192.754 262.131 193.413 260.805 194.1 259.422C198.019 251.539 202.847 241.825 210.562 234.164C219.113 225.673 231.233 219.762 250.336 224.132L253.274 211.288C229.386 205.825 212.747 213.427 201.278 224.816C191.86 234.168 185.956 246.13 182.113 253.916Z" fill="#141B4D"/>
<path fill-rule="evenodd" clip-rule="evenodd" d="M149.976 257.585C158.678 243.173 177.415 238.544 191.827 247.246C206.363 256.022 209.963 274.521 201.338 288.806C199.298 292.185 197.219 294.846 194.412 295.804C191.406 296.83 188.576 295.596 186.137 294.272C182.373 292.228 182.987 287.318 185.855 285.366C192.306 280.974 194.006 276.484 193.778 272.982C193.539 269.309 191.138 265.833 187.706 263.687C184.263 261.535 180.364 261.067 177.387 262.549C174.523 263.975 171.553 267.704 170.996 276.058C170.835 278.484 168.875 280.957 165.909 280.938C159.388 280.899 153.065 279.265 149.482 275.166C147.615 273.031 146.613 270.346 146.703 267.259C146.791 264.244 147.912 261.003 149.976 257.585Z" fill="#E14F60"/>
<path d="M141.546 197.153C140.253 194.865 141.06 191.963 143.347 190.67V190.67C145.635 189.378 148.537 190.184 149.83 192.472L195.558 273.402C196.851 275.689 196.044 278.592 193.757 279.884V279.884C191.469 281.177 188.567 280.37 187.274 278.082L141.546 197.153Z" fill="#141B4D"/>
<path d="M187.232 154.524C202.445 181.447 192.952 215.605 166.029 230.818C139.105 246.03 104.947 236.537 89.7345 209.614C74.5218 182.69 84.0151 148.532 110.938 133.32C137.862 118.107 172.02 127.6 187.232 154.524Z" fill="#40DA6B"/>
<path d="M166.838 166.047C175.687 181.708 170.165 201.578 154.504 210.427C138.842 219.276 118.973 213.754 110.123 198.093C101.274 182.431 106.796 162.562 122.458 153.712C138.119 144.863 157.989 150.385 166.838 166.047Z" fill="white"/>
<path d="M113.091 225.087L119.189 216.807L122.481 218.287L120.877 228.024L119.545 227.76L119.456 225.085L115.635 223.994L114.405 225.821L113.091 225.087ZM119.14 218.793L116.29 223.016L119.428 224.231L119.252 218.835L119.14 218.793Z" fill="#141B4D"/>
<path d="M127.926 220.05C129.355 219.756 130.776 219.687 132.186 219.841C133.597 219.995 134.657 220.35 135.365 220.906C135.484 221.459 135.517 221.976 135.465 222.46C135.341 223.594 134.768 224.495 133.747 225.163C132.727 225.82 131.459 226.236 129.942 226.41L129.225 229.686L127.729 229.672L127.926 220.05ZM132.562 222.577C132.645 221.818 132.396 221.216 131.815 220.774C131.637 220.754 131.417 220.765 131.153 220.806L130.156 225.415C130.836 225.129 131.389 224.725 131.815 224.203C132.252 223.681 132.5 223.14 132.562 222.577Z" fill="#141B4D"/>
<path d="M139.017 220.689C140.328 220.048 141.686 219.627 143.091 219.424C144.495 219.221 145.61 219.301 146.434 219.664C146.688 220.169 146.849 220.662 146.918 221.143C147.081 222.273 146.752 223.288 145.929 224.189C145.105 225.08 143.98 225.798 142.555 226.345L142.678 229.697L141.226 230.056L139.017 220.689ZM144.136 221.981C144.027 221.224 143.636 220.704 142.964 220.42C142.787 220.446 142.576 220.511 142.33 220.617L142.514 225.328C143.101 224.883 143.536 224.353 143.819 223.741C144.111 223.127 144.217 222.541 144.136 221.981Z" fill="#141B4D"/>
<path d="M154.963 222.507C154.823 222.632 154.702 222.717 154.602 222.76L155.727 226.362L154.42 227.091L149.826 218.634C150.242 218.269 150.818 217.852 151.554 217.381C152.3 216.906 153.038 216.51 153.766 216.194C154.931 215.689 155.959 215.502 156.85 215.635C157.227 216.056 157.505 216.471 157.682 216.881C158.18 218.028 157.931 219.261 156.934 220.58L161.119 223.942L160.394 224.889L154.963 222.507ZM155.207 218.393C154.926 217.746 154.424 217.375 153.7 217.277C153.482 217.372 153.256 217.524 153.022 217.734L154.319 221.845C154.824 221.29 155.152 220.699 155.302 220.072C155.448 219.435 155.416 218.875 155.207 218.393Z" fill="#141B4D"/>
<path d="M170.049 213.88C170.424 214.355 170.698 214.783 170.873 215.164C171.041 215.537 171.119 215.924 171.107 216.326C171.074 217.085 170.497 217.907 169.375 218.793C168.261 219.672 167.197 220.102 166.182 220.081C165.533 219.532 164.956 218.937 164.452 218.299C163.431 217.006 162.759 215.658 162.437 214.257C162.122 212.849 162.118 211.675 162.427 210.737C163.633 210.391 164.942 210.495 166.354 211.05C167.759 211.597 168.991 212.54 170.049 213.88ZM168.22 214.47C167.273 213.271 166.262 212.399 165.188 211.856C164.98 213.146 165.022 214.416 165.313 215.665C165.612 216.909 166.109 217.971 166.804 218.851C167.111 218.696 167.448 218.474 167.815 218.185C168.531 217.62 169.076 217.044 169.448 216.459C169.109 215.741 168.699 215.078 168.22 214.47Z" fill="#141B4D"/>
<path d="M169.77 204.104L176.422 207.717L176.504 207.611L171.908 201.335L173.009 200.493L178.588 208.882L177.946 210.079L168.004 207.048L169.77 204.104Z" fill="#141B4D"/>
<path d="M183.398 201.644L175.4 195.181L177.026 191.959L186.681 193.997L186.358 195.317L183.682 195.286L182.421 199.054L184.191 200.364L183.398 201.644ZM177.382 195.319L181.473 198.355L182.828 195.275L177.429 195.21L177.382 195.319Z" fill="#141B4D"/>
<path d="M189.285 181.978L188.496 187.446L178.706 186.5L179.077 182.969L187.602 185.498L187.783 181.663L189.285 181.978Z" fill="#141B4D"/>
<path d="M93.4167 178.21C92.0514 177.903 90.9559 176.894 90.13 175.182L92.4994 172.922C92.9848 174.293 93.6487 175.073 94.4912 175.262C94.8494 175.343 95.2543 175.306 95.7057 175.154C96.1571 175.001 96.6036 174.847 97.0454 174.692C97.4893 174.527 97.8807 174.483 98.2196 174.559C99.6236 174.875 100.49 176.087 100.82 178.195L99.7194 178.68C99.5646 178.147 99.3868 177.761 99.1861 177.523C98.9854 177.284 98.7398 177.132 98.4493 177.067C98.1588 177.002 97.8083 177.045 97.3978 177.197C96.9798 177.337 96.5902 177.509 96.2291 177.713C95.8702 177.907 95.4322 178.067 94.9152 178.195C94.4004 178.314 93.9009 178.318 93.4167 178.21Z" fill="#141B4D"/>
<path d="M105.487 164.688L102.952 169.929L93.902 166.078L96.7106 160.14L97.5779 160.635L96.4766 163.6L99.0425 165.35L100.462 162.514L101.688 163.059L99.9288 165.938L102.7 167.81L104.15 163.936L105.487 164.688Z" fill="#141B4D"/>
<path d="M107.254 160.967L101.975 152.142L104.613 149.678L112.973 154.921L112.214 156.048L109.713 155.096L107.23 158.198L108.439 160.039L107.254 160.967ZM103.788 152.955L106.581 157.216L108.915 154.792L103.87 152.868L103.788 152.955Z" fill="#141B4D"/>
<path d="M121.464 149.182L116.81 152.16L111.126 144.133L114.04 142.105L117.7 150.21L120.72 147.84L121.464 149.182Z" fill="#141B4D"/>
<path d="M145.555 140.838C145.575 141.443 145.542 141.95 145.456 142.36C145.37 142.76 145.203 143.118 144.955 143.434C144.478 144.026 143.526 144.345 142.097 144.393C140.679 144.439 139.567 144.153 138.762 143.535C138.566 142.707 138.455 141.886 138.428 141.073C138.373 139.427 138.632 137.943 139.204 136.624C139.786 135.304 140.48 134.357 141.285 133.784C142.461 134.222 143.453 135.083 144.26 136.367C145.067 137.641 145.498 139.132 145.555 140.838ZM143.732 140.228C143.682 138.7 143.386 137.399 142.844 136.325C141.911 137.239 141.191 138.286 140.683 139.464C140.186 140.643 139.956 141.792 139.993 142.913C140.333 142.971 140.735 142.993 141.202 142.977C142.114 142.947 142.894 142.807 143.541 142.557C143.694 141.778 143.758 141.001 143.732 140.228Z" fill="#141B4D"/>
<path d="M156.35 143.049L153.511 142.123L152.121 145.877L150.511 145.568L152.117 135.865L158.55 137.192L158.274 138.152L155.133 137.782L153.891 141.112L156.59 141.728L156.35 143.049Z" fill="#141B4D"/>
<path d="M151.774 195.946C151.951 196.146 152.854 196.399 153.093 196.489C153.603 196.68 153.38 196.874 153.894 196.839C155.161 196.894 155.79 196.764 158.015 196.967C158.554 197.016 159.095 197.786 156.823 198.881C154.348 199.636 153.263 197.76 152.472 196.694C152.283 196.441 151.334 196.189 151.275 195.884C151.227 195.632 151.656 195.812 151.774 195.946Z" fill="#141B4D"/>
<path d="M168.168 182.711C169.049 184.512 160.455 190.525 148.973 196.141C137.491 201.757 127.469 204.849 126.588 203.048C125.707 201.247 134.301 195.234 145.783 189.618C157.265 184.002 167.287 180.909 168.168 182.711Z" fill="#141B4D"/>
<path d="M170.334 167.741C170.524 166.036 169.967 163.874 170.363 162.277C171.75 160.493 176.365 157.26 175.2 154.998C174.522 153.681 169.664 156.947 168.855 157.713C168.177 158.355 167.231 159.553 166.105 159.039C164.198 158.169 160.315 154.586 157.648 158.114C156.651 159.559 160.732 160.614 161.72 161.498C165.533 164.908 164.025 169.919 161.325 173.66C160.148 175.291 157.242 176.535 155.395 177.207C152.4 178.298 149.191 179.028 146.143 179.997C142.748 181.076 140.532 178.804 138.265 176.685C132.957 171.725 125.072 167.547 122.152 175.13C119.738 182.908 129.524 193.291 135.796 195.476C145.121 198.726 148.127 195.121 156.285 190.92C165.11 186.376 169.264 177.312 170.334 167.741Z" fill="#50B2DC"/>
<path fill-rule="evenodd" clip-rule="evenodd" d="M122.844 175.37C121.76 178.905 123.417 183.178 126.299 186.956C129.17 190.722 133.076 193.753 136.037 194.785C140.574 196.367 143.485 196.257 146.238 195.301C147.642 194.813 149.027 194.097 150.596 193.222C151.016 192.988 151.449 192.743 151.898 192.488C153.115 191.798 154.449 191.042 155.949 190.269C164.476 185.878 168.552 177.093 169.606 167.659C169.682 166.983 169.627 166.22 169.566 165.371C169.558 165.255 169.549 165.138 169.541 165.019C169.476 164.078 169.423 163.027 169.653 162.1L169.69 161.95L169.785 161.827C170.171 161.332 170.762 160.756 171.359 160.179C171.396 160.143 171.433 160.107 171.47 160.071C172.052 159.509 172.659 158.923 173.194 158.327C173.769 157.688 174.219 157.084 174.463 156.54C174.679 156.055 174.699 155.702 174.589 155.421C174.516 155.418 174.391 155.427 174.204 155.471C173.734 155.582 173.105 155.855 172.421 156.22C171.051 156.951 169.697 157.923 169.358 158.244C169.295 158.303 169.221 158.379 169.136 158.464C168.855 158.746 168.464 159.138 168.061 159.414C167.494 159.801 166.695 160.113 165.801 159.705C165.392 159.518 164.9 159.219 164.404 158.917C164.262 158.83 164.119 158.744 163.978 158.659C163.311 158.26 162.613 157.871 161.91 157.615C161.207 157.358 160.554 157.254 159.963 157.367C159.398 157.475 158.811 157.795 158.243 158.54C158.236 158.552 158.231 158.561 158.227 158.568C158.234 158.583 158.251 158.616 158.292 158.665C158.452 158.861 158.787 159.099 159.289 159.373C159.644 159.566 160.024 159.747 160.408 159.93C160.554 160 160.7 160.07 160.846 160.141C161.331 160.376 161.871 160.651 162.208 160.952C164.314 162.835 164.953 165.186 164.692 167.535C164.436 169.85 163.312 172.157 161.918 174.088C161.231 175.04 160.091 175.823 158.96 176.436C157.811 177.059 156.585 177.553 155.646 177.895C154.121 178.45 152.547 178.912 150.987 179.352C150.682 179.438 150.378 179.524 150.074 179.609C148.819 179.961 147.579 180.308 146.364 180.695C144.445 181.305 142.834 180.96 141.427 180.181C140.189 179.496 139.087 178.461 138.066 177.502C137.965 177.407 137.864 177.313 137.765 177.22C135.143 174.77 131.958 172.588 129.143 171.916C127.749 171.583 126.509 171.634 125.474 172.135C124.453 172.63 123.524 173.615 122.844 175.37ZM158.223 158.58C158.223 158.58 158.223 158.579 158.224 158.577C158.223 158.579 158.223 158.58 158.223 158.58ZM129.483 170.492C132.667 171.253 136.078 173.64 138.764 176.15C138.859 176.239 138.954 176.328 139.047 176.416C140.099 177.401 141.067 178.309 142.135 178.9C143.251 179.517 144.446 179.769 145.921 179.3C147.162 178.905 148.432 178.549 149.69 178.196C149.99 178.112 150.291 178.028 150.589 177.943C152.145 177.504 153.674 177.055 155.145 176.519C156.052 176.189 157.202 175.724 158.262 175.149C159.34 174.565 160.241 173.91 160.731 173.232C162.038 171.422 163.018 169.352 163.237 167.374C163.453 165.43 162.939 163.57 161.232 162.043C161.075 161.903 160.734 161.714 160.207 161.458C160.082 161.397 159.949 161.334 159.811 161.268C159.416 161.08 158.982 160.872 158.589 160.659C158.073 160.378 157.513 160.026 157.157 159.591C156.972 159.363 156.806 159.07 156.768 158.716C156.729 158.346 156.838 157.999 157.046 157.698L157.055 157.685L157.064 157.672C157.826 156.664 158.72 156.114 159.689 155.929C160.636 155.748 161.573 155.933 162.412 156.24C163.252 156.546 164.049 156.996 164.73 157.403C164.906 157.508 165.071 157.609 165.226 157.703C165.702 157.992 166.086 158.226 166.409 158.373C166.641 158.479 166.877 158.449 167.235 158.205C167.514 158.014 167.75 157.778 168.007 157.52C168.116 157.411 168.229 157.297 168.351 157.181C168.822 156.736 170.301 155.692 171.732 154.928C172.448 154.546 173.211 154.201 173.868 154.046C174.193 153.97 174.553 153.924 174.894 153.984C175.26 154.049 175.637 154.248 175.851 154.663C176.282 155.5 176.14 156.376 175.799 157.138C175.461 157.892 174.889 158.631 174.283 159.306C173.711 159.942 173.07 160.561 172.496 161.116C172.456 161.154 172.416 161.193 172.377 161.231C171.818 161.771 171.352 162.228 171.04 162.603C170.911 163.246 170.94 164.023 171.002 164.918C171.009 165.03 171.018 165.144 171.026 165.26C171.087 166.09 171.153 167.001 171.061 167.822C169.976 177.53 165.743 186.873 156.62 191.571C155.148 192.329 153.852 193.063 152.642 193.749C152.187 194.007 151.745 194.258 151.309 194.501C149.729 195.382 148.25 196.151 146.718 196.684C143.597 197.768 140.342 197.836 135.555 196.168C132.243 195.013 128.12 191.76 125.134 187.844C122.164 183.948 120.137 179.151 121.453 174.913L121.46 174.89L121.469 174.867C122.248 172.844 123.396 171.515 124.836 170.817C126.267 170.124 127.877 170.108 129.483 170.492Z" fill="#50B2DC"/>
<path d="M129.854 198.96C130.222 198.268 132.495 194.976 132.449 193.609L135.288 195.282L137.816 196.256C136.567 198.729 130.485 202.218 127.568 202.782C126.226 203.042 129.407 199.799 129.854 198.96Z" fill="#50B2DC"/>
<path fill-rule="evenodd" clip-rule="evenodd" d="M131.674 192.301L135.607 194.62L138.833 195.862L138.468 196.586C138.091 197.332 137.391 198.089 136.575 198.794C135.746 199.51 134.744 200.218 133.699 200.859C131.629 202.129 129.291 203.195 127.706 203.501C127.577 203.526 127.408 203.545 127.229 203.51C127.032 203.473 126.795 203.362 126.641 203.114C126.501 202.887 126.499 202.655 126.516 202.513C126.533 202.366 126.578 202.234 126.621 202.131C126.781 201.746 127.129 201.264 127.463 200.834C127.721 200.501 128.012 200.145 128.28 199.818C128.375 199.702 128.467 199.591 128.553 199.484C128.912 199.043 129.139 198.747 129.209 198.615C129.297 198.448 129.473 198.165 129.674 197.841C129.715 197.775 129.757 197.707 129.8 197.638C130.063 197.213 130.374 196.704 130.67 196.178C130.968 195.649 131.244 195.116 131.44 194.643C131.647 194.144 131.725 193.807 131.719 193.634L131.674 192.301ZM130.905 198.631C130.703 198.957 130.563 199.184 130.499 199.303C130.346 199.591 130.007 200.015 129.686 200.41C129.592 200.525 129.495 200.643 129.397 200.763C129.135 201.083 128.865 201.412 128.622 201.726C129.878 201.286 131.448 200.522 132.936 199.61C133.932 198.999 134.867 198.336 135.621 197.684C136.061 197.304 136.423 196.942 136.698 196.61L134.969 195.944L132.96 194.76C132.908 194.911 132.85 195.061 132.79 195.205C132.561 195.756 132.254 196.346 131.943 196.897C131.631 197.451 131.308 197.98 131.042 198.409C130.994 198.487 130.948 198.561 130.905 198.631ZM127.962 202.716C127.962 202.716 127.962 202.717 127.962 202.716Z" fill="#50B2DC"/>
<path d="M141.166 196.973C144.099 199.318 150.131 201.065 156.743 198.095C157.996 197.673 150.739 196.508 150.666 194.258C147.402 195.897 145.336 196.509 141.166 196.973Z" fill="#50B2DC"/>
<path fill-rule="evenodd" clip-rule="evenodd" d="M151.359 193.085L150.331 193.602C147.15 195.2 145.168 195.789 141.076 196.244L139.334 196.438L140.715 197.543C143.858 200.055 150.17 201.842 157.024 198.776C157.087 198.753 157.161 198.72 157.235 198.673C157.32 198.619 157.454 198.515 157.541 198.334C157.773 197.856 157.453 197.478 157.351 197.379C157.229 197.26 157.082 197.178 156.981 197.126C156.865 197.066 156.733 197.009 156.597 196.954C156.324 196.844 155.937 196.708 155.517 196.56C155.168 196.437 154.797 196.306 154.45 196.176C153.624 195.866 152.812 195.519 152.212 195.132C151.561 194.713 151.402 194.405 151.397 194.244L151.359 193.085ZM150.264 195.276C150.56 195.732 151.012 196.091 151.433 196.362C152.175 196.839 153.112 197.232 153.954 197.547C154.382 197.708 154.766 197.843 155.106 197.962C155.106 197.962 155.106 197.962 155.106 197.962C150.341 199.663 146.034 198.889 143.242 197.444C145.989 197.026 147.855 196.432 150.264 195.276ZM156.501 197.4C156.503 197.4 156.503 197.4 156.501 197.4Z" fill="#50B2DC"/>
<path fill-rule="evenodd" clip-rule="evenodd" d="M131.26 179.192C131.456 179.145 131.654 179.267 131.702 179.463C131.926 180.386 131.785 181.339 131.164 182.021C130.541 182.706 129.506 183.04 128.109 182.881C127.908 182.858 127.763 182.677 127.785 182.477C127.808 182.276 127.989 182.132 128.19 182.155C129.44 182.297 130.206 181.985 130.621 181.529C131.038 181.07 131.172 180.387 130.989 179.632C130.942 179.436 131.063 179.239 131.26 179.192Z" fill="#141B4D"/>
<path fill-rule="evenodd" clip-rule="evenodd" d="M125.305 182.219C125.078 182.589 125.032 183.036 125.039 183.305C125.044 183.507 124.885 183.675 124.683 183.68C124.481 183.685 124.312 183.526 124.307 183.324C124.297 182.982 124.35 182.374 124.679 181.836C125.025 181.272 125.65 180.829 126.678 180.817C126.88 180.815 127.046 180.976 127.049 181.178C127.052 181.38 126.89 181.546 126.688 181.548C125.903 181.558 125.515 181.875 125.305 182.219Z" fill="#141B4D"/>
<path fill-rule="evenodd" clip-rule="evenodd" d="M130.648 176.873C130.416 177.17 130.358 177.565 130.33 177.864C130.312 178.065 130.134 178.212 129.932 178.193C129.73 178.173 129.582 177.995 129.6 177.794C129.628 177.489 129.695 176.9 130.069 176.422C130.468 175.911 131.151 175.602 132.236 175.727C132.437 175.751 132.583 175.932 132.56 176.132C132.538 176.333 132.357 176.477 132.156 176.453C131.259 176.35 130.855 176.608 130.648 176.873Z" fill="#141B4D"/>
<path fill-rule="evenodd" clip-rule="evenodd" d="M129.067 180.253C129.141 180.184 129.256 180.187 129.326 180.26C129.465 180.407 129.576 180.536 129.677 180.654C130.005 181.035 130.225 181.29 130.922 181.593C131.015 181.633 131.058 181.741 131.018 181.834C130.977 181.926 130.869 181.969 130.777 181.928C129.997 181.59 129.722 181.27 129.382 180.873C129.285 180.76 129.182 180.64 129.06 180.511C128.99 180.438 128.994 180.322 129.067 180.253Z" fill="#141B4D"/>
<path fill-rule="evenodd" clip-rule="evenodd" d="M132.835 177.876C132.761 177.807 132.757 177.691 132.826 177.618C133.189 177.229 133.695 176.861 134.21 176.528C134.546 176.31 134.895 176.102 135.215 175.912C135.383 175.811 135.542 175.716 135.687 175.627C135.774 175.574 135.886 175.601 135.939 175.687C135.992 175.774 135.965 175.886 135.879 175.939C135.726 176.033 135.562 176.13 135.393 176.231C135.077 176.42 134.74 176.621 134.409 176.835C133.9 177.164 133.424 177.512 133.093 177.867C133.024 177.941 132.909 177.945 132.835 177.876Z" fill="#141B4D"/>
<path fill-rule="evenodd" clip-rule="evenodd" d="M133.076 178.471C133.019 178.387 133.042 178.274 133.126 178.217C133.568 177.921 134.145 177.678 134.721 177.471C135.099 177.335 135.486 177.212 135.84 177.099C136.026 177.039 136.203 176.983 136.365 176.929C136.461 176.897 136.564 176.949 136.596 177.045C136.628 177.141 136.576 177.245 136.48 177.277C136.31 177.333 136.129 177.391 135.941 177.451C135.591 177.562 135.217 177.681 134.845 177.815C134.275 178.02 133.733 178.251 133.33 178.521C133.246 178.578 133.132 178.555 133.076 178.471Z" fill="#141B4D"/>
<path fill-rule="evenodd" clip-rule="evenodd" d="M127.15 183.535C127.091 183.454 126.976 183.436 126.895 183.496C126.466 183.812 126.042 184.272 125.652 184.745C125.397 185.054 125.15 185.377 124.924 185.672C124.805 185.827 124.692 185.974 124.587 186.108C124.524 186.188 124.538 186.303 124.617 186.365C124.697 186.428 124.812 186.414 124.874 186.335C124.985 186.193 125.101 186.042 125.221 185.886C125.444 185.594 125.683 185.283 125.934 184.978C126.32 184.511 126.721 184.079 127.112 183.791C127.193 183.731 127.21 183.616 127.15 183.535Z" fill="#141B4D"/>
<path fill-rule="evenodd" clip-rule="evenodd" d="M127.73 183.837C127.646 183.782 127.532 183.806 127.477 183.89C127.187 184.336 126.951 184.916 126.751 185.496C126.621 185.875 126.503 186.263 126.394 186.619C126.338 186.806 126.283 186.984 126.232 187.146C126.201 187.242 126.254 187.345 126.351 187.376C126.447 187.407 126.55 187.353 126.581 187.257C126.635 187.086 126.69 186.904 126.748 186.715C126.855 186.364 126.969 185.988 127.097 185.615C127.295 185.042 127.519 184.497 127.784 184.09C127.839 184.006 127.815 183.892 127.73 183.837Z" fill="#141B4D"/>
<path d="M129.335 179.699C129.465 179.865 129.46 180.306 129.271 180.457C129.082 180.607 128.583 180.569 128.453 180.403C128.323 180.236 128.506 179.87 128.695 179.72C128.884 179.569 129.205 179.532 129.335 179.699Z" fill="#141B4D"/>
<g clip-path="url(#clip0_1133_6711)">
<path d="M421.611 257.935C418.115 252.119 412.824 247.596 406.535 245.048C400.246 242.499 393.3 242.063 386.741 243.805C386.521 243.872 386.284 243.86 386.071 243.773C385.858 243.685 385.681 243.527 385.571 243.325C383.81 240.157 381.891 237.08 379.821 234.105C376.653 229.533 372.965 225.345 368.831 221.625C365.341 226.495 362.151 231.765 357.921 235.905C360.63 238.491 363.069 241.346 365.201 244.425C367.182 247.265 368.998 250.216 370.641 253.265C370.739 253.44 370.782 253.64 370.764 253.84C370.746 254.04 370.668 254.229 370.541 254.385C362.691 264.335 361.921 278.525 368.921 290.025C369.564 291.114 370.269 292.166 371.031 293.175C371.125 293.284 371.242 293.372 371.373 293.433C371.504 293.493 371.647 293.525 371.791 293.525C371.936 293.525 372.079 293.493 372.21 293.433C372.341 293.372 372.458 293.284 372.551 293.175L380.861 282.175C381.011 281.995 381.093 281.768 381.093 281.535C381.093 281.301 381.011 281.074 380.861 280.895C379.132 278.945 378.213 276.409 378.291 273.805C378.496 272.056 379.106 270.38 380.073 268.91C381.04 267.439 382.337 266.215 383.861 265.335C387.071 263.335 390.581 262.965 393.141 264.255C395.061 265.255 397.241 267.475 398.341 272.405C398.388 272.648 398.523 272.866 398.72 273.016C398.918 273.165 399.164 273.236 399.411 273.215L424.051 271.325C424.263 271.304 424.462 271.216 424.621 271.074C424.779 270.931 424.888 270.743 424.931 270.535C425.058 269.711 425.108 268.877 425.081 268.045C424.816 264.432 423.621 260.949 421.611 257.935Z" fill="white"/>
<path d="M372.921 225.464C371.841 224.374 370.031 222.304 369.581 222.254L364.031 242.804C364.421 243.324 365.161 244.424 365.531 244.954C366.191 245.884 366.811 246.824 367.421 247.754L368.421 243.804L382.791 238.484C382.071 237.334 381.311 236.194 380.521 235.064L369.601 239.064L372.921 225.464Z" fill="#C0EDFF"/>
<path d="M364.031 274.805L378.141 273.935C378.267 272.477 378.718 271.065 379.461 269.805L364.141 270.805C364.02 272.134 363.983 273.47 364.031 274.805V274.805Z" fill="#C0EDFF"/>
<path fill-rule="evenodd" clip-rule="evenodd" d="M391.641 242.935C393.641 242.435 395.641 242.435 396.301 242.805L418.141 271.435C418.641 271.935 412.141 272.435 412.141 271.935L391.641 242.935Z" fill="#C0EDFF"/>
</g>
<path fill-rule="evenodd" clip-rule="evenodd" d="M245.586 91.5466L224.36 70.3206L228.501 66.1802L249.727 87.4062L245.586 91.5466Z" fill="#141B4D"/>
<path fill-rule="evenodd" clip-rule="evenodd" d="M339.825 88.281L363.823 70.2215L367.344 74.9001L343.346 92.9596L339.825 88.281Z" fill="#141B4D"/>
<path fill-rule="evenodd" clip-rule="evenodd" d="M358.41 128.084C364.191 148.423 348.969 167.953 327.965 170.391L231.374 181.604C206.573 184.484 187.617 162.669 200.701 141.404C223.891 103.71 263.047 68.0278 295.652 64.2428C329.798 60.2789 348.237 92.2893 358.41 128.084Z" fill="#50B2DC"/>
<path fill-rule="evenodd" clip-rule="evenodd" d="M348.424 133.363C351.813 147.046 341.769 160.022 327.767 161.648L228.81 173.135C212.276 175.055 199.355 160.504 207.243 145.847C226.078 110.851 262.818 75.3602 292.987 71.8579C324.351 68.2169 340.193 100.127 348.424 133.363Z" fill="#141B4D"/>
<path fill-rule="evenodd" clip-rule="evenodd" d="M315.666 113.81L316.7 150.914C316.773 153.523 313.046 154.058 312.382 151.534L305.674 126.021L303.912 132.441C303.675 133.304 302.937 133.938 302.047 134.041L258.673 139.076C258.131 139.139 257.585 138.998 257.142 138.68L252.837 135.599L251.021 160.167C250.834 162.687 247.238 162.95 246.688 160.484L237.999 121.571L234.345 140.359C234.163 141.298 233.393 142.011 232.443 142.121L209.565 144.777L209.228 141.869L231.574 139.275L235.794 117.572C236.248 115.236 239.574 115.19 240.092 117.512L248.466 155.013L250.013 134.083C250.14 132.374 252.088 131.462 253.481 132.46L258.616 136.135L301.219 131.19L303.571 122.619C304.165 120.454 307.242 120.47 307.812 122.641L313.597 144.64L312.595 108.721C312.524 106.18 316.108 105.57 316.882 107.992L323.464 128.607L346.865 125.891L347.203 128.799L323.203 131.585C322.16 131.706 321.177 131.072 320.858 130.072L315.666 113.81Z" fill="#40DA6B"/>
<path d="M234.485 66.4211C234.485 71.4741 230.553 75.5703 225.702 75.5703C220.851 75.5703 216.919 71.4741 216.919 66.4211C216.919 61.3682 220.851 57.272 225.702 57.272C230.553 57.272 234.485 61.3682 234.485 66.4211Z" fill="#50B2DC"/>
<path d="M379.407 70.0813C379.407 75.1342 375.311 79.2304 370.258 79.2304C365.205 79.2304 361.109 75.1342 361.109 70.0813C361.109 65.0283 365.205 60.9321 370.258 60.9321C375.311 60.9321 379.407 65.0283 379.407 70.0813Z" fill="#50B2DC"/>
<path d="M278.458 13.4801C278.613 12.8906 279.378 12.7374 279.748 13.2219L320.529 66.6599C320.763 66.9663 320.716 67.4046 320.423 67.6555C303.777 81.9327 285.495 84.7525 261.312 82.1156C260.868 82.0673 260.568 81.6352 260.681 81.2039L278.458 13.4801Z" fill="#FF9737"/>
<path d="M221.554 208.051C221.554 203.2 225.487 199.268 230.337 199.268H253.027C257.878 199.268 261.81 203.2 261.81 208.051V230.741C261.81 235.591 257.878 239.524 253.027 239.524H230.337C225.487 239.524 221.554 235.591 221.554 230.741V208.051Z" fill="#50B2DC"/>
<path d="M221.554 251.967C221.554 247.116 225.487 243.184 230.337 243.184H253.027C257.878 243.184 261.81 247.116 261.81 251.967V274.657C261.81 279.507 257.878 283.44 253.027 283.44H230.337C225.487 283.44 221.554 279.507 221.554 274.657V251.967Z" fill="#50B2DC"/>
<path d="M221.554 295.882C221.554 291.031 225.487 287.099 230.337 287.099H253.027C257.878 287.099 261.81 291.031 261.81 295.882V318.572C261.81 323.423 257.878 327.355 253.027 327.355H230.337C225.487 327.355 221.554 323.423 221.554 318.572V295.882Z" fill="#E14F60"/>
<path d="M265.472 208.051C265.472 203.2 269.404 199.268 274.255 199.268H296.945C301.796 199.268 305.728 203.2 305.728 208.051V230.741C305.728 235.591 301.796 239.524 296.945 239.524H274.255C269.404 239.524 265.472 235.591 265.472 230.741V208.051Z" fill="#40DA6B"/>
<path d="M265.472 251.967C265.472 247.116 269.404 243.184 274.255 243.184H296.945C301.796 243.184 305.728 247.116 305.728 251.967V274.657C305.728 279.507 301.796 283.44 296.945 283.44H274.255C269.404 283.44 265.472 279.507 265.472 274.657V251.967Z" fill="#50B2DC"/>
<path d="M265.472 295.882C265.472 291.031 269.404 287.099 274.255 287.099H296.945C301.796 287.099 305.728 291.031 305.728 295.882V318.572C305.728 323.423 301.796 327.355 296.945 327.355H274.255C269.404 327.355 265.472 323.423 265.472 318.572V295.882Z" fill="#50B2DC"/>
<path d="M309.386 208.051C309.386 203.2 313.318 199.268 318.169 199.268H340.859C345.71 199.268 349.642 203.2 349.642 208.051V230.741C349.642 235.591 345.71 239.524 340.859 239.524H318.169C313.318 239.524 309.386 235.591 309.386 230.741V208.051Z" fill="#50B2DC"/>
<path d="M309.386 251.967C309.386 247.116 313.318 243.184 318.169 243.184H340.859C345.71 243.184 349.642 247.116 349.642 251.967V274.657C349.642 279.507 345.71 283.44 340.859 283.44H318.169C313.318 283.44 309.386 279.507 309.386 274.657V251.967Z" fill="white"/>
<path d="M309.386 295.882C309.386 291.031 313.318 287.099 318.169 287.099H340.859C345.71 287.099 349.642 291.031 349.642 295.882V318.572C349.642 323.423 345.71 327.355 340.859 327.355H318.169C313.318 327.355 309.386 323.423 309.386 318.572V295.882Z" fill="#50B2DC"/>
<path fill-rule="evenodd" clip-rule="evenodd" d="M264.877 403.963C267.747 404.813 269.41 407.701 269.459 410.741C269.503 413.49 267.61 415.761 265.083 416.774C262.494 417.812 259.493 417.576 257.672 415.466C255.62 413.087 254.905 409.62 256.589 406.931C258.329 404.155 261.783 403.047 264.877 403.963Z" fill="#FFCF54"/>
<path fill-rule="evenodd" clip-rule="evenodd" d="M240.371 472.424C236.512 471.173 232.288 473.154 230.268 476.587C228.496 479.6 230.226 483.115 232.48 485.84C234.724 488.553 237.941 491.099 241.224 489.831C244.438 488.59 244.664 484.603 244.497 481.199C244.323 477.652 243.81 473.539 240.371 472.424Z" fill="#B1AFA9" fill-opacity="0.3"/>
<path fill-rule="evenodd" clip-rule="evenodd" d="M242.544 463.902C244.962 463.436 246.673 466.137 248.365 467.992C249.88 469.651 251.386 471.385 251.443 473.651C251.509 476.248 250.845 479.146 248.681 480.468C246.583 481.751 244.018 480.535 241.745 479.58C239.753 478.743 237.656 477.669 237.006 475.561C236.387 473.549 237.848 471.729 238.744 469.843C239.809 467.601 240.155 464.361 242.544 463.902Z" fill="#B1AFA9" fill-opacity="0.5"/>
<path fill-rule="evenodd" clip-rule="evenodd" d="M239.473 457.814C237.912 458.376 237.85 460.53 237.507 462.186C237.2 463.669 236.924 465.192 237.67 466.524C238.525 468.052 239.907 469.502 241.615 469.525C243.272 469.546 244.34 467.96 245.329 466.624C246.195 465.454 247.041 464.111 246.692 462.666C246.36 461.287 244.887 460.735 243.719 459.95C242.33 459.017 241.016 457.259 239.473 457.814Z" fill="#B1AFA9"/>
<path d="M247.39 390.17C241.741 392.491 236.46 396.406 233.206 401.624C227.999 409.976 228.647 416.017 231.267 424.244C232.786 429.017 231.13 438.792 232.226 438.18C232.837 437.839 236.43 432.838 236.42 433.538C236.402 434.762 234.823 439.877 234.763 441.119C234.624 443.964 234.378 447.702 235.554 450.56C236.472 454.992 240.837 438.313 241.25 437.809C241.879 437.043 240.807 443.449 240.776 444.159C240.655 446.946 240.293 449.701 240.17 452.486C240.096 454.139 238.754 462.978 240.1 464.402C240.884 465.23 241.383 460.425 243.975 455.114C245.971 451.025 246.711 450.268 248.525 447.736C248.86 447.268 250.618 444.457 250.712 445.243C251.017 447.786 250.439 450.314 250.355 452.854C250.31 454.207 250.033 456.138 251.178 453.394C253.674 444.86 258.859 437.534 261.51 429.101C263.274 423.489 264.356 417.663 265.168 411.848C266.12 405.045 266.942 393.17 259.173 389.929C257.516 389.237 256.167 388.49 254.342 388.666C251.907 388.901 249.657 389.239 247.39 390.17Z" fill="#E14F60"/>
<path fill-rule="evenodd" clip-rule="evenodd" d="M273.701 400.062C275.662 397.006 277.211 393.507 278.203 389.677C282.298 373.852 275.307 358.355 262.589 355.064C249.87 351.772 236.239 361.933 232.144 377.758C231.153 381.588 230.811 385.399 231.043 389.023L273.701 400.062Z" fill="#141B4D"/>
<path fill-rule="evenodd" clip-rule="evenodd" d="M229.966 405.223C233.028 405.89 235.14 408.661 235.229 411.5C235.307 413.991 232.84 415.492 230.313 416.317C227.798 417.138 224.688 417.498 222.946 415.51C221.241 413.564 222.566 411.052 223.938 409.041C225.368 406.944 227.237 404.629 229.966 405.223Z" fill="#FFCF54" fill-opacity="0.8"/>
<path fill-rule="evenodd" clip-rule="evenodd" d="M260.316 429.363C257.438 428.121 254.067 429.27 252.291 431.68C250.733 433.795 251.828 436.564 253.378 438.782C254.921 440.991 257.221 443.152 259.823 442.462C262.371 441.787 262.807 438.82 262.903 436.258C263.003 433.589 262.881 430.469 260.316 429.363Z" fill="#FFCF54" fill-opacity="0.8"/>
<path d="M230.824 380.441C230.929 380.05 231.33 379.819 231.721 379.923L277.675 392.237C278.066 392.341 278.298 392.743 278.193 393.133L275.92 401.617C275.815 402.008 275.414 402.239 275.023 402.135L229.069 389.821C228.678 389.717 228.447 389.315 228.551 388.925L230.824 380.441Z" fill="#50B2DC"/>
<path fill-rule="evenodd" clip-rule="evenodd" d="M251.974 399.753C254.383 400.265 254.908 403.419 255.746 405.785C256.495 407.903 257.208 410.086 256.379 412.196C255.429 414.614 253.69 417.025 251.183 417.402C248.751 417.767 246.861 415.649 245.138 413.885C243.629 412.339 242.115 410.534 242.337 408.339C242.548 406.245 244.603 405.137 246.162 403.748C248.015 402.097 249.595 399.247 251.974 399.753Z" fill="#FFCF54"/>
<path fill-rule="evenodd" clip-rule="evenodd" d="M254.087 404.864C257.252 405.831 258.864 409.863 258.639 414.263C258.436 418.242 256.089 421.707 253.139 423.408C250.118 425.151 246.75 425.085 244.887 422.195C242.786 418.937 242.298 413.98 244.449 409.928C246.67 405.745 250.675 403.822 254.087 404.864Z" fill="#FFCF54" fill-opacity="0.3"/>
<path fill-rule="evenodd" clip-rule="evenodd" d="M341.822 342.606C344.115 339.214 341.398 335.138 337.303 335.138H235.695C231.601 335.138 228.883 339.214 231.176 342.606C240.751 356.768 261.922 370.75 286.499 370.75C311.077 370.75 332.247 356.768 341.822 342.606Z" fill="#40DA6B"/>
<path fill-rule="evenodd" clip-rule="evenodd" d="M309.762 403.963C306.892 404.813 305.229 407.701 305.181 410.741C305.136 413.49 307.029 415.761 309.557 416.774C312.146 417.812 315.146 417.576 316.967 415.466C319.019 413.087 319.734 409.62 318.05 406.931C316.311 404.155 312.856 403.047 309.762 403.963Z" fill="#FFCF54"/>
<path fill-rule="evenodd" clip-rule="evenodd" d="M334.268 472.424C338.127 471.173 342.352 473.154 344.371 476.587C346.143 479.6 344.413 483.115 342.159 485.84C339.915 488.553 336.698 491.099 333.415 489.831C330.201 488.59 329.975 484.603 330.142 481.199C330.316 477.652 330.829 473.539 334.268 472.424Z" fill="#B1AFA9" fill-opacity="0.3"/>
<path fill-rule="evenodd" clip-rule="evenodd" d="M332.095 463.902C329.677 463.436 327.966 466.137 326.274 467.992C324.759 469.651 323.254 471.385 323.196 473.651C323.131 476.248 323.795 479.146 325.958 480.468C328.056 481.751 330.621 480.535 332.895 479.58C334.886 478.743 336.983 477.669 337.633 475.561C338.253 473.549 336.791 471.729 335.895 469.843C334.83 467.601 334.484 464.361 332.095 463.902Z" fill="#B1AFA9" fill-opacity="0.5"/>
<path fill-rule="evenodd" clip-rule="evenodd" d="M335.166 457.814C336.727 458.376 336.79 460.53 337.132 462.186C337.439 463.669 337.715 465.192 336.969 466.524C336.114 468.052 334.733 469.502 333.024 469.525C331.367 469.546 330.299 467.96 329.31 466.624C328.444 465.454 327.598 464.111 327.947 462.666C328.28 461.287 329.753 460.735 330.92 459.95C332.309 459.017 333.624 457.259 335.166 457.814Z" fill="#B1AFA9"/>
<path d="M327.249 390.17C332.899 392.491 338.179 396.406 341.433 401.624C346.64 409.976 345.992 416.017 343.373 424.244C341.853 429.017 343.509 438.792 342.414 438.18C341.802 437.839 338.209 432.838 338.219 433.538C338.237 434.762 339.816 439.877 339.877 441.119C340.015 443.964 340.261 447.702 339.085 450.56C338.167 454.992 333.802 438.313 333.389 437.809C332.76 437.043 333.832 443.449 333.863 444.159C333.985 446.946 334.346 449.701 334.47 452.486C334.543 454.139 335.885 462.978 334.539 464.402C333.755 465.23 333.256 460.425 330.664 455.114C328.669 451.025 327.928 450.268 326.114 447.736C325.779 447.268 324.021 444.457 323.927 445.243C323.622 447.786 324.2 450.314 324.284 452.854C324.329 454.207 324.606 456.138 323.461 453.394C320.965 444.86 315.78 437.534 313.13 429.101C311.366 423.489 310.284 417.663 309.471 411.848C308.52 405.045 307.697 393.17 315.466 389.929C317.123 389.237 318.472 388.49 320.297 388.666C322.732 388.901 324.983 389.239 327.249 390.17Z" fill="#E14F60"/>
<path fill-rule="evenodd" clip-rule="evenodd" d="M300.938 400.062C298.978 397.006 297.428 393.507 296.437 389.677C292.341 373.852 299.332 358.355 312.051 355.064C324.769 351.772 338.4 361.933 342.495 377.758C343.486 381.588 343.828 385.399 343.596 389.023L300.938 400.062Z" fill="#141B4D"/>
<path fill-rule="evenodd" clip-rule="evenodd" d="M344.673 405.223C341.611 405.89 339.499 408.661 339.41 411.5C339.332 413.991 341.799 415.492 344.326 416.317C346.842 417.138 349.951 417.498 351.693 415.51C353.398 413.564 352.074 411.052 350.701 409.041C349.271 406.944 347.402 404.629 344.673 405.223Z" fill="#FFCF54" fill-opacity="0.8"/>
<path fill-rule="evenodd" clip-rule="evenodd" d="M314.323 429.363C317.201 428.121 320.572 429.27 322.348 431.68C323.906 433.795 322.811 436.564 321.261 438.782C319.718 440.991 317.418 443.152 314.816 442.462C312.268 441.787 311.833 438.82 311.736 436.258C311.636 433.589 311.758 430.469 314.323 429.363Z" fill="#FFCF54" fill-opacity="0.8"/>
<path d="M343.815 380.441C343.71 380.05 343.309 379.819 342.918 379.923L296.964 392.237C296.573 392.341 296.342 392.743 296.446 393.133L298.719 401.617C298.824 402.008 299.225 402.239 299.616 402.135L345.57 389.821C345.961 389.717 346.193 389.315 346.088 388.925L343.815 380.441Z" fill="#50B2DC"/>
<path fill-rule="evenodd" clip-rule="evenodd" d="M322.665 399.753C320.256 400.265 319.731 403.419 318.894 405.785C318.144 407.903 317.432 410.086 318.26 412.196C319.21 414.614 320.949 417.025 323.457 417.402C325.888 417.767 327.779 415.649 329.501 413.885C331.01 412.339 332.524 410.534 332.302 408.339C332.091 406.245 330.036 405.137 328.477 403.748C326.624 402.097 325.045 399.247 322.665 399.753Z" fill="#FFCF54"/>
<path fill-rule="evenodd" clip-rule="evenodd" d="M320.553 404.864C317.387 405.831 315.775 409.863 316 414.263C316.203 418.242 318.551 421.707 321.5 423.408C324.521 425.151 327.89 425.085 329.753 422.195C331.853 418.937 332.341 413.98 330.19 409.928C327.969 405.745 323.964 403.822 320.553 404.864Z" fill="#FFCF54" fill-opacity="0.3"/>
<defs>
<clipPath id="clip0_1133_6711">
<rect width="67.1" height="71.92" fill="white" transform="translate(357.921 221.625)"/>
</clipPath>
</defs>
</svg>
