<svg width="500" height="500" viewBox="0 0 500 500" fill="none" xmlns="http://www.w3.org/2000/svg">
<path fill-rule="evenodd" clip-rule="evenodd" d="M388.548 253.918C389.174 255.186 389.745 256.343 390.268 257.36L378.55 263.383C377.908 262.133 377.249 260.807 376.561 259.424C372.643 251.541 367.815 241.827 360.1 234.166C351.549 225.675 339.429 219.764 320.326 224.134L317.388 211.29C341.276 205.827 357.915 213.429 369.383 224.818C378.802 234.17 384.706 246.132 388.548 253.918Z" fill="#141B4D"/>
<path fill-rule="evenodd" clip-rule="evenodd" d="M378.835 247.248C364.299 256.024 360.699 274.523 369.324 288.808C371.364 292.187 373.443 294.847 376.25 295.806C379.255 296.831 382.086 295.598 384.525 294.274C388.289 292.23 387.675 287.32 384.807 285.368C378.356 280.976 376.656 276.486 376.884 272.983C377.123 269.311 379.524 265.835 382.956 263.689C386.399 261.536 390.298 261.069 393.275 262.551C396.139 263.977 399.109 267.706 399.665 276.06C399.827 278.486 401.787 280.958 404.753 280.94C411.273 280.901 417.596 279.267 421.18 275.168C423.047 273.033 424.049 270.348 423.959 267.261C423.871 264.246 422.75 261.005 420.686 257.587C411.984 243.175 393.247 238.546 378.835 247.248Z" fill="#40DA6B"/>
<path fill-rule="evenodd" clip-rule="evenodd" d="M182.113 253.916C181.488 255.184 180.916 256.341 180.394 257.358L192.111 263.381C192.754 262.131 193.413 260.805 194.1 259.422C198.019 251.539 202.847 241.825 210.562 234.164C219.113 225.673 231.233 219.762 250.336 224.132L253.274 211.288C229.386 205.825 212.747 213.427 201.278 224.816C191.86 234.168 185.956 246.13 182.113 253.916Z" fill="#141B4D"/>
<path fill-rule="evenodd" clip-rule="evenodd" d="M149.976 257.585C158.678 243.173 177.415 238.544 191.827 247.246C206.363 256.022 209.963 274.521 201.338 288.806C199.298 292.185 197.219 294.846 194.412 295.804C191.406 296.83 188.576 295.596 186.137 294.272C182.373 292.228 182.987 287.318 185.855 285.366C192.306 280.974 194.006 276.484 193.778 272.982C193.539 269.309 191.138 265.833 187.706 263.687C184.263 261.535 180.364 261.067 177.387 262.549C174.523 263.975 171.553 267.704 170.996 276.058C170.835 278.484 168.875 280.957 165.909 280.938C159.388 280.899 153.065 279.265 149.482 275.166C147.615 273.031 146.613 270.346 146.703 267.259C146.791 264.244 147.912 261.003 149.976 257.585Z" fill="#40DA6B"/>
<path d="M141.546 197.153C140.253 194.865 141.06 191.963 143.347 190.67V190.67C145.635 189.378 148.537 190.184 149.83 192.472L195.558 273.402C196.851 275.689 196.044 278.592 193.757 279.884V279.884C191.469 281.177 188.567 280.37 187.274 278.082L141.546 197.153Z" fill="#141B4D"/>
<path d="M187.232 154.524C202.445 181.447 192.952 215.605 166.029 230.818C139.105 246.03 104.947 236.537 89.7345 209.614C74.5218 182.69 84.0151 148.532 110.938 133.32C137.862 118.107 172.02 127.6 187.232 154.524Z" fill="#E14F60"/>
<path d="M166.838 166.047C175.687 181.708 170.165 201.578 154.504 210.427C138.842 219.276 118.973 213.754 110.123 198.093C101.274 182.431 106.796 162.562 122.458 153.712C138.119 144.863 157.989 150.385 166.838 166.047Z" fill="white"/>
<path d="M113.091 225.087L119.189 216.807L122.481 218.287L120.877 228.024L119.545 227.76L119.456 225.085L115.635 223.994L114.405 225.821L113.091 225.087ZM119.14 218.793L116.29 223.016L119.428 224.231L119.252 218.835L119.14 218.793Z" fill="#141B4D"/>
<path d="M127.926 220.05C129.355 219.756 130.776 219.687 132.186 219.841C133.597 219.995 134.657 220.35 135.365 220.906C135.484 221.459 135.517 221.976 135.465 222.46C135.341 223.594 134.768 224.495 133.747 225.163C132.727 225.82 131.459 226.236 129.942 226.41L129.225 229.686L127.729 229.672L127.926 220.05ZM132.562 222.577C132.645 221.818 132.396 221.216 131.815 220.774C131.637 220.754 131.417 220.765 131.153 220.806L130.156 225.415C130.836 225.129 131.389 224.725 131.815 224.203C132.252 223.681 132.5 223.14 132.562 222.577Z" fill="#141B4D"/>
<path d="M139.017 220.689C140.328 220.048 141.686 219.627 143.091 219.424C144.495 219.221 145.61 219.301 146.434 219.664C146.688 220.169 146.849 220.662 146.918 221.143C147.081 222.273 146.752 223.288 145.929 224.189C145.105 225.08 143.98 225.798 142.555 226.345L142.678 229.697L141.226 230.056L139.017 220.689ZM144.136 221.981C144.027 221.224 143.636 220.704 142.964 220.42C142.787 220.446 142.576 220.511 142.33 220.617L142.514 225.328C143.101 224.883 143.536 224.353 143.819 223.741C144.111 223.127 144.217 222.541 144.136 221.981Z" fill="#141B4D"/>
<path d="M154.963 222.507C154.823 222.632 154.702 222.717 154.602 222.76L155.727 226.362L154.42 227.091L149.826 218.634C150.242 218.269 150.818 217.852 151.554 217.381C152.3 216.906 153.038 216.51 153.766 216.194C154.931 215.689 155.959 215.502 156.85 215.635C157.227 216.056 157.505 216.471 157.682 216.881C158.18 218.028 157.931 219.261 156.934 220.58L161.119 223.942L160.394 224.889L154.963 222.507ZM155.207 218.393C154.926 217.746 154.424 217.375 153.7 217.277C153.482 217.372 153.256 217.524 153.022 217.734L154.319 221.845C154.824 221.29 155.152 220.699 155.302 220.072C155.448 219.435 155.416 218.875 155.207 218.393Z" fill="#141B4D"/>
<path d="M170.049 213.88C170.424 214.355 170.698 214.783 170.873 215.164C171.041 215.537 171.119 215.924 171.107 216.326C171.074 217.085 170.497 217.907 169.375 218.793C168.261 219.672 167.197 220.102 166.182 220.081C165.533 219.532 164.956 218.937 164.452 218.299C163.431 217.006 162.759 215.658 162.437 214.257C162.122 212.849 162.118 211.675 162.427 210.737C163.633 210.391 164.942 210.495 166.354 211.05C167.759 211.597 168.991 212.54 170.049 213.88ZM168.22 214.47C167.273 213.271 166.262 212.399 165.188 211.856C164.98 213.146 165.022 214.416 165.313 215.665C165.612 216.909 166.109 217.971 166.804 218.851C167.111 218.696 167.448 218.474 167.815 218.185C168.531 217.62 169.076 217.044 169.448 216.459C169.109 215.741 168.699 215.078 168.22 214.47Z" fill="#141B4D"/>
<path d="M169.77 204.104L176.422 207.717L176.504 207.611L171.908 201.335L173.009 200.493L178.588 208.882L177.946 210.079L168.004 207.048L169.77 204.104Z" fill="#141B4D"/>
<path d="M183.398 201.644L175.4 195.181L177.026 191.959L186.681 193.997L186.358 195.317L183.682 195.286L182.421 199.054L184.191 200.364L183.398 201.644ZM177.382 195.319L181.473 198.355L182.828 195.275L177.429 195.21L177.382 195.319Z" fill="#141B4D"/>
<path d="M189.285 181.978L188.496 187.446L178.706 186.5L179.077 182.969L187.602 185.498L187.783 181.663L189.285 181.978Z" fill="#141B4D"/>
<path d="M93.4167 178.21C92.0514 177.903 90.9559 176.894 90.13 175.182L92.4994 172.922C92.9848 174.293 93.6487 175.073 94.4912 175.262C94.8494 175.343 95.2543 175.306 95.7057 175.154C96.1571 175.001 96.6036 174.847 97.0454 174.692C97.4893 174.527 97.8807 174.483 98.2196 174.559C99.6236 174.875 100.49 176.087 100.82 178.195L99.7194 178.68C99.5646 178.147 99.3868 177.761 99.1861 177.523C98.9854 177.284 98.7398 177.132 98.4493 177.067C98.1588 177.002 97.8083 177.045 97.3978 177.197C96.9798 177.337 96.5902 177.509 96.2291 177.713C95.8702 177.907 95.4322 178.067 94.9152 178.195C94.4004 178.314 93.9009 178.318 93.4167 178.21Z" fill="#141B4D"/>
<path d="M105.487 164.688L102.952 169.929L93.902 166.078L96.7106 160.14L97.5779 160.635L96.4766 163.6L99.0425 165.35L100.462 162.514L101.688 163.059L99.9288 165.938L102.7 167.81L104.15 163.936L105.487 164.688Z" fill="#141B4D"/>
<path d="M107.254 160.967L101.975 152.142L104.613 149.678L112.973 154.921L112.214 156.048L109.713 155.096L107.23 158.198L108.439 160.039L107.254 160.967ZM103.788 152.955L106.581 157.216L108.915 154.792L103.87 152.868L103.788 152.955Z" fill="#141B4D"/>
<path d="M121.464 149.182L116.81 152.16L111.126 144.133L114.04 142.105L117.7 150.21L120.72 147.84L121.464 149.182Z" fill="#141B4D"/>
<path d="M145.555 140.838C145.575 141.443 145.542 141.95 145.456 142.36C145.37 142.76 145.203 143.118 144.955 143.434C144.478 144.026 143.526 144.345 142.097 144.393C140.679 144.439 139.567 144.153 138.762 143.535C138.566 142.707 138.455 141.886 138.428 141.073C138.373 139.427 138.632 137.943 139.204 136.624C139.786 135.304 140.48 134.357 141.285 133.784C142.461 134.222 143.453 135.083 144.26 136.367C145.067 137.641 145.498 139.132 145.555 140.838ZM143.732 140.228C143.682 138.7 143.386 137.399 142.844 136.325C141.911 137.239 141.191 138.286 140.683 139.464C140.186 140.643 139.956 141.792 139.993 142.913C140.333 142.971 140.735 142.993 141.202 142.977C142.114 142.947 142.894 142.807 143.541 142.557C143.694 141.778 143.758 141.001 143.732 140.228Z" fill="#141B4D"/>
<path d="M156.35 143.049L153.511 142.123L152.121 145.877L150.511 145.568L152.117 135.865L158.55 137.192L158.274 138.152L155.133 137.782L153.891 141.112L156.59 141.728L156.35 143.049Z" fill="#141B4D"/>
<path d="M151.774 195.946C151.951 196.146 152.854 196.399 153.093 196.489C153.603 196.68 153.38 196.874 153.894 196.839C155.161 196.894 155.79 196.764 158.015 196.967C158.554 197.016 159.095 197.786 156.823 198.881C154.348 199.636 153.263 197.76 152.472 196.694C152.283 196.441 151.334 196.189 151.275 195.884C151.227 195.632 151.656 195.812 151.774 195.946Z" fill="#141B4D"/>
<path d="M168.168 182.711C169.049 184.512 160.455 190.525 148.973 196.141C137.491 201.757 127.469 204.849 126.588 203.048C125.707 201.247 134.301 195.234 145.783 189.618C157.265 184.002 167.287 180.909 168.168 182.711Z" fill="#141B4D"/>
<path d="M170.334 167.741C170.524 166.036 169.967 163.874 170.363 162.277C171.75 160.493 176.365 157.26 175.2 154.998C174.522 153.681 169.664 156.947 168.855 157.713C168.177 158.355 167.231 159.553 166.105 159.039C164.198 158.169 160.315 154.586 157.648 158.114C156.651 159.559 160.732 160.614 161.72 161.498C165.533 164.908 164.025 169.919 161.325 173.66C160.148 175.291 157.242 176.535 155.395 177.207C152.4 178.298 149.191 179.028 146.143 179.997C142.748 181.076 140.532 178.804 138.265 176.685C132.957 171.725 125.072 167.547 122.152 175.13C119.738 182.908 129.524 193.291 135.796 195.476C145.121 198.726 148.127 195.121 156.285 190.92C165.11 186.376 169.264 177.312 170.334 167.741Z" fill="#50B2DC"/>
<path fill-rule="evenodd" clip-rule="evenodd" d="M122.844 175.37C121.76 178.905 123.417 183.178 126.299 186.956C129.17 190.722 133.076 193.753 136.037 194.785C140.574 196.367 143.485 196.257 146.238 195.301C147.642 194.813 149.027 194.097 150.596 193.222C151.016 192.988 151.449 192.743 151.898 192.488C153.115 191.798 154.449 191.042 155.949 190.269C164.476 185.878 168.552 177.093 169.606 167.659C169.682 166.983 169.627 166.22 169.566 165.371C169.558 165.255 169.549 165.138 169.541 165.019C169.476 164.078 169.423 163.027 169.653 162.1L169.69 161.95L169.785 161.827C170.171 161.332 170.762 160.756 171.359 160.179C171.396 160.143 171.433 160.107 171.47 160.071C172.052 159.509 172.659 158.923 173.194 158.327C173.769 157.688 174.219 157.084 174.463 156.54C174.679 156.055 174.699 155.702 174.589 155.421C174.516 155.418 174.391 155.427 174.204 155.471C173.734 155.582 173.105 155.855 172.421 156.22C171.051 156.951 169.697 157.923 169.358 158.244C169.295 158.303 169.221 158.379 169.136 158.464C168.855 158.746 168.464 159.138 168.061 159.414C167.494 159.801 166.695 160.113 165.801 159.705C165.392 159.518 164.9 159.219 164.404 158.917C164.262 158.83 164.119 158.744 163.978 158.659C163.311 158.26 162.613 157.871 161.91 157.615C161.207 157.358 160.554 157.254 159.963 157.367C159.398 157.475 158.811 157.795 158.243 158.54C158.236 158.552 158.231 158.561 158.227 158.568C158.234 158.583 158.251 158.616 158.292 158.665C158.452 158.861 158.787 159.099 159.289 159.373C159.644 159.566 160.024 159.747 160.408 159.93C160.554 160 160.7 160.07 160.846 160.141C161.331 160.376 161.871 160.651 162.208 160.952C164.314 162.835 164.953 165.186 164.692 167.535C164.436 169.85 163.312 172.157 161.918 174.088C161.231 175.04 160.091 175.823 158.96 176.436C157.811 177.059 156.585 177.553 155.646 177.895C154.121 178.45 152.547 178.912 150.987 179.352C150.682 179.438 150.378 179.524 150.074 179.609C148.819 179.961 147.579 180.308 146.364 180.695C144.445 181.305 142.834 180.96 141.427 180.181C140.189 179.496 139.087 178.461 138.066 177.502C137.965 177.407 137.864 177.313 137.765 177.22C135.143 174.77 131.958 172.588 129.143 171.916C127.749 171.583 126.509 171.634 125.474 172.135C124.453 172.63 123.524 173.615 122.844 175.37ZM158.223 158.58C158.223 158.58 158.223 158.579 158.224 158.577C158.223 158.579 158.223 158.58 158.223 158.58ZM129.483 170.492C132.667 171.253 136.078 173.64 138.764 176.15C138.859 176.239 138.954 176.328 139.047 176.416C140.099 177.401 141.067 178.309 142.135 178.9C143.251 179.517 144.446 179.769 145.921 179.3C147.162 178.905 148.432 178.549 149.69 178.196C149.99 178.112 150.291 178.028 150.589 177.943C152.145 177.504 153.674 177.055 155.145 176.519C156.052 176.189 157.202 175.724 158.262 175.149C159.34 174.565 160.241 173.91 160.731 173.232C162.038 171.422 163.018 169.352 163.237 167.374C163.453 165.43 162.939 163.57 161.232 162.043C161.075 161.903 160.734 161.714 160.207 161.458C160.082 161.397 159.949 161.334 159.811 161.268C159.416 161.08 158.982 160.872 158.589 160.659C158.073 160.378 157.513 160.026 157.157 159.591C156.972 159.363 156.806 159.07 156.768 158.716C156.729 158.346 156.838 157.999 157.046 157.698L157.055 157.685L157.064 157.672C157.826 156.664 158.72 156.114 159.689 155.929C160.636 155.748 161.573 155.933 162.412 156.24C163.252 156.546 164.049 156.996 164.73 157.403C164.906 157.508 165.071 157.609 165.226 157.703C165.702 157.992 166.086 158.226 166.409 158.373C166.641 158.479 166.877 158.449 167.235 158.205C167.514 158.014 167.75 157.778 168.007 157.52C168.116 157.411 168.229 157.297 168.351 157.181C168.822 156.736 170.301 155.692 171.732 154.928C172.448 154.546 173.211 154.201 173.868 154.046C174.193 153.97 174.553 153.924 174.894 153.984C175.26 154.049 175.637 154.248 175.851 154.663C176.282 155.5 176.14 156.376 175.799 157.138C175.461 157.892 174.889 158.631 174.283 159.306C173.711 159.942 173.07 160.561 172.496 161.116C172.456 161.154 172.416 161.193 172.377 161.231C171.818 161.771 171.352 162.228 171.04 162.603C170.911 163.246 170.94 164.023 171.002 164.918C171.009 165.03 171.018 165.144 171.026 165.26C171.087 166.09 171.153 167.001 171.061 167.822C169.976 177.53 165.743 186.873 156.62 191.571C155.148 192.329 153.852 193.063 152.642 193.749C152.187 194.007 151.745 194.258 151.309 194.501C149.729 195.382 148.25 196.151 146.718 196.684C143.597 197.768 140.342 197.836 135.555 196.168C132.243 195.013 128.12 191.76 125.134 187.844C122.164 183.948 120.137 179.151 121.453 174.913L121.46 174.89L121.469 174.867C122.248 172.844 123.396 171.515 124.836 170.817C126.267 170.124 127.877 170.108 129.483 170.492Z" fill="#50B2DC"/>
<path d="M129.854 198.96C130.222 198.268 132.495 194.976 132.449 193.609L135.288 195.282L137.816 196.256C136.567 198.729 130.485 202.218 127.568 202.782C126.226 203.042 129.407 199.799 129.854 198.96Z" fill="#50B2DC"/>
<path fill-rule="evenodd" clip-rule="evenodd" d="M131.674 192.301L135.607 194.62L138.833 195.862L138.468 196.586C138.091 197.332 137.391 198.089 136.575 198.794C135.746 199.51 134.744 200.218 133.699 200.859C131.629 202.129 129.291 203.195 127.706 203.501C127.577 203.526 127.408 203.545 127.229 203.51C127.032 203.473 126.795 203.362 126.641 203.114C126.501 202.887 126.499 202.655 126.516 202.513C126.533 202.366 126.578 202.234 126.621 202.131C126.781 201.746 127.129 201.264 127.463 200.834C127.721 200.501 128.012 200.145 128.28 199.818C128.375 199.702 128.467 199.591 128.553 199.484C128.912 199.043 129.139 198.747 129.209 198.615C129.297 198.448 129.473 198.165 129.674 197.841C129.715 197.775 129.757 197.707 129.8 197.638C130.063 197.213 130.374 196.704 130.67 196.178C130.968 195.649 131.244 195.116 131.44 194.643C131.647 194.144 131.725 193.807 131.719 193.634L131.674 192.301ZM130.905 198.631C130.703 198.957 130.563 199.184 130.499 199.303C130.346 199.591 130.007 200.015 129.686 200.41C129.592 200.525 129.495 200.643 129.397 200.763C129.135 201.083 128.865 201.412 128.622 201.726C129.878 201.286 131.448 200.522 132.936 199.61C133.932 198.999 134.867 198.336 135.621 197.684C136.061 197.304 136.423 196.942 136.698 196.61L134.969 195.944L132.96 194.76C132.908 194.911 132.85 195.061 132.79 195.205C132.561 195.756 132.254 196.346 131.943 196.897C131.631 197.451 131.308 197.98 131.042 198.409C130.994 198.487 130.948 198.561 130.905 198.631ZM127.962 202.716C127.962 202.716 127.962 202.717 127.962 202.716Z" fill="#50B2DC"/>
<path d="M141.166 196.973C144.099 199.318 150.131 201.065 156.743 198.095C157.996 197.673 150.739 196.508 150.666 194.258C147.402 195.897 145.336 196.509 141.166 196.973Z" fill="#50B2DC"/>
<path fill-rule="evenodd" clip-rule="evenodd" d="M151.359 193.085L150.331 193.602C147.15 195.2 145.168 195.789 141.076 196.244L139.334 196.438L140.715 197.543C143.858 200.055 150.17 201.842 157.024 198.776C157.087 198.753 157.161 198.72 157.235 198.673C157.32 198.619 157.454 198.515 157.541 198.334C157.773 197.856 157.453 197.478 157.351 197.379C157.229 197.26 157.082 197.178 156.981 197.126C156.865 197.066 156.733 197.009 156.597 196.954C156.324 196.844 155.937 196.708 155.517 196.56C155.168 196.437 154.797 196.306 154.45 196.176C153.624 195.866 152.812 195.519 152.212 195.132C151.561 194.713 151.402 194.405 151.397 194.244L151.359 193.085ZM150.264 195.276C150.56 195.732 151.012 196.091 151.433 196.362C152.175 196.839 153.112 197.232 153.954 197.547C154.382 197.708 154.766 197.843 155.106 197.962C155.106 197.962 155.106 197.962 155.106 197.962C150.341 199.663 146.034 198.889 143.242 197.444C145.989 197.026 147.855 196.432 150.264 195.276ZM156.501 197.4C156.503 197.4 156.503 197.4 156.501 197.4Z" fill="#50B2DC"/>
<path fill-rule="evenodd" clip-rule="evenodd" d="M131.26 179.192C131.456 179.145 131.654 179.267 131.702 179.463C131.926 180.386 131.785 181.339 131.164 182.021C130.541 182.706 129.506 183.04 128.109 182.881C127.908 182.858 127.763 182.677 127.785 182.477C127.808 182.276 127.989 182.132 128.19 182.155C129.44 182.297 130.206 181.985 130.621 181.529C131.038 181.07 131.172 180.387 130.989 179.632C130.942 179.436 131.063 179.239 131.26 179.192Z" fill="#141B4D"/>
<path fill-rule="evenodd" clip-rule="evenodd" d="M125.305 182.219C125.078 182.589 125.032 183.036 125.039 183.305C125.044 183.507 124.885 183.675 124.683 183.68C124.481 183.685 124.312 183.526 124.307 183.324C124.297 182.982 124.35 182.374 124.679 181.836C125.025 181.272 125.65 180.829 126.678 180.817C126.88 180.815 127.046 180.976 127.049 181.178C127.052 181.38 126.89 181.546 126.688 181.548C125.903 181.558 125.515 181.875 125.305 182.219Z" fill="#141B4D"/>
<path fill-rule="evenodd" clip-rule="evenodd" d="M130.648 176.873C130.416 177.17 130.358 177.565 130.33 177.864C130.312 178.065 130.134 178.212 129.932 178.193C129.73 178.173 129.582 177.995 129.6 177.794C129.628 177.489 129.695 176.9 130.069 176.422C130.468 175.911 131.151 175.602 132.236 175.727C132.437 175.751 132.583 175.932 132.56 176.132C132.538 176.333 132.357 176.477 132.156 176.453C131.259 176.35 130.855 176.608 130.648 176.873Z" fill="#141B4D"/>
<path fill-rule="evenodd" clip-rule="evenodd" d="M129.067 180.253C129.141 180.184 129.256 180.187 129.326 180.26C129.465 180.407 129.576 180.536 129.677 180.654C130.005 181.035 130.225 181.29 130.922 181.593C131.015 181.633 131.058 181.741 131.018 181.834C130.977 181.926 130.869 181.969 130.777 181.928C129.997 181.59 129.722 181.27 129.382 180.873C129.285 180.76 129.182 180.64 129.06 180.511C128.99 180.438 128.994 180.322 129.067 180.253Z" fill="#141B4D"/>
<path fill-rule="evenodd" clip-rule="evenodd" d="M132.835 177.876C132.761 177.807 132.757 177.691 132.826 177.618C133.189 177.229 133.695 176.861 134.21 176.528C134.546 176.31 134.895 176.102 135.215 175.912C135.383 175.811 135.542 175.716 135.687 175.627C135.774 175.574 135.886 175.601 135.939 175.687C135.992 175.774 135.965 175.886 135.879 175.939C135.726 176.033 135.562 176.13 135.393 176.231C135.077 176.42 134.74 176.621 134.409 176.835C133.9 177.164 133.424 177.512 133.093 177.867C133.024 177.941 132.909 177.945 132.835 177.876Z" fill="#141B4D"/>
<path fill-rule="evenodd" clip-rule="evenodd" d="M133.076 178.471C133.019 178.387 133.042 178.274 133.126 178.217C133.568 177.921 134.145 177.678 134.721 177.471C135.099 177.335 135.486 177.212 135.84 177.099C136.026 177.039 136.203 176.983 136.365 176.929C136.461 176.897 136.564 176.949 136.596 177.045C136.628 177.141 136.576 177.245 136.48 177.277C136.31 177.333 136.129 177.391 135.941 177.451C135.591 177.562 135.217 177.681 134.845 177.815C134.275 178.02 133.733 178.251 133.33 178.521C133.246 178.578 133.132 178.555 133.076 178.471Z" fill="#141B4D"/>
<path fill-rule="evenodd" clip-rule="evenodd" d="M127.15 183.535C127.091 183.454 126.976 183.436 126.895 183.496C126.466 183.812 126.042 184.272 125.652 184.745C125.397 185.054 125.15 185.377 124.924 185.672C124.805 185.827 124.692 185.974 124.587 186.108C124.524 186.188 124.538 186.303 124.617 186.365C124.697 186.428 124.812 186.414 124.874 186.335C124.985 186.193 125.101 186.042 125.221 185.886C125.444 185.594 125.683 185.283 125.934 184.978C126.32 184.511 126.721 184.079 127.112 183.791C127.193 183.731 127.21 183.616 127.15 183.535Z" fill="#141B4D"/>
<path fill-rule="evenodd" clip-rule="evenodd" d="M127.73 183.837C127.646 183.782 127.532 183.806 127.477 183.89C127.187 184.336 126.951 184.916 126.751 185.496C126.621 185.875 126.503 186.263 126.394 186.619C126.338 186.806 126.283 186.984 126.232 187.146C126.201 187.242 126.254 187.345 126.351 187.376C126.447 187.407 126.55 187.353 126.581 187.257C126.635 187.086 126.69 186.904 126.748 186.715C126.855 186.364 126.969 185.988 127.097 185.615C127.295 185.042 127.519 184.497 127.784 184.09C127.839 184.006 127.815 183.892 127.73 183.837Z" fill="#141B4D"/>
<path d="M129.335 179.699C129.465 179.865 129.46 180.306 129.271 180.457C129.082 180.607 128.583 180.569 128.453 180.403C128.323 180.236 128.506 179.87 128.695 179.72C128.884 179.569 129.205 179.532 129.335 179.699Z" fill="#141B4D"/>
<g clip-path="url(#clip0_1133_6711)">
<path d="M421.611 257.935C418.115 252.119 412.824 247.596 406.535 245.048C400.246 242.499 393.3 242.063 386.741 243.805C386.521 243.872 386.284 243.86 386.071 243.773C385.858 243.685 385.681 243.527 385.571 243.325C383.81 240.157 381.891 237.08 379.821 234.105C376.653 229.533 372.965 225.345 368.831 221.625C365.341 226.495 362.151 231.765 357.921 235.905C360.63 238.491 363.069 241.346 365.201 244.425C367.182 247.265 368.998 250.216 370.641 253.265C370.739 253.44 370.782 253.64 370.764 253.84C370.746 254.04 370.668 254.229 370.541 254.385C362.691 264.335 361.921 278.525 368.921 290.025C369.564 291.114 370.269 292.166 371.031 293.175C371.125 293.284 371.242 293.372 371.373 293.433C371.504 293.493 371.647 293.525 371.791 293.525C371.936 293.525 372.079 293.493 372.21 293.433C372.341 293.372 372.458 293.284 372.551 293.175L380.861 282.175C381.011 281.995 381.093 281.768 381.093 281.535C381.093 281.301 381.011 281.074 380.861 280.895C379.132 278.945 378.213 276.409 378.291 273.805C378.496 272.056 379.106 270.38 380.073 268.91C381.04 267.439 382.337 266.215 383.861 265.335C387.071 263.335 390.581 262.965 393.141 264.255C395.061 265.255 397.241 267.475 398.341 272.405C398.388 272.648 398.523 272.866 398.72 273.016C398.918 273.165 399.164 273.236 399.411 273.215L424.051 271.325C424.263 271.304 424.462 271.216 424.621 271.074C424.779 270.931 424.888 270.743 424.931 270.535C425.058 269.711 425.108 268.877 425.081 268.045C424.816 264.432 423.621 260.949 421.611 257.935Z" fill="white"/>
<path d="M372.921 225.464C371.841 224.374 370.031 222.304 369.581 222.254L364.031 242.804C364.421 243.324 365.161 244.424 365.531 244.954C366.191 245.884 366.811 246.824 367.421 247.754L368.421 243.804L382.791 238.484C382.071 237.334 381.311 236.194 380.521 235.064L369.601 239.064L372.921 225.464Z" fill="#C0EDFF"/>
<path d="M364.031 274.805L378.141 273.935C378.267 272.477 378.718 271.065 379.461 269.805L364.141 270.805C364.02 272.134 363.983 273.47 364.031 274.805V274.805Z" fill="#C0EDFF"/>
<path fill-rule="evenodd" clip-rule="evenodd" d="M391.641 242.935C393.641 242.435 395.641 242.435 396.301 242.805L418.141 271.435C418.641 271.935 412.141 272.435 412.141 271.935L391.641 242.935Z" fill="#C0EDFF"/>
</g>
<path d="M177.315 312.622C181.968 321.481 192.032 328.495 201.842 332.462C222.136 340.669 239.071 334.05 242.187 353.635C243.052 369.679 187.489 345.437 187.286 346.475C185.446 355.886 208.119 381.916 207.623 391.353C206.816 406.7 206.79 421.285 207.501 437.879C207.932 447.936 207.595 452.469 208.365 461.65C208.365 461.792 206.98 465.777 203.75 456.326C195.67 432.678 187.899 412.556 178.399 389.413C171.437 372.453 166.182 354.813 163.995 336.571C163.051 328.699 167.035 284.443 173.115 303.451C174.226 306.921 175.607 309.369 177.315 312.622Z" fill="#141B4D"/>
<path d="M396.081 312.622C391.428 321.481 381.364 328.495 371.554 332.462C351.26 340.669 334.325 334.05 331.209 353.635C330.344 369.679 385.907 345.437 386.11 346.475C387.95 355.886 365.277 381.916 365.773 391.353C366.58 406.7 366.606 421.285 365.895 437.879C365.464 447.936 365.801 452.469 365.031 461.65C365.031 461.792 366.416 465.777 369.646 456.326C377.726 432.678 385.497 412.556 394.997 389.413C401.959 372.453 407.214 354.813 409.401 336.571C410.345 328.699 406.361 284.443 400.281 303.451C399.17 306.921 397.789 309.369 396.081 312.622Z" fill="#141B4D"/>
<path fill-rule="evenodd" clip-rule="evenodd" d="M341.819 357.245C344.112 353.854 341.394 349.778 337.3 349.778H235.692C231.598 349.778 228.88 353.854 231.173 357.245C240.748 371.407 261.918 385.389 286.496 385.389C311.074 385.389 332.244 371.407 341.819 357.245Z" fill="#E14F60"/>
<path d="M205.541 336.763C209.613 344.518 218.422 350.657 227.008 354.129C244.771 361.313 259.595 355.519 262.322 372.662C263.078 386.704 214.446 365.486 214.268 366.394C212.657 374.632 232.502 397.416 232.068 405.675C231.362 419.108 231.339 431.875 231.962 446.399C232.339 455.201 232.044 459.169 232.717 467.205C232.717 467.33 231.506 470.818 228.679 462.545C221.606 441.846 214.805 424.234 206.489 403.977C200.395 389.132 195.795 373.692 193.882 357.726C193.056 350.835 196.542 312.099 201.864 328.736C202.836 331.774 204.046 333.917 205.541 336.763Z" fill="#FF9737"/>
<path d="M367.375 336.763C363.302 344.518 354.493 350.657 345.907 354.129C328.144 361.313 313.321 355.519 310.593 372.662C309.837 386.704 358.47 365.486 358.647 366.394C360.259 374.632 340.413 397.416 340.847 405.675C341.553 419.108 341.576 431.875 340.954 446.399C340.576 455.201 340.872 459.169 340.198 467.205C340.198 467.33 341.41 470.818 344.237 462.545C351.309 441.846 358.111 424.234 366.426 403.977C372.52 389.132 377.12 373.692 379.034 357.726C379.86 350.835 376.373 312.099 371.051 328.736C370.079 331.774 368.87 333.917 367.375 336.763Z" fill="#FF9737"/>
<path d="M255.958 369.541C255.958 371.562 254.319 373.201 252.298 373.201C250.277 373.201 248.638 371.562 248.638 369.541C248.638 367.52 250.277 365.881 252.298 365.881C254.319 365.881 255.958 367.52 255.958 369.541Z" fill="#141B4D"/>
<path d="M322.559 369.541C322.559 371.562 320.921 373.201 318.9 373.201C316.878 373.201 315.24 371.562 315.24 369.541C315.24 367.52 316.878 365.881 318.9 365.881C320.921 365.881 322.559 367.52 322.559 369.541Z" fill="#141B4D"/>
<path fill-rule="evenodd" clip-rule="evenodd" d="M245.592 91.5466L224.366 70.3206L228.506 66.1802L249.732 87.4062L245.592 91.5466Z" fill="#141B4D"/>
<path fill-rule="evenodd" clip-rule="evenodd" d="M339.831 88.281L363.828 70.2215L367.349 74.9001L343.352 92.9596L339.831 88.281Z" fill="#141B4D"/>
<path fill-rule="evenodd" clip-rule="evenodd" d="M358.417 128.084C364.197 148.423 348.976 167.953 327.972 170.391L231.381 181.604C206.58 184.484 187.624 162.669 200.708 141.404C223.898 103.71 263.054 68.0278 295.659 64.2429C329.805 60.2789 348.244 92.2893 358.417 128.084Z" fill="#FF9737"/>
<path fill-rule="evenodd" clip-rule="evenodd" d="M348.427 133.363C351.816 147.046 341.772 160.022 327.769 161.648L228.813 173.135C212.279 175.055 199.358 160.504 207.246 145.847C226.081 110.851 262.821 75.3602 292.99 71.8579C324.354 68.2169 340.196 100.127 348.427 133.363Z" fill="#141B4D"/>
<path fill-rule="evenodd" clip-rule="evenodd" d="M315.668 113.81L316.703 150.914C316.776 153.523 313.048 154.058 312.384 151.534L305.676 126.021L303.914 132.441C303.677 133.304 302.939 133.938 302.05 134.041L258.675 139.076C258.133 139.139 257.588 138.998 257.144 138.68L252.84 135.599L251.023 160.167C250.837 162.687 247.241 162.95 246.69 160.484L238.001 121.571L234.348 140.359C234.165 141.298 233.396 142.011 232.446 142.121L209.568 144.777L209.23 141.869L231.576 139.275L235.796 117.572C236.251 115.236 239.576 115.19 240.095 117.512L248.468 155.013L250.016 134.083C250.142 132.374 252.09 131.462 253.484 132.46L258.618 136.135L301.221 131.19L303.574 122.619C304.168 120.454 307.244 120.47 307.815 122.641L313.599 144.64L312.597 108.721C312.526 106.18 316.111 105.57 316.884 107.992L323.466 128.607L346.868 125.891L347.206 128.799L323.205 131.585C322.162 131.706 321.18 131.072 320.86 130.072L315.668 113.81Z" fill="#40DA6B"/>
<path d="M234.487 66.4211C234.487 71.4741 230.554 75.5703 225.704 75.5703C220.853 75.5703 216.92 71.4741 216.92 66.4211C216.92 61.3682 220.853 57.272 225.704 57.272C230.554 57.272 234.487 61.3682 234.487 66.4211Z" fill="#FF9737"/>
<path d="M379.409 70.0813C379.409 75.1342 375.313 79.2304 370.26 79.2304C365.207 79.2304 361.111 75.1342 361.111 70.0813C361.111 65.0283 365.207 60.9321 370.26 60.9321C375.313 60.9321 379.409 65.0283 379.409 70.0813Z" fill="#FF9737"/>
<path d="M278.463 13.4801C278.618 12.8906 279.383 12.7374 279.753 13.2219L320.534 66.6599C320.768 66.9663 320.721 67.4046 320.429 67.6555C303.783 81.9327 285.5 84.7525 261.317 82.1156C260.874 82.0673 260.574 81.6352 260.687 81.2039L278.463 13.4801Z" fill="#50B2DC"/>
<path fill-rule="evenodd" clip-rule="evenodd" d="M381.999 119.333C373.174 118.042 367.21 119.68 364.096 123.719C361.026 127.702 361.325 133.266 363.169 138.411C365.042 143.635 368.663 148.936 373.081 152.889C373.483 153.248 373.893 153.598 374.311 153.938L356.69 152.203L343.674 156.35C341.761 156.847 340.624 157.766 342.783 158.059L397.022 167.403C409.256 168.278 413.551 155.441 411.521 145.397C409.22 134.015 399.727 121.925 381.999 119.333Z" fill="#50B2DC"/>
<path fill-rule="evenodd" clip-rule="evenodd" d="M389.98 148.192C388.92 149.343 387.917 149.815 387.044 149.927C386.153 150.041 385.211 149.806 384.249 149.215C382.278 148.004 380.485 145.438 379.603 142.579C378.712 139.691 378.887 136.99 380.16 135.348C381.348 133.816 383.954 132.652 389.303 133.87C392.402 134.575 396.027 137.748 398.476 141.853C400.938 145.978 401.833 150.391 400.386 153.4L401.705 154.034L400.386 153.4C399.16 155.951 396.416 157.83 391.706 158.05C387.127 158.264 380.209 157.643 373.856 156.592C370.69 156.069 367.699 155.444 365.243 154.775C362.734 154.092 360.948 153.405 360.065 152.816C359.393 152.368 358.484 152.55 358.035 153.222C357.587 153.895 357.769 154.804 358.441 155.252C359.754 156.128 361.95 156.913 364.474 157.6C367.051 158.302 370.144 158.946 373.378 159.481C379.825 160.547 386.972 161.202 391.842 160.974C397.309 160.719 401.208 158.447 403.025 154.669C405.115 150.319 403.625 144.769 400.991 140.353C398.344 135.918 394.162 131.973 389.953 131.015C384.111 129.685 380.05 130.711 377.846 133.554C375.728 136.286 375.787 140.142 376.805 143.443C377.833 146.772 379.976 150.026 382.716 151.71C384.111 152.567 385.719 153.049 387.417 152.831C389.123 152.611 390.737 151.708 392.174 150.131L392.204 150.098L392.232 150.063C394.111 147.73 394.836 145.534 394.1 143.657C393.383 141.827 391.55 141.012 390.046 140.745C388.541 140.478 386.737 140.637 385.534 141.434C384.886 141.863 384.257 142.6 384.246 143.652C384.235 144.632 384.774 145.477 385.451 146.155C386.023 146.726 386.95 146.726 387.521 146.155C388.093 145.583 388.093 144.656 387.521 144.084C387.407 143.97 387.329 143.877 387.276 143.805C387.697 143.604 388.562 143.455 389.534 143.628C390.616 143.82 391.203 144.288 391.374 144.726C391.526 145.113 391.608 146.157 389.98 148.192Z" fill="#FFC600"/>
<path d="M333.998 150.007C336.56 149.641 372.425 153.666 372.425 153.666C367.491 155.449 366.341 157.1 366.215 161.224C366.202 161.675 365.8 162.019 365.355 161.947L332.314 156.618C332.218 156.602 332.123 156.567 332.043 156.512C329.305 154.636 331.474 150.367 333.998 150.007Z" fill="#8664FF"/>
<path fill-rule="evenodd" clip-rule="evenodd" d="M218.329 296.961C215.286 313.656 228.83 328.088 245.8 328.088H326.87C343.84 328.088 357.383 313.656 354.341 296.961C344.047 240.473 317.482 191.949 286.335 191.949C255.187 191.949 228.623 240.473 218.329 296.961Z" fill="#FF9737"/>
<path fill-rule="evenodd" clip-rule="evenodd" d="M320.051 211.707C319.852 212.163 319.659 212.627 319.465 213.091C318.289 215.903 317.105 218.737 314.572 220.171C311.273 222.039 306.714 221.86 302.341 221.688C296.456 221.458 290.907 221.24 289.221 226.041C287.604 230.642 292.269 233.356 297.259 236.26C300.861 238.355 304.631 240.549 306.332 243.622C307.8 246.275 307.541 249.723 307.29 253.066C306.971 257.31 306.665 261.385 309.924 263.445C313.389 265.635 317.205 263.539 321.175 261.358C323.827 259.901 326.547 258.407 329.277 258.126C331.943 257.851 334.853 258.773 337.685 259.669C340.418 260.535 343.078 261.377 345.378 261.1C338.779 241.264 330.107 224.001 320.051 211.707Z" fill="#E14F60"/>
<path fill-rule="evenodd" clip-rule="evenodd" d="M270.907 300.722C272.322 296.806 279.911 294.418 277.922 290.749C275.821 286.874 269.162 291.403 265.02 289.862C262.223 288.821 261.774 284.404 258.883 283.664C255.755 282.862 252.152 283.831 249.723 285.943C247.31 288.042 246.165 291.438 246.274 294.631C246.37 297.461 249.471 299.191 250.268 301.911C251.226 305.182 248.558 309.8 251.312 311.824C253.99 313.793 257.469 309.83 260.788 309.643C264.189 309.451 268.154 312.979 270.703 310.732C273.272 308.467 269.745 303.939 270.907 300.722Z" fill="#50B2DC"/>
<defs>
<clipPath id="clip0_1133_6711">
<rect width="67.1" height="71.92" fill="white" transform="translate(357.921 221.625)"/>
</clipPath>
</defs>
</svg>
